<svg version="1.1" viewBox="0.0 0.0 960.0 540.0" fill="none" stroke="none" stroke-linecap="square" stroke-miterlimit="10" xmlns:xlink="http://www.w3.org/1999/xlink" xmlns="http://www.w3.org/2000/svg"><clipPath id="g2b58d2ff7db_0_85.0"><path d="m0 0l960.0 0l0 540.0l-960.0 0l0 -540.0z" clip-rule="nonzero"/></clipPath><g clip-path="url(#g2b58d2ff7db_0_85.0)"><path fill="#000000" fill-opacity="0.0" d="m0 0l960.0 0l0 540.0l-960.0 0z" fill-rule="evenodd"/><path fill="#fe6c66" d="m70.76509 230.18898l0 0c0 -7.001404 5.6757584 -12.67717 12.67717 -12.67717l0 0c3.3621902 0 6.5866776 1.3356323 8.964104 3.7130585c2.3774338 2.3774261 3.7130585 5.6019135 3.7130585 8.964111l0 0c0 7.001404 -5.6757584 12.677155 -12.677162 12.677155l0 0c-7.0014114 0 -12.67717 -5.6757507 -12.67717 -12.677155z" fill-rule="evenodd"/><path stroke="#fe6c66" stroke-width="1.0" stroke-linejoin="round" stroke-linecap="butt" d="m70.76509 230.18898l0 0c0 -7.001404 5.6757584 -12.67717 12.67717 -12.67717l0 0c3.3621902 0 6.5866776 1.3356323 8.964104 3.7130585c2.3774338 2.3774261 3.7130585 5.6019135 3.7130585 8.964111l0 0c0 7.001404 -5.6757584 12.677155 -12.677162 12.677155l0 0c-7.0014114 0 -12.67717 -5.6757507 -12.67717 -12.677155z" fill-rule="evenodd"/><path fill="#000000" fill-opacity="0.0" d="m369.5504 94.69292l248.84985 0c6.1035156E-4 0 0.001159668 2.3651123E-4 0.0016479492 6.713867E-4c4.272461E-4 4.272461E-4 6.713867E-4 0.0010147095 6.713867E-4 0.001625061l-0.002319336 136.69006c0 15.098984 -12.240173 27.339111 -27.339111 27.339111l-248.84988 0l0 0c-0.0012512207 0 -0.0022888184 -0.0010070801 -0.0022888184 -0.0022888184l0.0022888184 -136.69006l0 0c0 -15.098984 12.240143 -27.339127 27.339142 -27.339127z" fill-rule="evenodd"/><path stroke="#595959" stroke-width="8.0" stroke-linejoin="round" stroke-linecap="butt" d="m369.5504 94.69292l248.84985 0c6.1035156E-4 0 0.001159668 2.3651123E-4 0.0016479492 6.713867E-4c4.272461E-4 4.272461E-4 6.713867E-4 0.0010147095 6.713867E-4 0.001625061l-0.002319336 136.69006c0 15.098984 -12.240173 27.339111 -27.339111 27.339111l-248.84988 0l0 0c-0.0012512207 0 -0.0022888184 -0.0010070801 -0.0022888184 -0.0022888184l0.0022888184 -136.69006l0 0c0 -15.098984 12.240143 -27.339127 27.339142 -27.339127z" fill-rule="evenodd"/><path fill="#000000" fill-opacity="0.0" d="m351.0315 104.44095l259.1811 0l0 77.5748l-259.1811 0z" fill-rule="evenodd"/><path fill="#595959" d="m390.5342 144.64532q-3.453125 0 -5.921875 -1.515625q-2.46875 -1.515625 -3.796875 -4.21875q-1.3125 -2.703125 -1.3125 -6.265625q0 -3.578125 1.3125 -6.28125q1.328125 -2.703125 3.796875 -4.203125q2.46875 -1.515625 5.921875 -1.515625q3.984375 0 6.640625 2.0q2.65625 1.984375 3.734375 5.359375l-3.890625 1.0625q-0.671875 -2.25 -2.296875 -3.515625q-1.609375 -1.28125 -4.1875 -1.28125q-2.328125 0 -3.875 1.046875q-1.53125 1.03125 -2.3125 2.921875q-0.765625 1.875 -0.78125 4.40625q0 2.53125 0.765625 4.40625q0.78125 1.875 2.328125 2.921875q1.546875 1.03125 3.875 1.03125q2.578125 0 4.1875 -1.28125q1.625 -1.28125 2.296875 -3.515625l3.890625 1.078125q-1.078125 3.375 -3.734375 5.375q-2.65625 1.984375 -6.640625 1.984375zm21.522675 0q-2.59375 0 -4.53125 -1.171875q-1.9375 -1.171875 -3.0 -3.21875q-1.0625 -2.0625 -1.0625 -4.734375q0 -2.71875 1.078125 -4.765625q1.09375 -2.046875 3.03125 -3.203125q1.9375 -1.15625 4.484375 -1.15625q2.609375 0 4.546875 1.171875q1.9375 1.171875 3.0 3.234375q1.078125 2.046875 1.078125 4.71875q0 2.6875 -1.078125 4.75q-1.078125 2.046875 -3.015625 3.21875q-1.9375 1.15625 -4.53125 1.15625zm0 -3.625q2.296875 0 3.421875 -1.53125q1.125 -1.53125 1.125 -3.96875q0 -2.515625 -1.140625 -4.0q-1.140625 -1.5 -3.40625 -1.5q-1.5625 0 -2.5625 0.703125q-1.0 0.6875 -1.484375 1.9375q-0.46875 1.234375 -0.46875 2.859375q0 2.515625 1.140625 4.015625q1.140625 1.484375 3.375 1.484375zm24.088562 3.140625l0 -8.3125q0 -0.828125 -0.109375 -1.8125q-0.109375 -1.0 -0.515625 -1.90625q-0.40625 -0.921875 -1.21875 -1.515625q-0.8125 -0.59375 -2.1875 -0.59375q-0.734375 0 -1.453125 0.25q-0.71875 0.234375 -1.3125 0.8125q-0.578125 0.578125 -0.9375 1.59375q-0.34375 1.015625 -0.34375 2.609375l-2.28125 -0.984375q0 -2.203125 0.84375 -3.984375q0.859375 -1.796875 2.515625 -2.859375q1.671875 -1.078125 4.109375 -1.078125q1.921875 0 3.171875 0.640625q1.25 0.640625 1.984375 1.640625q0.734375 0.984375 1.078125 2.109375q0.359375 1.125 0.453125 2.125q0.109375 1.0 0.109375 1.625l0 9.640625l-3.90625 0zm-11.984375 0l0 -17.28125l3.4375 0l0 5.359375l0.46875 0l0 11.921875l-3.90625 0zm30.187897 0q-1.71875 0.3125 -3.359375 0.265625q-1.640625 -0.03125 -2.9375 -0.59375q-1.296875 -0.5625 -1.96875 -1.796875q-0.59375 -1.125 -0.625 -2.28125q-0.03125 -1.171875 -0.03125 -2.65625l0 -15.015625l3.84375 0l0 14.796875q0 1.046875 0.015625 1.828125q0.03125 0.78125 0.328125 1.28125q0.578125 0.953125 1.84375 1.078125q1.265625 0.109375 2.890625 -0.140625l0 3.234375zm-12.0625 -14.25l0 -3.03125l12.0625 0l0 3.03125l-12.0625 0zm22.757294 14.734375q-2.625 0 -4.609375 -1.140625q-1.984375 -1.140625 -3.09375 -3.15625q-1.109375 -2.015625 -1.109375 -4.640625q0 -2.828125 1.078125 -4.90625q1.09375 -2.09375 3.03125 -3.25q1.9375 -1.15625 4.484375 -1.15625q2.6875 0 4.5625 1.265625q1.875 1.25 2.78125 3.546875q0.921875 2.28125 0.703125 5.390625l-3.828125 0l0 -1.40625q-0.015625 -2.828125 -1.0 -4.125q-0.96875 -1.296875 -3.0625 -1.296875q-2.375 0 -3.53125 1.46875q-1.140625 1.46875 -1.140625 4.28125q0 2.625 1.140625 4.0625q1.15625 1.4375 3.375 1.4375q1.421875 0 2.453125 -0.625q1.03125 -0.640625 1.59375 -1.828125l3.8125 1.140625q-1.0 2.34375 -3.078125 3.640625q-2.0625 1.296875 -4.5625 1.296875zm-5.953125 -8.046875l0 -2.921875l11.890625 0l0 2.921875l-11.890625 0zm28.830902 7.5625l0 -8.3125q0 -0.828125 -0.109375 -1.8125q-0.109375 -1.0 -0.515625 -1.90625q-0.40625 -0.921875 -1.21875 -1.515625q-0.8125 -0.59375 -2.1875 -0.59375q-0.734375 0 -1.453125 0.25q-0.71875 0.234375 -1.3125 0.8125q-0.578125 0.578125 -0.9375 1.59375q-0.34375 1.015625 -0.34375 2.609375l-2.28125 -0.984375q0 -2.203125 0.84375 -3.984375q0.859375 -1.796875 2.515625 -2.859375q1.671875 -1.078125 4.109375 -1.078125q1.921875 0 3.171875 0.640625q1.25 0.640625 1.984375 1.640625q0.734375 0.984375 1.078125 2.109375q0.359375 1.125 0.453125 2.125q0.109375 1.0 0.109375 1.625l0 9.640625l-3.90625 0zm-11.984375 0l0 -17.28125l3.4375 0l0 5.359375l0.46875 0l0 11.921875l-3.90625 0zm30.187927 0q-1.71875 0.3125 -3.359375 0.265625q-1.640625 -0.03125 -2.9375 -0.59375q-1.296875 -0.5625 -1.96875 -1.796875q-0.59375 -1.125 -0.625 -2.28125q-0.03125 -1.171875 -0.03125 -2.65625l0 -15.015625l3.84375 0l0 14.796875q0 1.046875 0.015625 1.828125q0.03125 0.78125 0.328125 1.28125q0.578125 0.953125 1.84375 1.078125q1.265625 0.109375 2.890625 -0.140625l0 3.234375zm-12.0625 -14.25l0 -3.03125l12.0625 0l0 3.03125l-12.0625 0zm22.177887 14.25l0 -23.046875l9.53125 0q0.328125 0 0.859375 0.03125q0.53125 0.03125 0.96875 0.109375q2.0 0.296875 3.296875 1.328125q1.3125 1.015625 1.9375 2.578125q0.640625 1.5625 0.640625 3.46875q0 1.890625 -0.640625 3.453125q-0.640625 1.546875 -1.953125 2.578125q-1.296875 1.015625 -3.28125 1.328125q-0.4375 0.0625 -0.984375 0.09375q-0.53125 0.03125 -0.84375 0.03125l-5.671875 0l0 8.046875l-3.859375 0zm3.859375 -11.640625l5.5 0q0.328125 0 0.71875 -0.03125q0.40625 -0.046875 0.75 -0.140625q0.953125 -0.234375 1.5 -0.84375q0.5625 -0.609375 0.78125 -1.375q0.234375 -0.765625 0.234375 -1.5q0 -0.734375 -0.234375 -1.515625q-0.21875 -0.78125 -0.78125 -1.390625q-0.546875 -0.609375 -1.5 -0.84375q-0.34375 -0.09375 -0.75 -0.109375q-0.390625 -0.03125 -0.71875 -0.03125l-5.5 0l0 7.78125zm23.941284 12.125q-2.59375 0 -4.53125 -1.171875q-1.9375 -1.171875 -3.0 -3.21875q-1.0625 -2.0625 -1.0625 -4.734375q0 -2.71875 1.078125 -4.765625q1.09375 -2.046875 3.03125 -3.203125q1.9375 -1.15625 4.484375 -1.15625q2.609375 0 4.546875 1.171875q1.9375 1.171875 3.0 3.234375q1.078125 2.046875 1.078125 4.71875q0 2.6875 -1.078125 4.75q-1.078125 2.046875 -3.015625 3.21875q-1.9375 1.15625 -4.53125 1.15625zm0 -3.625q2.296875 0 3.421875 -1.53125q1.125 -1.53125 1.125 -3.96875q0 -2.515625 -1.140625 -4.0q-1.140625 -1.5 -3.40625 -1.5q-1.5625 0 -2.5625 0.703125q-1.0 0.6875 -1.484375 1.9375q-0.46875 1.234375 -0.46875 2.859375q0 2.515625 1.140625 4.015625q1.140625 1.484375 3.375 1.484375zm19.776062 3.625q-2.59375 0 -4.53125 -1.171875q-1.9375 -1.171875 -3.0 -3.21875q-1.0625 -2.0625 -1.0625 -4.734375q0 -2.71875 1.078125 -4.765625q1.09375 -2.046875 3.03125 -3.203125q1.9375 -1.15625 4.484375 -1.15625q2.609375 0 4.546875 1.171875q1.9375 1.171875 3.0 3.234375q1.078125 2.046875 1.078125 4.71875q0 2.6875 -1.078125 4.75q-1.078125 2.046875 -3.015625 3.21875q-1.9375 1.15625 -4.53125 1.15625zm0 -3.625q2.296875 0 3.421875 -1.53125q1.125 -1.53125 1.125 -3.96875q0 -2.515625 -1.140625 -4.0q-1.140625 -1.5 -3.40625 -1.5q-1.5625 0 -2.5625 0.703125q-1.0 0.6875 -1.484375 1.9375q-0.46875 1.234375 -0.46875 2.859375q0 2.515625 1.140625 4.015625q1.140625 1.484375 3.375 1.484375zm12.463562 3.140625l0 -23.515625l3.859375 0l0 23.515625l-3.859375 0z" fill-rule="nonzero"/><path fill="#595959" d="m431.0466 170.24782q-0.9375 -1.09375 -1.609375 -2.46875q-0.65625 -1.359375 -1.0 -2.859375q-0.34375 -1.515625 -0.328125 -3.0q-0.015625 -1.484375 0.328125 -2.984375q0.34375 -1.515625 1.0 -2.875q0.671875 -1.375 1.609375 -2.46875l1.421875 1.0625q-0.96875 1.15625 -1.546875 2.34375q-0.5625 1.171875 -0.8125 2.40625q-0.25 1.234375 -0.25 2.515625q0 1.296875 0.25 2.53125q0.265625 1.21875 0.828125 2.40625q0.5625 1.1875 1.53125 2.328125l-1.421875 1.0625zm3.2010498 -3.046875l0 -8.640625l1.703125 0l0 2.109375l-0.21875 -0.28125q0.171875 -0.421875 0.4375 -0.78125q0.265625 -0.359375 0.640625 -0.59375q0.328125 -0.21875 0.703125 -0.328125q0.390625 -0.125 0.796875 -0.15625q0.40625 -0.03125 0.796875 0.03125l0 1.796875q-0.390625 -0.109375 -0.890625 -0.0625q-0.5 0.03125 -0.890625 0.28125q-0.40625 0.203125 -0.65625 0.546875q-0.25 0.328125 -0.375 0.765625q-0.109375 0.421875 -0.109375 0.921875l0 4.390625l-1.9375 0zm10.145782 0.234375q-1.3125 0 -2.3125 -0.5625q-0.984375 -0.5625 -1.546875 -1.5625q-0.546875 -1.015625 -0.546875 -2.328125q0 -1.421875 0.546875 -2.46875q0.546875 -1.046875 1.5 -1.609375q0.96875 -0.578125 2.25 -0.578125q1.34375 0 2.28125 0.625q0.9375 0.625 1.390625 1.78125q0.46875 1.140625 0.34375 2.6875l-1.90625 0l0 -0.703125q0 -1.40625 -0.5 -2.046875q-0.484375 -0.65625 -1.53125 -0.65625q-1.1875 0 -1.765625 0.734375q-0.5625 0.71875 -0.5625 2.140625q0 1.296875 0.5625 2.03125q0.578125 0.71875 1.6875 0.71875q0.703125 0 1.21875 -0.3125q0.53125 -0.328125 0.796875 -0.921875l1.90625 0.578125q-0.484375 1.15625 -1.53125 1.8125q-1.03125 0.640625 -2.28125 0.640625zm-2.96875 -4.015625l0 -1.453125l5.9375 0l0 1.453125l-5.9375 0zm12.303741 7.859375q-0.71875 0 -1.375 -0.234375q-0.65625 -0.21875 -1.1875 -0.640625q-0.53125 -0.40625 -0.875 -1.0l1.78125 -0.890625q0.25 0.484375 0.703125 0.703125q0.453125 0.234375 0.96875 0.234375q0.59375 0 1.0625 -0.21875q0.46875 -0.203125 0.734375 -0.625q0.265625 -0.40625 0.25 -1.015625l0 -2.46875l0.234375 0l0 -6.5625l1.6875 0l0 9.0625q0 0.328125 -0.03125 0.625q-0.015625 0.296875 -0.09375 0.578125q-0.1875 0.84375 -0.734375 1.375q-0.546875 0.546875 -1.34375 0.8125q-0.796875 0.265625 -1.78125 0.265625zm-0.171875 -3.84375q-1.1875 0 -2.078125 -0.59375q-0.890625 -0.59375 -1.375 -1.625q-0.484375 -1.046875 -0.484375 -2.328125q0 -1.3125 0.484375 -2.34375q0.5 -1.03125 1.40625 -1.625q0.90625 -0.59375 2.125 -0.59375q1.234375 0 2.0625 0.59375q0.84375 0.59375 1.265625 1.625q0.4375 1.03125 0.4375 2.34375q0 1.28125 -0.4375 2.328125q-0.421875 1.03125 -1.28125 1.625q-0.859375 0.59375 -2.125 0.59375zm0.296875 -1.71875q0.78125 0 1.25 -0.359375q0.484375 -0.359375 0.703125 -1.0q0.21875 -0.640625 0.21875 -1.46875q0 -0.859375 -0.21875 -1.484375q-0.21875 -0.640625 -0.6875 -1.0q-0.453125 -0.359375 -1.203125 -0.359375q-0.765625 0 -1.28125 0.390625q-0.5 0.375 -0.734375 1.015625q-0.234375 0.640625 -0.234375 1.4375q0 0.78125 0.234375 1.4375q0.234375 0.640625 0.71875 1.015625q0.484375 0.375 1.234375 0.375zm10.027771 1.71875q-1.3125 0 -2.3125 -0.5625q-0.984375 -0.5625 -1.546875 -1.5625q-0.546875 -1.015625 -0.546875 -2.328125q0 -1.421875 0.546875 -2.46875q0.546875 -1.046875 1.5 -1.609375q0.96875 -0.578125 2.25 -0.578125q1.34375 0 2.28125 0.625q0.9375 0.625 1.390625 1.78125q0.46875 1.140625 0.34375 2.6875l-1.90625 0l0 -0.703125q0 -1.40625 -0.5 -2.046875q-0.484375 -0.65625 -1.53125 -0.65625q-1.1875 0 -1.765625 0.734375q-0.5625 0.71875 -0.5625 2.140625q0 1.296875 0.5625 2.03125q0.578125 0.71875 1.6875 0.71875q0.703125 0 1.21875 -0.3125q0.53125 -0.328125 0.796875 -0.921875l1.90625 0.578125q-0.484375 1.15625 -1.53125 1.8125q-1.03125 0.640625 -2.28125 0.640625zm-2.96875 -4.015625l0 -1.453125l5.9375 0l0 1.453125l-5.9375 0zm8.834991 3.78125l0 -11.765625l1.921875 0l0 11.765625l-1.921875 0zm8.472321 0.234375q-1.25 0 -2.109375 -0.59375q-0.859375 -0.59375 -1.296875 -1.625q-0.421875 -1.046875 -0.421875 -2.328125q0 -1.3125 0.421875 -2.34375q0.4375 -1.03125 1.265625 -1.625q0.84375 -0.59375 2.078125 -0.59375q1.21875 0 2.109375 0.59375q0.90625 0.59375 1.40625 1.625q0.5 1.03125 0.5 2.34375q0 1.28125 -0.5 2.328125q-0.484375 1.03125 -1.375 1.625q-0.875 0.59375 -2.078125 0.59375zm-4.15625 -0.234375l0 -11.515625l1.9375 0l0 5.453125l-0.234375 0l0 6.0625l-1.703125 0zm3.859375 -1.484375q0.765625 0 1.25 -0.375q0.484375 -0.375 0.71875 -1.015625q0.234375 -0.65625 0.234375 -1.4375q0 -0.796875 -0.234375 -1.4375q-0.234375 -0.640625 -0.75 -1.015625q-0.5 -0.390625 -1.28125 -0.390625q-0.734375 0 -1.203125 0.359375q-0.453125 0.359375 -0.671875 1.0q-0.21875 0.625 -0.21875 1.484375q0 0.828125 0.21875 1.46875q0.21875 0.640625 0.6875 1.0q0.484375 0.359375 1.25 0.359375zm8.418396 1.71875q-0.9375 0 -1.59375 -0.34375q-0.640625 -0.359375 -0.96875 -0.953125q-0.328125 -0.59375 -0.328125 -1.3125q0 -0.609375 0.203125 -1.109375q0.21875 -0.5 0.640625 -0.859375q0.4375 -0.375 1.125 -0.609375q0.515625 -0.171875 1.21875 -0.296875q0.703125 -0.140625 1.515625 -0.25q0.828125 -0.125 1.71875 -0.265625l-0.6875 0.390625q0.015625 -0.890625 -0.40625 -1.3125q-0.40625 -0.421875 -1.375 -0.421875q-0.578125 0 -1.125 0.28125q-0.546875 0.265625 -0.75 0.921875l-1.765625 -0.546875q0.3125 -1.09375 1.21875 -1.75q0.90625 -0.671875 2.421875 -0.671875q1.15625 0 2.03125 0.375q0.875 0.375 1.296875 1.234375q0.234375 0.453125 0.28125 0.9375q0.046875 0.46875 0.046875 1.03125l0 5.296875l-1.6875 0l0 -1.875l0.28125 0.3125q-0.578125 0.9375 -1.359375 1.375q-0.78125 0.421875 -1.953125 0.421875zm0.390625 -1.53125q0.65625 0 1.109375 -0.234375q0.46875 -0.234375 0.75 -0.5625q0.28125 -0.34375 0.375 -0.640625q0.140625 -0.359375 0.15625 -0.828125q0.03125 -0.484375 0.03125 -0.78125l0.59375 0.171875q-0.875 0.140625 -1.5 0.25q-0.625 0.09375 -1.078125 0.1875q-0.4375 0.09375 -0.78125 0.203125q-0.34375 0.125 -0.578125 0.28125q-0.21875 0.15625 -0.34375 0.375q-0.125 0.203125 -0.125 0.484375q0 0.3125 0.15625 0.5625q0.15625 0.25 0.46875 0.390625q0.3125 0.140625 0.765625 0.140625zm9.747131 1.53125q-1.59375 0 -2.59375 -0.71875q-1.0 -0.71875 -1.21875 -2.015625l1.96875 -0.3125q0.15625 0.640625 0.671875 1.015625q0.515625 0.359375 1.3125 0.359375q0.6875 0 1.0625 -0.265625q0.390625 -0.28125 0.390625 -0.765625q0 -0.296875 -0.140625 -0.46875q-0.140625 -0.1875 -0.609375 -0.34375q-0.46875 -0.171875 -1.453125 -0.4375q-1.078125 -0.28125 -1.71875 -0.609375q-0.640625 -0.328125 -0.921875 -0.78125q-0.28125 -0.46875 -0.28125 -1.109375q0 -0.8125 0.421875 -1.40625q0.421875 -0.609375 1.171875 -0.921875q0.765625 -0.328125 1.796875 -0.328125q1.015625 0 1.796875 0.3125q0.78125 0.3125 1.25 0.890625q0.484375 0.5625 0.59375 1.34375l-1.96875 0.359375q-0.0625 -0.5625 -0.5 -0.875q-0.421875 -0.328125 -1.125 -0.359375q-0.6875 -0.046875 -1.109375 0.203125q-0.40625 0.234375 -0.40625 0.6875q0 0.234375 0.15625 0.421875q0.171875 0.171875 0.671875 0.34375q0.515625 0.171875 1.53125 0.4375q1.03125 0.265625 1.640625 0.609375q0.625 0.328125 0.90625 0.8125q0.28125 0.46875 0.28125 1.140625q0 1.296875 -0.953125 2.046875q-0.953125 0.734375 -2.625 0.734375zm5.4920044 -10.1875l0 -1.765625l1.921875 0l0 1.765625l-1.921875 0zm0 9.953125l0 -8.640625l1.921875 0l0 8.640625l-1.921875 0zm8.253571 0.234375q-1.3125 0 -2.3125 -0.5625q-0.984375 -0.5625 -1.546875 -1.5625q-0.546875 -1.015625 -0.546875 -2.328125q0 -1.421875 0.546875 -2.46875q0.546875 -1.046875 1.5 -1.609375q0.96875 -0.578125 2.25 -0.578125q1.34375 0 2.28125 0.625q0.9375 0.625 1.390625 1.78125q0.46875 1.140625 0.34375 2.6875l-1.90625 0l0 -0.703125q0 -1.40625 -0.5 -2.046875q-0.484375 -0.65625 -1.53125 -0.65625q-1.1875 0 -1.765625 0.734375q-0.5625 0.71875 -0.5625 2.140625q0 1.296875 0.5625 2.03125q0.578125 0.71875 1.6875 0.71875q0.703125 0 1.21875 -0.3125q0.53125 -0.328125 0.796875 -0.921875l1.90625 0.578125q-0.484375 1.15625 -1.53125 1.8125q-1.03125 0.640625 -2.28125 0.640625zm-2.96875 -4.015625l0 -1.453125l5.9375 0l0 1.453125l-5.9375 0zm8.678772 3.78125l0 -8.640625l1.703125 0l0 2.109375l-0.21875 -0.28125q0.171875 -0.421875 0.4375 -0.78125q0.265625 -0.359375 0.640625 -0.59375q0.328125 -0.21875 0.703125 -0.328125q0.390625 -0.125 0.796875 -0.15625q0.40625 -0.03125 0.796875 0.03125l0 1.796875q-0.390625 -0.109375 -0.890625 -0.0625q-0.5 0.03125 -0.890625 0.28125q-0.40625 0.203125 -0.65625 0.546875q-0.25 0.328125 -0.375 0.765625q-0.109375 0.421875 -0.109375 0.921875l0 4.390625l-1.9375 0zm11.446411 0q-0.859375 0.15625 -1.6875 0.140625q-0.8125 -0.015625 -1.46875 -0.296875q-0.640625 -0.296875 -0.96875 -0.90625q-0.296875 -0.5625 -0.3125 -1.140625q-0.015625 -0.59375 -0.015625 -1.328125l0 -7.515625l1.90625 0l0 7.40625q0 0.515625 0.015625 0.90625q0.015625 0.390625 0.171875 0.640625q0.28125 0.484375 0.90625 0.546875q0.640625 0.046875 1.453125 -0.0625l0 1.609375zm-6.03125 -7.125l0 -1.515625l6.03125 0l0 1.515625l-6.03125 0zm8.8497925 10.171875l-1.421875 -1.0625q0.953125 -1.140625 1.515625 -2.328125q0.578125 -1.1875 0.828125 -2.40625q0.25 -1.234375 0.265625 -2.53125q-0.015625 -1.28125 -0.265625 -2.515625q-0.234375 -1.234375 -0.8125 -2.40625q-0.578125 -1.1875 -1.53125 -2.34375l1.421875 -1.0625q0.9375 1.09375 1.59375 2.46875q0.671875 1.359375 1.015625 2.875q0.34375 1.5 0.328125 2.984375q0.015625 1.484375 -0.328125 3.0q-0.34375 1.5 -1.015625 2.859375q-0.65625 1.375 -1.59375 2.46875z" fill-rule="nonzero"/><path fill="#000000" fill-opacity="0.0" d="m739.62537 94.69292l171.94159 0c4.272461E-4 0 8.544922E-4 1.7547607E-4 0.001159668 5.0354004E-4c3.6621094E-4 3.2043457E-4 5.493164E-4 7.5531006E-4 5.493164E-4 0.0012130737l-0.0017089844 316.2233c0 18.992615 -15.396545 34.38916 -34.38916 34.38916l-171.94159 0l0 0c-9.1552734E-4 0 -0.0017089844 -7.9345703E-4 -0.0017089844 -0.001739502l0.0017089844 -316.22333l0 0c0 -18.992592 15.396545 -34.38913 34.38916 -34.38913z" fill-rule="evenodd"/><path stroke="#595959" stroke-width="8.0" stroke-linejoin="round" stroke-linecap="butt" d="m739.62537 94.69292l171.94159 0c4.272461E-4 0 8.544922E-4 1.7547607E-4 0.001159668 5.0354004E-4c3.6621094E-4 3.2043457E-4 5.493164E-4 7.5531006E-4 5.493164E-4 0.0012130737l-0.0017089844 316.2233c0 18.992615 -15.396545 34.38916 -34.38916 34.38916l-171.94159 0l0 0c-9.1552734E-4 0 -0.0017089844 -7.9345703E-4 -0.0017089844 -0.001739502l0.0017089844 -316.22333l0 0c0 -18.992592 15.396545 -34.38913 34.38916 -34.38913z" fill-rule="evenodd"/><path fill="#000000" fill-opacity="0.0" d="m705.2362 104.44095l206.33075 0l0 77.5748l-206.33075 0z" fill-rule="evenodd"/><path fill="#595959" d="m723.7799 144.16095l0 -23.046875l3.859375 0l0 23.046875l-3.859375 0zm20.601013 0l0 -8.3125q0 -0.828125 -0.109375 -1.8125q-0.109375 -1.0 -0.515625 -1.90625q-0.40625 -0.921875 -1.21875 -1.515625q-0.8125 -0.59375 -2.1875 -0.59375q-0.734375 0 -1.453125 0.25q-0.71875 0.234375 -1.3125 0.8125q-0.578125 0.578125 -0.9375 1.59375q-0.34375 1.015625 -0.34375 2.609375l-2.28125 -0.984375q0 -2.203125 0.84375 -3.984375q0.859375 -1.796875 2.515625 -2.859375q1.671875 -1.078125 4.109375 -1.078125q1.921875 0 3.171875 0.640625q1.25 0.640625 1.984375 1.640625q0.734375 0.984375 1.078125 2.109375q0.359375 1.125 0.453125 2.125q0.109375 1.0 0.109375 1.625l0 9.640625l-3.90625 0zm-11.984375 0l0 -17.28125l3.4375 0l0 5.359375l0.46875 0l0 11.921875l-3.90625 0zm30.187927 0q-1.71875 0.3125 -3.359375 0.265625q-1.640625 -0.03125 -2.9375 -0.59375q-1.296875 -0.5625 -1.96875 -1.796875q-0.59375 -1.125 -0.625 -2.28125q-0.03125 -1.171875 -0.03125 -2.65625l0 -15.015625l3.84375 0l0 14.796875q0 1.046875 0.015625 1.828125q0.03125 0.78125 0.328125 1.28125q0.578125 0.953125 1.84375 1.078125q1.265625 0.109375 2.890625 -0.140625l0 3.234375zm-12.0625 -14.25l0 -3.03125l12.0625 0l0 3.03125l-12.0625 0zm22.757263 14.734375q-2.625 0 -4.609375 -1.140625q-1.984375 -1.140625 -3.09375 -3.15625q-1.109375 -2.015625 -1.109375 -4.640625q0 -2.828125 1.078125 -4.90625q1.09375 -2.09375 3.03125 -3.25q1.9375 -1.15625 4.484375 -1.15625q2.6875 0 4.5625 1.265625q1.875 1.25 2.78125 3.546875q0.921875 2.28125 0.703125 5.390625l-3.828125 0l0 -1.40625q-0.015625 -2.828125 -1.0 -4.125q-0.96875 -1.296875 -3.0625 -1.296875q-2.375 0 -3.53125 1.46875q-1.140625 1.46875 -1.140625 4.28125q0 2.625 1.140625 4.0625q1.15625 1.4375 3.375 1.4375q1.421875 0 2.453125 -0.625q1.03125 -0.640625 1.59375 -1.828125l3.8125 1.140625q-1.0 2.34375 -3.078125 3.640625q-2.0625 1.296875 -4.5625 1.296875zm-5.953125 -8.046875l0 -2.921875l11.890625 0l0 2.921875l-11.890625 0zm24.623413 15.71875q-1.4375 0 -2.765625 -0.453125q-1.3125 -0.4375 -2.375 -1.28125q-1.046875 -0.84375 -1.71875 -2.015625l3.546875 -1.765625q0.5 0.9375 1.40625 1.390625q0.90625 0.46875 1.921875 0.46875q1.203125 0 2.140625 -0.4375q0.953125 -0.421875 1.46875 -1.25q0.515625 -0.8125 0.484375 -2.046875l0 -4.90625l0.484375 0l0 -13.140625l3.375 0l0 18.109375q0 0.65625 -0.0625 1.25q-0.046875 0.609375 -0.171875 1.1875q-0.390625 1.671875 -1.484375 2.75q-1.078125 1.09375 -2.6875 1.609375q-1.609375 0.53125 -3.5625 0.53125zm-0.328125 -7.671875q-2.390625 0 -4.171875 -1.203125q-1.765625 -1.203125 -2.75 -3.265625q-0.96875 -2.0625 -0.96875 -4.65625q0 -2.625 0.984375 -4.671875q0.984375 -2.0625 2.78125 -3.25q1.8125 -1.203125 4.265625 -1.203125q2.46875 0 4.140625 1.203125q1.671875 1.1875 2.53125 3.25q0.859375 2.0625 0.859375 4.671875q0 2.578125 -0.859375 4.65625q-0.859375 2.0625 -2.578125 3.265625q-1.703125 1.203125 -4.234375 1.203125zm0.59375 -3.453125q1.546875 0 2.5 -0.71875q0.953125 -0.71875 1.390625 -1.984375q0.4375 -1.28125 0.4375 -2.96875q0 -1.703125 -0.4375 -2.96875q-0.4375 -1.265625 -1.375 -1.96875q-0.921875 -0.71875 -2.390625 -0.71875q-1.546875 0 -2.5625 0.765625q-1.015625 0.75 -1.5 2.046875q-0.46875 1.28125 -0.46875 2.84375q0 1.578125 0.46875 2.875q0.46875 1.28125 1.4375 2.046875q0.984375 0.75 2.5 0.75zm12.180786 2.96875l0 -17.28125l3.40625 0l0 4.203125l-0.40625 -0.53125q0.3125 -0.875 0.84375 -1.578125q0.546875 -0.71875 1.296875 -1.1875q0.640625 -0.421875 1.40625 -0.671875q0.78125 -0.25 1.59375 -0.296875q0.828125 -0.0625 1.59375 0.0625l0 3.59375q-0.765625 -0.21875 -1.765625 -0.140625q-1.0 0.078125 -1.796875 0.5625q-0.8125 0.4375 -1.3125 1.109375q-0.5 0.671875 -0.75 1.53125q-0.234375 0.84375 -0.234375 1.84375l0 8.78125l-3.875 0zm17.211792 0.484375q-1.875 0 -3.171875 -0.703125q-1.296875 -0.71875 -1.96875 -1.90625q-0.65625 -1.1875 -0.65625 -2.609375q0 -1.25 0.40625 -2.25q0.421875 -1.0 1.28125 -1.71875q0.875 -0.734375 2.25 -1.203125q1.03125 -0.328125 2.4375 -0.59375q1.40625 -0.28125 3.046875 -0.515625q1.640625 -0.234375 3.421875 -0.5l-1.375 0.78125q0.015625 -1.796875 -0.796875 -2.640625q-0.8125 -0.84375 -2.75 -0.84375q-1.171875 0 -2.265625 0.546875q-1.078125 0.53125 -1.515625 1.859375l-3.515625 -1.09375q0.640625 -2.203125 2.4375 -3.53125q1.796875 -1.328125 4.859375 -1.328125q2.296875 0 4.046875 0.765625q1.765625 0.75 2.609375 2.453125q0.453125 0.921875 0.546875 1.875q0.109375 0.9375 0.109375 2.0625l0 10.609375l-3.375 0l0 -3.75l0.5625 0.609375q-1.171875 1.875 -2.734375 2.75q-1.5625 0.875 -3.890625 0.875zm0.765625 -3.078125q1.3125 0 2.234375 -0.453125q0.9375 -0.46875 1.484375 -1.140625q0.546875 -0.671875 0.734375 -1.265625q0.3125 -0.734375 0.34375 -1.6875q0.046875 -0.953125 0.046875 -1.546875l1.1875 0.34375q-1.75 0.28125 -3.0 0.5q-1.25 0.203125 -2.140625 0.390625q-0.890625 0.171875 -1.578125 0.390625q-0.671875 0.25 -1.140625 0.578125q-0.46875 0.3125 -0.71875 0.734375q-0.234375 0.40625 -0.234375 0.96875q0 0.640625 0.3125 1.125q0.328125 0.484375 0.9375 0.78125q0.609375 0.28125 1.53125 0.28125zm22.963257 2.59375q-1.71875 0.3125 -3.359375 0.265625q-1.640625 -0.03125 -2.9375 -0.59375q-1.296875 -0.5625 -1.96875 -1.796875q-0.59375 -1.125 -0.625 -2.28125q-0.03125 -1.171875 -0.03125 -2.65625l0 -15.015625l3.84375 0l0 14.796875q0 1.046875 0.015625 1.828125q0.03125 0.78125 0.328125 1.28125q0.578125 0.953125 1.84375 1.078125q1.265625 0.109375 2.890625 -0.140625l0 3.234375zm-12.0625 -14.25l0 -3.03125l12.0625 0l0 3.03125l-12.0625 0zm16.106018 -5.65625l0 -3.53125l3.859375 0l0 3.53125l-3.859375 0zm0 19.90625l0 -17.28125l3.859375 0l0 17.28125l-3.859375 0zm16.288513 0.484375q-2.59375 0 -4.53125 -1.171875q-1.9375 -1.171875 -3.0 -3.21875q-1.0625 -2.0625 -1.0625 -4.734375q0 -2.71875 1.078125 -4.765625q1.09375 -2.046875 3.03125 -3.203125q1.9375 -1.15625 4.484375 -1.15625q2.609375 0 4.546875 1.171875q1.9375 1.171875 3.0 3.234375q1.078125 2.046875 1.078125 4.71875q0 2.6875 -1.078125 4.75q-1.078125 2.046875 -3.015625 3.21875q-1.9375 1.15625 -4.53125 1.15625zm0 -3.625q2.296875 0 3.421875 -1.53125q1.125 -1.53125 1.125 -3.96875q0 -2.515625 -1.140625 -4.0q-1.140625 -1.5 -3.40625 -1.5q-1.5625 0 -2.5625 0.703125q-1.0 0.6875 -1.484375 1.9375q-0.46875 1.234375 -0.46875 2.859375q0 2.515625 1.140625 4.015625q1.140625 1.484375 3.375 1.484375zm24.088562 3.140625l0 -8.3125q0 -0.828125 -0.109375 -1.8125q-0.109375 -1.0 -0.515625 -1.90625q-0.40625 -0.921875 -1.21875 -1.515625q-0.8125 -0.59375 -2.1875 -0.59375q-0.734375 0 -1.453125 0.25q-0.71875 0.234375 -1.3125 0.8125q-0.578125 0.578125 -0.9375 1.59375q-0.34375 1.015625 -0.34375 2.609375l-2.28125 -0.984375q0 -2.203125 0.84375 -3.984375q0.859375 -1.796875 2.515625 -2.859375q1.671875 -1.078125 4.109375 -1.078125q1.921875 0 3.171875 0.640625q1.25 0.640625 1.984375 1.640625q0.734375 0.984375 1.078125 2.109375q0.359375 1.125 0.453125 2.125q0.109375 1.0 0.109375 1.625l0 9.640625l-3.90625 0zm-11.984375 0l0 -17.28125l3.4375 0l0 5.359375l0.46875 0l0 11.921875l-3.90625 0z" fill-rule="nonzero"/><path fill="#595959" d="m754.6942 170.24782q-0.9375 -1.09375 -1.609375 -2.46875q-0.65625 -1.359375 -1.0 -2.859375q-0.34375 -1.515625 -0.328125 -3.0q-0.015625 -1.484375 0.328125 -2.984375q0.34375 -1.515625 1.0 -2.875q0.671875 -1.375 1.609375 -2.46875l1.421875 1.0625q-0.96875 1.15625 -1.546875 2.34375q-0.5625 1.171875 -0.8125 2.40625q-0.25 1.234375 -0.25 2.515625q0 1.296875 0.25 2.53125q0.265625 1.21875 0.828125 2.40625q0.5625 1.1875 1.53125 2.328125l-1.421875 1.0625zm2.3884888 -3.046875l0 -0.265625l4.578125 -6.6875l-4.109375 0l0 -1.6875l7.109375 0l0 0.265625l-4.546875 6.6875l4.359375 0l0 1.6875l-7.390625 0zm9.660889 0l0 -1.96875l1.984375 0l0 1.96875l-1.984375 0zm4.543457 0l0 -11.515625l4.5625 0q1.171875 0 1.921875 0.46875q0.75 0.46875 1.109375 1.203125q0.359375 0.71875 0.359375 1.484375q0 0.953125 -0.453125 1.625q-0.453125 0.65625 -1.21875 0.890625l0 -0.390625q1.078125 0.25 1.640625 1.03125q0.5625 0.78125 0.5625 1.78125q0 1.015625 -0.390625 1.796875q-0.390625 0.765625 -1.171875 1.203125q-0.765625 0.421875 -1.890625 0.421875l-5.03125 0zm1.953125 -1.8125l2.828125 0q0.515625 0 0.90625 -0.203125q0.40625 -0.203125 0.625 -0.578125q0.234375 -0.375 0.234375 -0.890625q0 -0.453125 -0.203125 -0.828125q-0.203125 -0.375 -0.59375 -0.59375q-0.375 -0.21875 -0.90625 -0.21875l-2.890625 0l0 3.3125zm0 -5.109375l2.578125 0q0.421875 0 0.75 -0.15625q0.328125 -0.15625 0.515625 -0.46875q0.203125 -0.3125 0.203125 -0.765625q0 -0.609375 -0.390625 -1.0q-0.375 -0.40625 -1.078125 -0.40625l-2.578125 0l0 2.796875zm7.975281 6.921875l0 -1.96875l1.984375 0l0 1.96875l-1.984375 0zm10.165283 0l-3.359375 -11.515625l2.015625 0l2.296875 8.3125l2.296875 -8.296875l2.015625 -0.015625l2.296875 8.3125l2.296875 -8.3125l2.015625 0l-3.359375 11.515625l-1.90625 0l-2.359375 -8.1875l-2.34375 8.1875l-1.90625 0zm16.147766 0.234375q-1.3125 0 -2.3125 -0.5625q-0.984375 -0.5625 -1.546875 -1.5625q-0.546875 -1.015625 -0.546875 -2.328125q0 -1.421875 0.546875 -2.46875q0.546875 -1.046875 1.5 -1.609375q0.96875 -0.578125 2.25 -0.578125q1.34375 0 2.28125 0.625q0.9375 0.625 1.390625 1.78125q0.46875 1.140625 0.34375 2.6875l-1.90625 0l0 -0.703125q0 -1.40625 -0.5 -2.046875q-0.484375 -0.65625 -1.53125 -0.65625q-1.1875 0 -1.765625 0.734375q-0.5625 0.71875 -0.5625 2.140625q0 1.296875 0.5625 2.03125q0.578125 0.71875 1.6875 0.71875q0.703125 0 1.21875 -0.3125q0.53125 -0.328125 0.796875 -0.921875l1.90625 0.578125q-0.484375 1.15625 -1.53125 1.8125q-1.03125 0.640625 -2.28125 0.640625zm-2.96875 -4.015625l0 -1.453125l5.9375 0l0 1.453125l-5.9375 0zm12.819397 4.015625q-1.25 0 -2.109375 -0.59375q-0.859375 -0.59375 -1.296875 -1.625q-0.421875 -1.046875 -0.421875 -2.328125q0 -1.3125 0.421875 -2.34375q0.4375 -1.03125 1.265625 -1.625q0.84375 -0.59375 2.078125 -0.59375q1.21875 0 2.109375 0.59375q0.90625 0.59375 1.40625 1.625q0.5 1.03125 0.5 2.34375q0 1.28125 -0.5 2.328125q-0.484375 1.03125 -1.375 1.625q-0.875 0.59375 -2.078125 0.59375zm-4.15625 -0.234375l0 -11.515625l1.9375 0l0 5.453125l-0.234375 0l0 6.0625l-1.703125 0zm3.859375 -1.484375q0.765625 0 1.25 -0.375q0.484375 -0.375 0.71875 -1.015625q0.234375 -0.65625 0.234375 -1.4375q0 -0.796875 -0.234375 -1.4375q-0.234375 -0.640625 -0.75 -1.015625q-0.5 -0.390625 -1.28125 -0.390625q-0.734375 0 -1.203125 0.359375q-0.453125 0.359375 -0.671875 1.0q-0.21875 0.625 -0.21875 1.484375q0 0.828125 0.21875 1.46875q0.21875 0.640625 0.6875 1.0q0.484375 0.359375 1.25 0.359375zm9.140259 1.71875q-1.59375 0 -2.59375 -0.71875q-1.0 -0.71875 -1.21875 -2.015625l1.96875 -0.3125q0.15625 0.640625 0.671875 1.015625q0.515625 0.359375 1.3125 0.359375q0.6875 0 1.0625 -0.265625q0.390625 -0.28125 0.390625 -0.765625q0 -0.296875 -0.140625 -0.46875q-0.140625 -0.1875 -0.609375 -0.34375q-0.46875 -0.171875 -1.453125 -0.4375q-1.078125 -0.28125 -1.71875 -0.609375q-0.640625 -0.328125 -0.921875 -0.78125q-0.28125 -0.46875 -0.28125 -1.109375q0 -0.8125 0.421875 -1.40625q0.421875 -0.609375 1.171875 -0.921875q0.765625 -0.328125 1.796875 -0.328125q1.015625 0 1.796875 0.3125q0.78125 0.3125 1.25 0.890625q0.484375 0.5625 0.59375 1.34375l-1.96875 0.359375q-0.0625 -0.5625 -0.5 -0.875q-0.421875 -0.328125 -1.125 -0.359375q-0.6875 -0.046875 -1.109375 0.203125q-0.40625 0.234375 -0.40625 0.6875q0 0.234375 0.15625 0.421875q0.171875 0.171875 0.671875 0.34375q0.515625 0.171875 1.53125 0.4375q1.03125 0.265625 1.640625 0.609375q0.625 0.328125 0.90625 0.8125q0.28125 0.46875 0.28125 1.140625q0 1.296875 -0.953125 2.046875q-0.953125 0.734375 -2.625 0.734375zm9.257629 0q-1.3125 0 -2.3125 -0.5625q-0.984375 -0.5625 -1.546875 -1.5625q-0.546875 -1.015625 -0.546875 -2.328125q0 -1.421875 0.546875 -2.46875q0.546875 -1.046875 1.5 -1.609375q0.96875 -0.578125 2.25 -0.578125q1.34375 0 2.28125 0.625q0.9375 0.625 1.390625 1.78125q0.46875 1.140625 0.34375 2.6875l-1.90625 0l0 -0.703125q0 -1.40625 -0.5 -2.046875q-0.484375 -0.65625 -1.53125 -0.65625q-1.1875 0 -1.765625 0.734375q-0.5625 0.71875 -0.5625 2.140625q0 1.296875 0.5625 2.03125q0.578125 0.71875 1.6875 0.71875q0.703125 0 1.21875 -0.3125q0.53125 -0.328125 0.796875 -0.921875l1.90625 0.578125q-0.484375 1.15625 -1.53125 1.8125q-1.03125 0.640625 -2.28125 0.640625zm-2.96875 -4.015625l0 -1.453125l5.9375 0l0 1.453125l-5.9375 0zm8.835022 -6.171875l0 -1.765625l1.921875 0l0 1.765625l-1.921875 0zm0 9.953125l0 -8.640625l1.921875 0l0 8.640625l-1.921875 0zm9.394165 0q-0.859375 0.15625 -1.6875 0.140625q-0.8125 -0.015625 -1.46875 -0.296875q-0.640625 -0.296875 -0.96875 -0.90625q-0.296875 -0.5625 -0.3125 -1.140625q-0.015625 -0.59375 -0.015625 -1.328125l0 -7.515625l1.90625 0l0 7.40625q0 0.515625 0.015625 0.90625q0.015625 0.390625 0.171875 0.640625q0.28125 0.484375 0.90625 0.546875q0.640625 0.046875 1.453125 -0.0625l0 1.609375zm-6.03125 -7.125l0 -1.515625l6.03125 0l0 1.515625l-6.03125 0zm11.37854 7.359375q-1.3125 0 -2.3125 -0.5625q-0.984375 -0.5625 -1.546875 -1.5625q-0.546875 -1.015625 -0.546875 -2.328125q0 -1.421875 0.546875 -2.46875q0.546875 -1.046875 1.5 -1.609375q0.96875 -0.578125 2.25 -0.578125q1.34375 0 2.28125 0.625q0.9375 0.625 1.390625 1.78125q0.46875 1.140625 0.34375 2.6875l-1.90625 0l0 -0.703125q0 -1.40625 -0.5 -2.046875q-0.484375 -0.65625 -1.53125 -0.65625q-1.1875 0 -1.765625 0.734375q-0.5625 0.71875 -0.5625 2.140625q0 1.296875 0.5625 2.03125q0.578125 0.71875 1.6875 0.71875q0.703125 0 1.21875 -0.3125q0.53125 -0.328125 0.796875 -0.921875l1.90625 0.578125q-0.484375 1.15625 -1.53125 1.8125q-1.03125 0.640625 -2.28125 0.640625zm-2.96875 -4.015625l0 -1.453125l5.9375 0l0 1.453125l-5.9375 0zm8.991882 6.828125l-1.421875 -1.0625q0.953125 -1.140625 1.515625 -2.328125q0.578125 -1.1875 0.828125 -2.40625q0.25 -1.234375 0.265625 -2.53125q-0.015625 -1.28125 -0.265625 -2.515625q-0.234375 -1.234375 -0.8125 -2.40625q-0.578125 -1.1875 -1.53125 -2.34375l1.421875 -1.0625q0.9375 1.09375 1.59375 2.46875q0.671875 1.359375 1.015625 2.875q0.34375 1.5 0.328125 2.984375q0.015625 1.484375 -0.328125 3.0q-0.34375 1.5 -1.015625 2.859375q-0.65625 1.375 -1.59375 2.46875z" fill-rule="nonzero"/><path fill="#000000" fill-opacity="0.0" d="m0 104.178474l342.2362 0l0 58.173225l-342.2362 0z" fill-rule="evenodd"/><path fill="#595959" d="m119.3525 143.89848l0 -23.046883l3.859375 0l0 23.046883l-3.859375 0zm20.60102 0l0 -8.3125q0 -0.828125 -0.109375 -1.8125q-0.109375 -1.0 -0.515625 -1.90625q-0.40625 -0.921875 -1.21875 -1.515625q-0.8125 -0.59375 -2.1875 -0.59375q-0.734375 0 -1.453125 0.25q-0.71875 0.234375 -1.3125 0.8125q-0.578125 0.578125 -0.9375 1.59375q-0.34375 1.015625 -0.34375 2.609375l-2.28125 -0.984375q0 -2.203125 0.84375 -3.984375q0.859375 -1.796875 2.515625 -2.8593826q1.671875 -1.078125 4.109375 -1.078125q1.921875 0 3.171875 0.640625q1.25 0.640625 1.984375 1.6406326q0.734375 0.984375 1.078125 2.109375q0.359375 1.125 0.453125 2.125q0.109375 1.0 0.109375 1.625l0 9.640625l-3.90625 0zm-11.984383 0l0 -17.281258l3.4375076 0l0 5.3593826l0.46875 0l0 11.921875l-3.9062576 0zm32.000404 0l0 -8.3125q0 -0.828125 -0.109375 -1.8125q-0.109375 -1.0 -0.515625 -1.90625q-0.40625 -0.921875 -1.21875 -1.515625q-0.8125 -0.59375 -2.1875 -0.59375q-0.734375 0 -1.453125 0.25q-0.71875 0.234375 -1.3125 0.8125q-0.578125 0.578125 -0.9375 1.59375q-0.34375 1.015625 -0.34375 2.609375l-2.28125 -0.984375q0 -2.203125 0.84375 -3.984375q0.859375 -1.796875 2.515625 -2.8593826q1.671875 -1.078125 4.109375 -1.078125q1.921875 0 3.171875 0.640625q1.25 0.640625 1.984375 1.6406326q0.734375 0.984375 1.078125 2.109375q0.359375 1.125 0.453125 2.125q0.109375 1.0 0.109375 1.625l0 9.640625l-3.90625 0zm-11.984375 0l0 -23.046883l3.4375 0l0 12.140633l0.46875 0l0 10.90625l-3.90625 0zm24.891052 0.484375q-1.875 0 -3.171875 -0.703125q-1.296875 -0.71875 -1.96875 -1.90625q-0.65625 -1.1875 -0.65625 -2.609375q0 -1.25 0.40625 -2.25q0.421875 -1.0 1.28125 -1.71875q0.875 -0.734375 2.25 -1.203125q1.03125 -0.328125 2.4375 -0.59375q1.40625 -0.28125 3.046875 -0.515625q1.640625 -0.234375 3.421875 -0.5l-1.375 0.78125q0.015625 -1.796875 -0.796875 -2.640625q-0.8125 -0.84375 -2.75 -0.84375q-1.171875 0 -2.265625 0.546875q-1.078125 0.53125 -1.515625 1.859375l-3.515625 -1.09375q0.640625 -2.203125 2.4375 -3.5312576q1.796875 -1.328125 4.859375 -1.328125q2.296875 0 4.046875 0.765625q1.765625 0.75 2.609375 2.4531326q0.453125 0.921875 0.546875 1.875q0.109375 0.9375 0.109375 2.0625l0 10.609375l-3.375 0l0 -3.75l0.5625 0.609375q-1.171875 1.875 -2.734375 2.75q-1.5625 0.875 -3.890625 0.875zm0.765625 -3.078125q1.3125 0 2.234375 -0.453125q0.9375 -0.46875 1.484375 -1.140625q0.546875 -0.671875 0.734375 -1.265625q0.3125 -0.734375 0.34375 -1.6875q0.046875 -0.953125 0.046875 -1.546875l1.1875 0.34375q-1.75 0.28125 -3.0 0.5q-1.25 0.203125 -2.140625 0.390625q-0.890625 0.171875 -1.578125 0.390625q-0.671875 0.25 -1.140625 0.578125q-0.46875 0.3125 -0.71875 0.734375q-0.234375 0.40625 -0.234375 0.96875q0 0.640625 0.3125 1.125q0.328125 0.484375 0.9375 0.78125q0.609375 0.28125 1.53125 0.28125zm13.150787 2.59375l0 -23.515633l3.859375 0l0 23.515633l-3.859375 0zm18.788513 0q-1.71875 0.3125 -3.359375 0.265625q-1.640625 -0.03125 -2.9375 -0.59375q-1.296875 -0.5625 -1.96875 -1.796875q-0.59375 -1.125 -0.625 -2.28125q-0.03125 -1.171875 -0.03125 -2.65625l0 -15.015633l3.84375 0l0 14.796883q0 1.046875 0.015625 1.828125q0.03125 0.78125 0.328125 1.28125q0.578125 0.953125 1.84375 1.078125q1.265625 0.109375 2.890625 -0.140625l0 3.234375zm-12.0625 -14.25l0 -3.0312576l12.0625 0l0 3.0312576l-12.0625 0zm22.757263 14.734375q-2.625 0 -4.609375 -1.140625q-1.984375 -1.140625 -3.09375 -3.15625q-1.109375 -2.015625 -1.109375 -4.640625q0 -2.828125 1.078125 -4.90625q1.09375 -2.09375 3.03125 -3.2500076q1.9375 -1.15625 4.484375 -1.15625q2.6875 0 4.5625 1.265625q1.875 1.2500076 2.78125 3.5468826q0.921875 2.28125 0.703125 5.390625l-3.828125 0l0 -1.40625q-0.015625 -2.828125 -1.0 -4.125q-0.96875 -1.296875 -3.0625 -1.296875q-2.375 0 -3.53125 1.46875q-1.140625 1.46875 -1.140625 4.28125q0 2.625 1.140625 4.0625q1.15625 1.4375 3.375 1.4375q1.421875 0 2.453125 -0.625q1.03125 -0.640625 1.59375 -1.828125l3.8125 1.140625q-1.0 2.34375 -3.078125 3.640625q-2.0625 1.296875 -4.5625 1.296875zm-5.953125 -8.046875l0 -2.921875l11.890625 0l0 2.921875l-11.890625 0z" fill-rule="nonzero"/><path fill="#fe6c66" d="m178.69423 214.9029l0 0c0 -7.001404 5.6757507 -12.67717 12.677155 -12.67717l0 0c3.3621979 0 6.586685 1.3356171 8.964111 3.7130585c2.3774414 2.3774261 3.7130585 5.6019135 3.7130585 8.964111l0 0c0 7.001404 -5.6757507 12.677155 -12.67717 12.677155l0 0c-7.001404 0 -12.677155 -5.6757507 -12.677155 -12.677155z" fill-rule="evenodd"/><path stroke="#fe6c66" stroke-width="1.0" stroke-linejoin="round" stroke-linecap="butt" d="m178.69423 214.9029l0 0c0 -7.001404 5.6757507 -12.67717 12.677155 -12.67717l0 0c3.3621979 0 6.586685 1.3356171 8.964111 3.7130585c2.3774414 2.3774261 3.7130585 5.6019135 3.7130585 8.964111l0 0c0 7.001404 -5.6757507 12.677155 -12.67717 12.677155l0 0c-7.001404 0 -12.677155 -5.6757507 -12.677155 -12.677155z" fill-rule="evenodd"/><path fill="#fe6c66" d="m82.244095 303.41077l0 0c0 -7.001404 5.6757584 -12.677185 12.677162 -12.677185l0 0c3.3621979 0 6.586685 1.3356323 8.964111 3.7130737c2.3774338 2.377411 3.7130585 5.601898 3.7130585 8.964111l0 0c0 7.001404 -5.6757584 12.677155 -12.67717 12.677155l0 0c-7.001404 0 -12.677162 -5.6757507 -12.677162 -12.677155z" fill-rule="evenodd"/><path stroke="#fe6c66" stroke-width="1.0" stroke-linejoin="round" stroke-linecap="butt" d="m82.244095 303.41077l0 0c0 -7.001404 5.6757584 -12.677185 12.677162 -12.677185l0 0c3.3621979 0 6.586685 1.3356323 8.964111 3.7130737c2.3774338 2.377411 3.7130585 5.601898 3.7130585 8.964111l0 0c0 7.001404 -5.6757584 12.677155 -12.67717 12.677155l0 0c-7.001404 0 -12.677162 -5.6757507 -12.677162 -12.677155z" fill-rule="evenodd"/><path fill="#fe6c66" d="m103.23491 189.37007l0 0c0 -7.001404 5.6757584 -12.677155 12.677162 -12.677155l0 0c3.3621979 0 6.586685 1.3356171 8.964111 3.7130585c2.3774338 2.3774261 3.7130508 5.6019135 3.7130508 8.964096l0 0c0 7.001419 -5.6757584 12.67717 -12.677162 12.67717l0 0c-7.001404 0 -12.677162 -5.6757507 -12.677162 -12.67717z" fill-rule="evenodd"/><path stroke="#fe6c66" stroke-width="1.0" stroke-linejoin="round" stroke-linecap="butt" d="m103.23491 189.37007l0 0c0 -7.001404 5.6757584 -12.677155 12.677162 -12.677155l0 0c3.3621979 0 6.586685 1.3356171 8.964111 3.7130585c2.3774338 2.3774261 3.7130508 5.6019135 3.7130508 8.964096l0 0c0 7.001419 -5.6757584 12.67717 -12.677162 12.67717l0 0c-7.001404 0 -12.677162 -5.6757507 -12.677162 -12.67717z" fill-rule="evenodd"/><path fill="#fe6c66" d="m164.46588 337.40552l0 0c0 -7.001404 5.6757507 -12.677185 12.67717 -12.677185l0 0c3.3621826 0 6.58667 1.3356323 8.964096 3.7130737c2.3774414 2.377411 3.7130585 5.601898 3.7130585 8.964111l0 0c0 7.001404 -5.6757507 12.677155 -12.677155 12.677155l0 0c-7.001419 0 -12.67717 -5.6757507 -12.67717 -12.677155z" fill-rule="evenodd"/><path stroke="#fe6c66" stroke-width="1.0" stroke-linejoin="round" stroke-linecap="butt" d="m164.46588 337.40552l0 0c0 -7.001404 5.6757507 -12.677185 12.67717 -12.677185l0 0c3.3621826 0 6.58667 1.3356323 8.964096 3.7130737c2.3774414 2.377411 3.7130585 5.601898 3.7130585 8.964111l0 0c0 7.001404 -5.6757507 12.677155 -12.677155 12.677155l0 0c-7.001419 0 -12.67717 -5.6757507 -12.67717 -12.677155z" fill-rule="evenodd"/><path fill="#fe6c66" d="m133.39764 282.6916l0 0c0 -7.001404 5.6757507 -12.677155 12.677155 -12.677155l0 0c3.3621979 0 6.586685 1.3356323 8.964111 3.7130432c2.3774261 2.3774414 3.7130585 5.6019287 3.7130585 8.964111l0 0c0 7.001404 -5.675766 12.677185 -12.67717 12.677185l0 0c-7.001404 0 -12.677155 -5.6757812 -12.677155 -12.677185z" fill-rule="evenodd"/><path stroke="#fe6c66" stroke-width="1.0" stroke-linejoin="round" stroke-linecap="butt" d="m133.39764 282.6916l0 0c0 -7.001404 5.6757507 -12.677155 12.677155 -12.677155l0 0c3.3621979 0 6.586685 1.3356323 8.964111 3.7130432c2.3774261 2.3774414 3.7130585 5.6019287 3.7130585 8.964111l0 0c0 7.001404 -5.675766 12.677185 -12.67717 12.677185l0 0c-7.001404 0 -12.677155 -5.6757812 -12.677155 -12.677185z" fill-rule="evenodd"/><path fill="#fe6c66" d="m22.26903 362.76117l0 0c0 -7.0014343 5.6757603 -12.677185 12.677164 -12.677185l0 0c3.362194 0 6.5866814 1.3356323 8.964111 3.7130737c2.37743 2.377411 3.7130547 5.601898 3.7130547 8.964111l0 0c0 7.001404 -5.675762 12.677155 -12.677166 12.677155l0 0c-7.001404 0 -12.677164 -5.6757507 -12.677164 -12.677155z" fill-rule="evenodd"/><path stroke="#fe6c66" stroke-width="1.0" stroke-linejoin="round" stroke-linecap="butt" d="m22.26903 362.76117l0 0c0 -7.0014343 5.6757603 -12.677185 12.677164 -12.677185l0 0c3.362194 0 6.5866814 1.3356323 8.964111 3.7130737c2.37743 2.377411 3.7130547 5.601898 3.7130547 8.964111l0 0c0 7.001404 -5.675762 12.677155 -12.677166 12.677155l0 0c-7.001404 0 -12.677164 -5.6757507 -12.677164 -12.677155z" fill-rule="evenodd"/><path fill="#fe6c66" d="m84.87795 376.01837l0 0c0 -7.001404 5.6757584 -12.677155 12.677162 -12.677155l0 0c3.3621979 0 6.586685 1.3356018 8.964111 3.7130432c2.3774338 2.3774414 3.7130585 5.6019287 3.7130585 8.964111l0 0c0 7.001404 -5.6757584 12.677155 -12.67717 12.677155l0 0c-7.001404 0 -12.677162 -5.6757507 -12.677162 -12.677155z" fill-rule="evenodd"/><path stroke="#fe6c66" stroke-width="1.0" stroke-linejoin="round" stroke-linecap="butt" d="m84.87795 376.01837l0 0c0 -7.001404 5.6757584 -12.677155 12.677162 -12.677155l0 0c3.3621979 0 6.586685 1.3356018 8.964111 3.7130432c2.3774338 2.3774414 3.7130585 5.6019287 3.7130585 8.964111l0 0c0 7.001404 -5.6757584 12.677155 -12.67717 12.677155l0 0c-7.001404 0 -12.677162 -5.6757507 -12.677162 -12.677155z" fill-rule="evenodd"/><path fill="#fe6c66" d="m70.76509 404.04987l0 0c0 -7.001404 5.6757584 -12.677155 12.67717 -12.677155l0 0c3.3621902 0 6.5866776 1.3356323 8.964104 3.7130432c2.3774338 2.3774414 3.7130585 5.6019287 3.7130585 8.964111l0 0c0 7.001404 -5.6757584 12.677155 -12.677162 12.677155l0 0c-7.0014114 0 -12.67717 -5.6757507 -12.67717 -12.677155z" fill-rule="evenodd"/><path stroke="#fe6c66" stroke-width="1.0" stroke-linejoin="round" stroke-linecap="butt" d="m70.76509 404.04987l0 0c0 -7.001404 5.6757584 -12.677155 12.67717 -12.677155l0 0c3.3621902 0 6.5866776 1.3356323 8.964104 3.7130432c2.3774338 2.3774414 3.7130585 5.6019287 3.7130585 8.964111l0 0c0 7.001404 -5.6757584 12.677155 -12.677162 12.677155l0 0c-7.0014114 0 -12.67717 -5.6757507 -12.67717 -12.677155z" fill-rule="evenodd"/><path fill="#fe6c66" d="m178.76805 420.95618l0 0c6.862259 1.4089661 11.283005 8.114136 9.874023 14.976379l0 0c-0.6766205 3.2953491 -2.6345978 6.186981 -5.443222 8.038696c-2.808609 1.8517456 -6.237793 2.5119324 -9.533157 1.8352966l0 0c-6.8622437 -1.4089661 -11.2829895 -8.114105 -9.874023 -14.976379l0 0c1.4089813 -6.8622437 8.114136 -11.2829895 14.976379 -9.873993z" fill-rule="evenodd"/><path stroke="#fe6c66" stroke-width="1.0" stroke-linejoin="round" stroke-linecap="butt" d="m178.76805 420.95618l0 0c6.862259 1.4089661 11.283005 8.114136 9.874023 14.976379l0 0c-0.6766205 3.2953491 -2.6345978 6.186981 -5.443222 8.038696c-2.808609 1.8517456 -6.237793 2.5119324 -9.533157 1.8352966l0 0c-6.8622437 -1.4089661 -11.2829895 -8.114105 -9.874023 -14.976379l0 0c1.4089813 -6.8622437 8.114136 -11.2829895 14.976379 -9.873993z" fill-rule="evenodd"/><path fill="#fe6c66" d="m227.45645 411.6545l0 0c6.8622437 1.4089661 11.2829895 8.114136 9.874023 14.976379l0 0c-0.6766205 3.2953491 -2.6345978 6.186981 -5.443222 8.038727c-2.808609 1.8517151 -6.237793 2.5119019 -9.533157 1.8352966l0 0c-6.862259 -1.4089966 -11.283005 -8.114136 -9.874023 -14.976379l0 0c1.4089813 -6.8622437 8.114136 -11.28302 14.976379 -9.874023z" fill-rule="evenodd"/><path stroke="#fe6c66" stroke-width="1.0" stroke-linejoin="round" stroke-linecap="butt" d="m227.45645 411.6545l0 0c6.8622437 1.4089661 11.2829895 8.114136 9.874023 14.976379l0 0c-0.6766205 3.2953491 -2.6345978 6.186981 -5.443222 8.038727c-2.808609 1.8517151 -6.237793 2.5119019 -9.533157 1.8352966l0 0c-6.862259 -1.4089966 -11.283005 -8.114136 -9.874023 -14.976379l0 0c1.4089813 -6.8622437 8.114136 -11.28302 14.976379 -9.874023z" fill-rule="evenodd"/><path fill="#fe6c66" d="m155.14777 364.10254l0 0c6.8622437 1.4089966 11.2829895 8.114136 9.874023 14.976379l0 0c-0.6766205 3.2953796 -2.6345978 6.186981 -5.443222 8.038727c-2.808609 1.8517456 -6.237793 2.5119019 -9.533157 1.8352966l0 0c-6.8622437 -1.4089661 -11.283005 -8.114136 -9.874023 -14.976379l0 0c1.4089813 -6.8622437 8.114136 -11.2829895 14.976379 -9.874023z" fill-rule="evenodd"/><path stroke="#fe6c66" stroke-width="1.0" stroke-linejoin="round" stroke-linecap="butt" d="m155.14777 364.10254l0 0c6.8622437 1.4089966 11.2829895 8.114136 9.874023 14.976379l0 0c-0.6766205 3.2953796 -2.6345978 6.186981 -5.443222 8.038727c-2.808609 1.8517456 -6.237793 2.5119019 -9.533157 1.8352966l0 0c-6.8622437 -1.4089661 -11.283005 -8.114136 -9.874023 -14.976379l0 0c1.4089813 -6.8622437 8.114136 -11.2829895 14.976379 -9.874023z" fill-rule="evenodd"/><path fill="#2cc1ff" d="m135.58827 416.7349l0 0c0 7.0014343 -5.675766 12.677185 -12.67717 12.677185l0 0c-3.3621979 0 -6.586685 -1.3356323 -8.964111 -3.7130737c-2.3774261 -2.377411 -3.7130585 -5.601898 -3.7130585 -8.964111l0 0c0 -7.001404 5.675766 -12.677155 12.67717 -12.677155l0 0c7.001404 0 12.67717 5.6757507 12.67717 12.677155z" fill-rule="evenodd"/><path stroke="#2cc1ff" stroke-width="1.0" stroke-linejoin="round" stroke-linecap="butt" d="m135.58827 416.7349l0 0c0 7.0014343 -5.675766 12.677185 -12.67717 12.677185l0 0c-3.3621979 0 -6.586685 -1.3356323 -8.964111 -3.7130737c-2.3774261 -2.377411 -3.7130585 -5.601898 -3.7130585 -8.964111l0 0c0 -7.001404 5.675766 -12.677155 12.67717 -12.677155l0 0c7.001404 0 12.67717 5.6757507 12.67717 12.677155z" fill-rule="evenodd"/><path fill="#2cc1ff" d="m247.36649 359.62204l0 0c0 7.001404 -5.675766 12.677185 -12.67717 12.677185l0 0c-3.3621979 0 -6.586685 -1.3356323 -8.964111 -3.7130737c-2.3774261 -2.377411 -3.7130585 -5.601898 -3.7130585 -8.964111l0 0c0 -7.001404 5.675766 -12.677155 12.67717 -12.677155l0 0c7.001404 0 12.67717 5.6757507 12.67717 12.677155z" fill-rule="evenodd"/><path stroke="#2cc1ff" stroke-width="1.0" stroke-linejoin="round" stroke-linecap="butt" d="m247.36649 359.62204l0 0c0 7.001404 -5.675766 12.677185 -12.67717 12.677185l0 0c-3.3621979 0 -6.586685 -1.3356323 -8.964111 -3.7130737c-2.3774261 -2.377411 -3.7130585 -5.601898 -3.7130585 -8.964111l0 0c0 -7.001404 5.675766 -12.677155 12.67717 -12.677155l0 0c7.001404 0 12.67717 5.6757507 12.67717 12.677155z" fill-rule="evenodd"/><path fill="#2cc1ff" d="m279.5594 298.3937l0 0c0 7.001404 -5.6757507 12.677155 -12.677155 12.677155l0 0c-3.3621826 0 -6.58667 -1.3356323 -8.964111 -3.7130432c-2.3774261 -2.3774414 -3.7130585 -5.6019287 -3.7130585 -8.964111l0 0c0 -7.001404 5.675766 -12.677185 12.67717 -12.677185l0 0c7.001404 0 12.677155 5.6757812 12.677155 12.677185z" fill-rule="evenodd"/><path stroke="#2cc1ff" stroke-width="1.0" stroke-linejoin="round" stroke-linecap="butt" d="m279.5594 298.3937l0 0c0 7.001404 -5.6757507 12.677155 -12.677155 12.677155l0 0c-3.3621826 0 -6.58667 -1.3356323 -8.964111 -3.7130432c-2.3774261 -2.3774414 -3.7130585 -5.6019287 -3.7130585 -8.964111l0 0c0 -7.001404 5.675766 -12.677185 12.67717 -12.677185l0 0c7.001404 0 12.677155 5.6757812 12.677155 12.677185z" fill-rule="evenodd"/><path fill="#2cc1ff" d="m145.24837 239.5643l0 0c0 7.001404 -5.6757507 12.67717 -12.677155 12.67717l0 0c-3.3621979 0 -6.586685 -1.3356323 -8.964119 -3.7130585c-2.3774261 -2.3774261 -3.7130508 -5.6019135 -3.7130508 -8.964111l0 0c0 -7.001404 5.6757584 -12.677155 12.67717 -12.677155l0 0c7.001404 0 12.677155 5.6757507 12.677155 12.677155z" fill-rule="evenodd"/><path stroke="#2cc1ff" stroke-width="1.0" stroke-linejoin="round" stroke-linecap="butt" d="m145.24837 239.5643l0 0c0 7.001404 -5.6757507 12.67717 -12.677155 12.67717l0 0c-3.3621979 0 -6.586685 -1.3356323 -8.964119 -3.7130585c-2.3774261 -2.3774261 -3.7130508 -5.6019135 -3.7130508 -8.964111l0 0c0 -7.001404 5.6757584 -12.677155 12.67717 -12.677155l0 0c7.001404 0 12.677155 5.6757507 12.677155 12.677155z" fill-rule="evenodd"/><path fill="#2cc1ff" d="m70.54593 281.24725l0 0c-6.8622437 -1.4089966 -11.2829895 -8.114136 -9.874012 -14.976379l0 0c0.67661285 -3.2953796 2.6345978 -6.186981 5.4432106 -8.038727c2.8086166 -1.8517456 6.2378006 -2.511917 9.533165 -1.8352966l0 0c6.8622513 1.4089661 11.282997 8.114136 9.874016 14.976379l0 0c-1.4089737 6.8622437 -8.114128 11.2829895 -14.976379 9.874023z" fill-rule="evenodd"/><path stroke="#2cc1ff" stroke-width="1.0" stroke-linejoin="round" stroke-linecap="butt" d="m70.54593 281.24725l0 0c-6.8622437 -1.4089966 -11.2829895 -8.114136 -9.874012 -14.976379l0 0c0.67661285 -3.2953796 2.6345978 -6.186981 5.4432106 -8.038727c2.8086166 -1.8517456 6.2378006 -2.511917 9.533165 -1.8352966l0 0c6.8622513 1.4089661 11.282997 8.114136 9.874016 14.976379l0 0c-1.4089737 6.8622437 -8.114128 11.2829895 -14.976379 9.874023z" fill-rule="evenodd"/><path fill="#2cc1ff" d="m68.01267 342.45914l0 0c-6.8622437 -1.4089966 -11.2829895 -8.114136 -9.874012 -14.976379l0 0c0.67661285 -3.2953796 2.6345978 -6.186981 5.4432106 -8.038727c2.8086166 -1.8517151 6.2378006 -2.5119019 9.533165 -1.8352966l0 0c6.8622513 1.4089966 11.282997 8.114136 9.874016 14.976379l0 0c-1.4089737 6.8622437 -8.114128 11.2829895 -14.976379 9.874023z" fill-rule="evenodd"/><path stroke="#2cc1ff" stroke-width="1.0" stroke-linejoin="round" stroke-linecap="butt" d="m68.01267 342.45914l0 0c-6.8622437 -1.4089966 -11.2829895 -8.114136 -9.874012 -14.976379l0 0c0.67661285 -3.2953796 2.6345978 -6.186981 5.4432106 -8.038727c2.8086166 -1.8517151 6.2378006 -2.5119019 9.533165 -1.8352966l0 0c6.8622513 1.4089966 11.282997 8.114136 9.874016 14.976379l0 0c-1.4089737 6.8622437 -8.114128 11.2829895 -14.976379 9.874023z" fill-rule="evenodd"/><path fill="#2cc1ff" d="m568.62616 182.78084l0 0c7.001404 0 12.677185 5.675766 12.677185 12.67717l0 0c0 3.3621979 -1.3356323 6.58667 -3.7130737 8.964111c-2.3774414 2.3774261 -5.6019287 3.7130585 -8.964111 3.7130585l0 0c-7.001404 0 -12.677185 -5.675766 -12.677185 -12.67717l0 0c0 -7.001404 5.6757812 -12.67717 12.677185 -12.67717z" fill-rule="evenodd"/><path stroke="#2cc1ff" stroke-width="1.0" stroke-linejoin="round" stroke-linecap="butt" d="m568.62616 182.78084l0 0c7.001404 0 12.677185 5.675766 12.677185 12.67717l0 0c0 3.3621979 -1.3356323 6.58667 -3.7130737 8.964111c-2.3774414 2.3774261 -5.6019287 3.7130585 -8.964111 3.7130585l0 0c-7.001404 0 -12.677185 -5.675766 -12.677185 -12.67717l0 0c0 -7.001404 5.6757812 -12.67717 12.677185 -12.67717z" fill-rule="evenodd"/><path fill="#2cc1ff" d="m497.04926 182.78084l0 0c7.001404 0 12.677155 5.675766 12.677155 12.67717l0 0c0 3.3621979 -1.3356323 6.58667 -3.7130432 8.964111c-2.3774414 2.3774261 -5.6019287 3.7130585 -8.964111 3.7130585l0 0c-7.001404 0 -12.677155 -5.675766 -12.677155 -12.67717l0 0c0 -7.001404 5.6757507 -12.67717 12.677155 -12.67717z" fill-rule="evenodd"/><path stroke="#2cc1ff" stroke-width="1.0" stroke-linejoin="round" stroke-linecap="butt" d="m497.04926 182.78084l0 0c7.001404 0 12.677155 5.675766 12.677155 12.67717l0 0c0 3.3621979 -1.3356323 6.58667 -3.7130432 8.964111c-2.3774414 2.3774261 -5.6019287 3.7130585 -8.964111 3.7130585l0 0c-7.001404 0 -12.677155 -5.675766 -12.677155 -12.67717l0 0c0 -7.001404 5.6757507 -12.67717 12.677155 -12.67717z" fill-rule="evenodd"/><path fill="#2cc1ff" d="m463.56 182.78084l0 0c7.0014343 0 12.677185 5.675766 12.677185 12.67717l0 0c0 3.3621979 -1.3356323 6.58667 -3.7130737 8.964111c-2.377411 2.3774261 -5.601898 3.7130585 -8.964111 3.7130585l0 0c-7.001404 0 -12.677155 -5.675766 -12.677155 -12.67717l0 0c0 -7.001404 5.6757507 -12.67717 12.677155 -12.67717z" fill-rule="evenodd"/><path stroke="#2cc1ff" stroke-width="1.0" stroke-linejoin="round" stroke-linecap="butt" d="m463.56 182.78084l0 0c7.0014343 0 12.677185 5.675766 12.677185 12.67717l0 0c0 3.3621979 -1.3356323 6.58667 -3.7130737 8.964111c-2.377411 2.3774261 -5.601898 3.7130585 -8.964111 3.7130585l0 0c-7.001404 0 -12.677155 -5.675766 -12.677155 -12.67717l0 0c0 -7.001404 5.6757507 -12.67717 12.677155 -12.67717z" fill-rule="evenodd"/><path fill="#2cc1ff" d="m391.98312 182.78084l0 0c7.001404 0 12.677155 5.675766 12.677155 12.67717l0 0c0 3.3621979 -1.3356323 6.58667 -3.7130737 8.964111c-2.377411 2.3774261 -5.601898 3.7130585 -8.964081 3.7130585l0 0c-7.0014343 0 -12.677185 -5.675766 -12.677185 -12.67717l0 0c0 -7.001404 5.6757507 -12.67717 12.677185 -12.67717z" fill-rule="evenodd"/><path stroke="#2cc1ff" stroke-width="1.0" stroke-linejoin="round" stroke-linecap="butt" d="m391.98312 182.78084l0 0c7.001404 0 12.677155 5.675766 12.677155 12.67717l0 0c0 3.3621979 -1.3356323 6.58667 -3.7130737 8.964111c-2.377411 2.3774261 -5.601898 3.7130585 -8.964081 3.7130585l0 0c-7.0014343 0 -12.677185 -5.675766 -12.677185 -12.67717l0 0c0 -7.001404 5.6757507 -12.67717 12.677185 -12.67717z" fill-rule="evenodd"/><path fill="#2cc1ff" d="m440.19675 198.00919l0 0c-1.4089661 6.8622437 -8.114105 11.2829895 -14.976379 9.874023l0 0c-3.2953491 -0.6766205 -6.186981 -2.6345978 -8.038696 -5.443222c-1.8517456 -2.808609 -2.5119324 -6.237793 -1.8352966 -9.533157l0 0c1.4089661 -6.862259 8.114136 -11.283005 14.976379 -9.874023l0 0c6.8622437 1.4089813 11.2829895 8.114136 9.873993 14.976379z" fill-rule="evenodd"/><path stroke="#2cc1ff" stroke-width="1.0" stroke-linejoin="round" stroke-linecap="butt" d="m440.19675 198.00919l0 0c-1.4089661 6.8622437 -8.114105 11.2829895 -14.976379 9.874023l0 0c-3.2953491 -0.6766205 -6.186981 -2.6345978 -8.038696 -5.443222c-1.8517456 -2.808609 -2.5119324 -6.237793 -1.8352966 -9.533157l0 0c1.4089661 -6.862259 8.114136 -11.283005 14.976379 -9.874023l0 0c6.8622437 1.4089813 11.2829895 8.114136 9.873993 14.976379z" fill-rule="evenodd"/><path fill="#2cc1ff" d="m545.2629 198.00919l0 0c-1.4089355 6.8622437 -8.114136 11.2829895 -14.976379 9.874023l0 0c-3.2953491 -0.6766205 -6.1869507 -2.6345978 -8.038696 -5.443222c-1.8517456 -2.808609 -2.5119019 -6.237793 -1.8353271 -9.533157l0 0c1.4089966 -6.862259 8.114136 -11.283005 14.976379 -9.874023l0 0c6.8623047 1.4089813 11.28302 8.114136 9.874023 14.976379z" fill-rule="evenodd"/><path stroke="#2cc1ff" stroke-width="1.0" stroke-linejoin="round" stroke-linecap="butt" d="m545.2629 198.00919l0 0c-1.4089355 6.8622437 -8.114136 11.2829895 -14.976379 9.874023l0 0c-3.2953491 -0.6766205 -6.1869507 -2.6345978 -8.038696 -5.443222c-1.8517456 -2.808609 -2.5119019 -6.237793 -1.8353271 -9.533157l0 0c1.4089966 -6.862259 8.114136 -11.283005 14.976379 -9.874023l0 0c6.8623047 1.4089813 11.28302 8.114136 9.874023 14.976379z" fill-rule="evenodd"/><path fill="#2cc1ff" d="m844.18994 207.42783l0 0c7.001404 0 12.677185 5.6757507 12.677185 12.677155l0 0c0 3.3621979 -1.3356323 6.586685 -3.7130737 8.964111c-2.3774414 2.3774414 -5.6019287 3.7130585 -8.964111 3.7130585l0 0c-7.001404 0 -12.677185 -5.6757507 -12.677185 -12.67717l0 0c0 -7.001404 5.6757812 -12.677155 12.677185 -12.677155z" fill-rule="evenodd"/><path stroke="#2cc1ff" stroke-width="1.0" stroke-linejoin="round" stroke-linecap="butt" d="m844.18994 207.42783l0 0c7.001404 0 12.677185 5.6757507 12.677185 12.677155l0 0c0 3.3621979 -1.3356323 6.586685 -3.7130737 8.964111c-2.3774414 2.3774414 -5.6019287 3.7130585 -8.964111 3.7130585l0 0c-7.001404 0 -12.677185 -5.6757507 -12.677185 -12.67717l0 0c0 -7.001404 5.6757812 -12.677155 12.677185 -12.677155z" fill-rule="evenodd"/><path fill="#2cc1ff" d="m772.61304 207.42783l0 0c7.001404 0 12.677185 5.6757507 12.677185 12.677155l0 0c0 3.3621979 -1.3356323 6.586685 -3.7130737 8.964111c-2.3774414 2.3774414 -5.6019287 3.7130585 -8.964111 3.7130585l0 0c-7.001404 0 -12.677185 -5.6757507 -12.677185 -12.67717l0 0c0 -7.001404 5.6757812 -12.677155 12.677185 -12.677155z" fill-rule="evenodd"/><path stroke="#2cc1ff" stroke-width="1.0" stroke-linejoin="round" stroke-linecap="butt" d="m772.61304 207.42783l0 0c7.001404 0 12.677185 5.6757507 12.677185 12.677155l0 0c0 3.3621979 -1.3356323 6.586685 -3.7130737 8.964111c-2.3774414 2.3774414 -5.6019287 3.7130585 -8.964111 3.7130585l0 0c-7.001404 0 -12.677185 -5.6757507 -12.677185 -12.67717l0 0c0 -7.001404 5.6757812 -12.677155 12.677185 -12.677155z" fill-rule="evenodd"/><path fill="#2cc1ff" d="m820.82666 222.65617l0 0c-1.4089355 6.8622437 -8.114136 11.2829895 -14.976379 9.874008l0 0c-3.2953491 -0.6766205 -6.1869507 -2.6345978 -8.038696 -5.443207c-1.8517456 -2.8086243 -2.5119019 -6.237808 -1.8353271 -9.533173l0 0c1.4089966 -6.8622437 8.114136 -11.2829895 14.976379 -9.874008l0 0c6.8622437 1.4089813 11.28302 8.1141205 9.874023 14.976379z" fill-rule="evenodd"/><path stroke="#2cc1ff" stroke-width="1.0" stroke-linejoin="round" stroke-linecap="butt" d="m820.82666 222.65617l0 0c-1.4089355 6.8622437 -8.114136 11.2829895 -14.976379 9.874008l0 0c-3.2953491 -0.6766205 -6.1869507 -2.6345978 -8.038696 -5.443207c-1.8517456 -2.8086243 -2.5119019 -6.237808 -1.8353271 -9.533173l0 0c1.4089966 -6.8622437 8.114136 -11.2829895 14.976379 -9.874008l0 0c6.8622437 1.4089813 11.28302 8.1141205 9.874023 14.976379z" fill-rule="evenodd"/><path fill="#2cc1ff" d="m844.18994 248.71654l0 0c7.001404 0 12.677185 5.6757507 12.677185 12.67717l0 0c0 3.3621826 -1.3356323 6.58667 -3.7130737 8.964111c-2.3774414 2.377411 -5.6019287 3.7130432 -8.964111 3.7130432l0 0c-7.001404 0 -12.677185 -5.6757507 -12.677185 -12.677155l0 0c0 -7.001419 5.6757812 -12.67717 12.677185 -12.67717z" fill-rule="evenodd"/><path stroke="#2cc1ff" stroke-width="1.0" stroke-linejoin="round" stroke-linecap="butt" d="m844.18994 248.71654l0 0c7.001404 0 12.677185 5.6757507 12.677185 12.67717l0 0c0 3.3621826 -1.3356323 6.58667 -3.7130737 8.964111c-2.3774414 2.377411 -5.6019287 3.7130432 -8.964111 3.7130432l0 0c-7.001404 0 -12.677185 -5.6757507 -12.677185 -12.677155l0 0c0 -7.001419 5.6757812 -12.67717 12.677185 -12.67717z" fill-rule="evenodd"/><path fill="#2cc1ff" d="m772.61304 248.71654l0 0c7.001404 0 12.677185 5.6757507 12.677185 12.67717l0 0c0 3.3621826 -1.3356323 6.58667 -3.7130737 8.964111c-2.3774414 2.377411 -5.6019287 3.7130432 -8.964111 3.7130432l0 0c-7.001404 0 -12.677185 -5.6757507 -12.677185 -12.677155l0 0c0 -7.001419 5.6757812 -12.67717 12.677185 -12.67717z" fill-rule="evenodd"/><path stroke="#2cc1ff" stroke-width="1.0" stroke-linejoin="round" stroke-linecap="butt" d="m772.61304 248.71654l0 0c7.001404 0 12.677185 5.6757507 12.677185 12.67717l0 0c0 3.3621826 -1.3356323 6.58667 -3.7130737 8.964111c-2.3774414 2.377411 -5.6019287 3.7130432 -8.964111 3.7130432l0 0c-7.001404 0 -12.677185 -5.6757507 -12.677185 -12.677155l0 0c0 -7.001419 5.6757812 -12.67717 12.677185 -12.67717z" fill-rule="evenodd"/><path fill="#2cc1ff" d="m820.82666 263.9449l0 0c-1.4089355 6.8622437 -8.114136 11.2829895 -14.976379 9.874023l0 0c-3.2953491 -0.67663574 -6.1869507 -2.634613 -8.038696 -5.4432373c-1.8517456 -2.8085938 -2.5119019 -6.237793 -1.8353271 -9.533142l0 0c1.4089966 -6.862259 8.114136 -11.283005 14.976379 -9.874023l0 0c6.8622437 1.4089813 11.28302 8.114136 9.874023 14.976379z" fill-rule="evenodd"/><path stroke="#2cc1ff" stroke-width="1.0" stroke-linejoin="round" stroke-linecap="butt" d="m820.82666 263.9449l0 0c-1.4089355 6.8622437 -8.114136 11.2829895 -14.976379 9.874023l0 0c-3.2953491 -0.67663574 -6.1869507 -2.634613 -8.038696 -5.4432373c-1.8517456 -2.8085938 -2.5119019 -6.237793 -1.8353271 -9.533142l0 0c1.4089966 -6.862259 8.114136 -11.283005 14.976379 -9.874023l0 0c6.8622437 1.4089813 11.28302 8.114136 9.874023 14.976379z" fill-rule="evenodd"/><path fill="#000000" fill-opacity="0.0" d="m618.40027 176.70866c31.70929 0 47.56427 16.007874 63.41858 32.015747c15.854309 16.007874 31.708008 32.015747 63.416077 32.015747" fill-rule="evenodd"/><path stroke="#595959" stroke-width="3.0" stroke-linejoin="round" stroke-linecap="butt" d="m618.40027 176.70866c31.70929 0 47.56427 16.007874 63.41858 32.015747c15.854309 16.007874 31.708008 32.015747 63.416077 32.015747" fill-rule="evenodd"/><path fill="#000000" fill-opacity="0.0" d="m757.7404 203.23885l113.82654 0c2.4414062E-4 0 5.493164E-4 1.0681152E-4 7.324219E-4 3.0517578E-4c1.8310547E-4 1.9836426E-4 3.0517578E-4 4.7302246E-4 3.0517578E-4 7.4768066E-4l-0.0010375977 62.51837c0 6.905884 -5.5983276 12.504211 -12.504211 12.504211l-113.82654 0l0 0c-5.493164E-4 0 -0.0010375977 -4.8828125E-4 -0.0010375977 -0.0010681152l0.0010375977 -62.518387l0 0c0 -6.9058685 5.5983276 -12.504181 12.504211 -12.504181z" fill-rule="evenodd"/><path stroke="#595959" stroke-width="3.0" stroke-linejoin="round" stroke-linecap="butt" d="m757.7404 203.23885l113.82654 0c2.4414062E-4 0 5.493164E-4 1.0681152E-4 7.324219E-4 3.0517578E-4c1.8310547E-4 1.9836426E-4 3.0517578E-4 4.7302246E-4 3.0517578E-4 7.4768066E-4l-0.0010375977 62.51837c0 6.905884 -5.5983276 12.504211 -12.504211 12.504211l-113.82654 0l0 0c-5.493164E-4 0 -0.0010375977 -4.8828125E-4 -0.0010375977 -0.0010681152l0.0010375977 -62.518387l0 0c0 -6.9058685 5.5983276 -12.504181 12.504211 -12.504181z" fill-rule="evenodd"/><path fill="#000000" fill-opacity="0.0" d="m369.5504 281.2756l248.84985 0c6.1035156E-4 0 0.001159668 2.1362305E-4 0.0016479492 6.713867E-4c4.272461E-4 4.272461E-4 6.713867E-4 0.0010070801 6.713867E-4 0.0016174316l-0.002319336 136.69006c0 15.098999 -12.240173 27.339142 -27.339111 27.339142l-248.84988 0l0 0c-0.0012512207 0 -0.0022888184 -0.0010375977 -0.0022888184 -0.002319336l0.0022888184 -136.69006l0 0c0 -15.0989685 12.240143 -27.339111 27.339142 -27.339111z" fill-rule="evenodd"/><path stroke="#595959" stroke-width="8.0" stroke-linejoin="round" stroke-linecap="butt" d="m369.5504 281.2756l248.84985 0c6.1035156E-4 0 0.001159668 2.1362305E-4 0.0016479492 6.713867E-4c4.272461E-4 4.272461E-4 6.713867E-4 0.0010070801 6.713867E-4 0.0016174316l-0.002319336 136.69006c0 15.098999 -12.240173 27.339142 -27.339111 27.339142l-248.84988 0l0 0c-0.0012512207 0 -0.0022888184 -0.0010375977 -0.0022888184 -0.002319336l0.0022888184 -136.69006l0 0c0 -15.0989685 12.240143 -27.339111 27.339142 -27.339111z" fill-rule="evenodd"/><path fill="#000000" fill-opacity="0.0" d="m351.0315 291.02362l259.1811 0l0 77.5748l-259.1811 0z" fill-rule="evenodd"/><path fill="#595959" d="m390.5342 331.228q-3.453125 0 -5.921875 -1.515625q-2.46875 -1.515625 -3.796875 -4.21875q-1.3125 -2.703125 -1.3125 -6.265625q0 -3.578125 1.3125 -6.28125q1.328125 -2.703125 3.796875 -4.203125q2.46875 -1.515625 5.921875 -1.515625q3.984375 0 6.640625 2.0q2.65625 1.984375 3.734375 5.359375l-3.890625 1.0625q-0.671875 -2.25 -2.296875 -3.515625q-1.609375 -1.28125 -4.1875 -1.28125q-2.328125 0 -3.875 1.046875q-1.53125 1.03125 -2.3125 2.921875q-0.765625 1.875 -0.78125 4.40625q0 2.53125 0.765625 4.40625q0.78125 1.875 2.328125 2.921875q1.546875 1.03125 3.875 1.03125q2.578125 0 4.1875 -1.28125q1.625 -1.28125 2.296875 -3.515625l3.890625 1.078125q-1.078125 3.375 -3.734375 5.375q-2.65625 1.984375 -6.640625 1.984375zm21.522675 0q-2.59375 0 -4.53125 -1.171875q-1.9375 -1.171875 -3.0 -3.21875q-1.0625 -2.0625 -1.0625 -4.734375q0 -2.71875 1.078125 -4.765625q1.09375 -2.046875 3.03125 -3.203125q1.9375 -1.15625 4.484375 -1.15625q2.609375 0 4.546875 1.171875q1.9375 1.171875 3.0 3.234375q1.078125 2.046875 1.078125 4.71875q0 2.6875 -1.078125 4.75q-1.078125 2.046875 -3.015625 3.21875q-1.9375 1.15625 -4.53125 1.15625zm0 -3.625q2.296875 0 3.421875 -1.53125q1.125 -1.53125 1.125 -3.96875q0 -2.515625 -1.140625 -4.0q-1.140625 -1.5 -3.40625 -1.5q-1.5625 0 -2.5625 0.703125q-1.0 0.6875 -1.484375 1.9375q-0.46875 1.234375 -0.46875 2.859375q0 2.515625 1.140625 4.015625q1.140625 1.484375 3.375 1.484375zm24.088562 3.140625l0 -8.3125q0 -0.828125 -0.109375 -1.8125q-0.109375 -1.0 -0.515625 -1.90625q-0.40625 -0.921875 -1.21875 -1.515625q-0.8125 -0.59375 -2.1875 -0.59375q-0.734375 0 -1.453125 0.25q-0.71875 0.234375 -1.3125 0.8125q-0.578125 0.578125 -0.9375 1.59375q-0.34375 1.015625 -0.34375 2.609375l-2.28125 -0.984375q0 -2.203125 0.84375 -3.984375q0.859375 -1.796875 2.515625 -2.859375q1.671875 -1.078125 4.109375 -1.078125q1.921875 0 3.171875 0.640625q1.25 0.640625 1.984375 1.640625q0.734375 0.984375 1.078125 2.109375q0.359375 1.125 0.453125 2.125q0.109375 1.0 0.109375 1.625l0 9.640625l-3.90625 0zm-11.984375 0l0 -17.28125l3.4375 0l0 5.359375l0.46875 0l0 11.921875l-3.90625 0zm30.187897 0q-1.71875 0.3125 -3.359375 0.265625q-1.640625 -0.03125 -2.9375 -0.59375q-1.296875 -0.5625 -1.96875 -1.796875q-0.59375 -1.125 -0.625 -2.28125q-0.03125 -1.171875 -0.03125 -2.65625l0 -15.015625l3.84375 0l0 14.796875q0 1.046875 0.015625 1.828125q0.03125 0.78125 0.328125 1.28125q0.578125 0.953125 1.84375 1.078125q1.265625 0.109375 2.890625 -0.140625l0 3.234375zm-12.0625 -14.25l0 -3.03125l12.0625 0l0 3.03125l-12.0625 0zm22.757294 14.734375q-2.625 0 -4.609375 -1.140625q-1.984375 -1.140625 -3.09375 -3.15625q-1.109375 -2.015625 -1.109375 -4.640625q0 -2.828125 1.078125 -4.90625q1.09375 -2.09375 3.03125 -3.25q1.9375 -1.15625 4.484375 -1.15625q2.6875 0 4.5625 1.265625q1.875 1.25 2.78125 3.546875q0.921875 2.28125 0.703125 5.390625l-3.828125 0l0 -1.40625q-0.015625 -2.828125 -1.0 -4.125q-0.96875 -1.296875 -3.0625 -1.296875q-2.375 0 -3.53125 1.46875q-1.140625 1.46875 -1.140625 4.28125q0 2.625 1.140625 4.0625q1.15625 1.4375 3.375 1.4375q1.421875 0 2.453125 -0.625q1.03125 -0.640625 1.59375 -1.828125l3.8125 1.140625q-1.0 2.34375 -3.078125 3.640625q-2.0625 1.296875 -4.5625 1.296875zm-5.953125 -8.046875l0 -2.921875l11.890625 0l0 2.921875l-11.890625 0zm28.830902 7.5625l0 -8.3125q0 -0.828125 -0.109375 -1.8125q-0.109375 -1.0 -0.515625 -1.90625q-0.40625 -0.921875 -1.21875 -1.515625q-0.8125 -0.59375 -2.1875 -0.59375q-0.734375 0 -1.453125 0.25q-0.71875 0.234375 -1.3125 0.8125q-0.578125 0.578125 -0.9375 1.59375q-0.34375 1.015625 -0.34375 2.609375l-2.28125 -0.984375q0 -2.203125 0.84375 -3.984375q0.859375 -1.796875 2.515625 -2.859375q1.671875 -1.078125 4.109375 -1.078125q1.921875 0 3.171875 0.640625q1.25 0.640625 1.984375 1.640625q0.734375 0.984375 1.078125 2.109375q0.359375 1.125 0.453125 2.125q0.109375 1.0 0.109375 1.625l0 9.640625l-3.90625 0zm-11.984375 0l0 -17.28125l3.4375 0l0 5.359375l0.46875 0l0 11.921875l-3.90625 0zm30.187927 0q-1.71875 0.3125 -3.359375 0.265625q-1.640625 -0.03125 -2.9375 -0.59375q-1.296875 -0.5625 -1.96875 -1.796875q-0.59375 -1.125 -0.625 -2.28125q-0.03125 -1.171875 -0.03125 -2.65625l0 -15.015625l3.84375 0l0 14.796875q0 1.046875 0.015625 1.828125q0.03125 0.78125 0.328125 1.28125q0.578125 0.953125 1.84375 1.078125q1.265625 0.109375 2.890625 -0.140625l0 3.234375zm-12.0625 -14.25l0 -3.03125l12.0625 0l0 3.03125l-12.0625 0zm22.177887 14.25l0 -23.046875l9.53125 0q0.328125 0 0.859375 0.03125q0.53125 0.03125 0.96875 0.109375q2.0 0.296875 3.296875 1.328125q1.3125 1.015625 1.9375 2.578125q0.640625 1.5625 0.640625 3.46875q0 1.890625 -0.640625 3.453125q-0.640625 1.546875 -1.953125 2.578125q-1.296875 1.015625 -3.28125 1.328125q-0.4375 0.0625 -0.984375 0.09375q-0.53125 0.03125 -0.84375 0.03125l-5.671875 0l0 8.046875l-3.859375 0zm3.859375 -11.640625l5.5 0q0.328125 0 0.71875 -0.03125q0.40625 -0.046875 0.75 -0.140625q0.953125 -0.234375 1.5 -0.84375q0.5625 -0.609375 0.78125 -1.375q0.234375 -0.765625 0.234375 -1.5q0 -0.734375 -0.234375 -1.515625q-0.21875 -0.78125 -0.78125 -1.390625q-0.546875 -0.609375 -1.5 -0.84375q-0.34375 -0.09375 -0.75 -0.109375q-0.390625 -0.03125 -0.71875 -0.03125l-5.5 0l0 7.78125zm23.941284 12.125q-2.59375 0 -4.53125 -1.171875q-1.9375 -1.171875 -3.0 -3.21875q-1.0625 -2.0625 -1.0625 -4.734375q0 -2.71875 1.078125 -4.765625q1.09375 -2.046875 3.03125 -3.203125q1.9375 -1.15625 4.484375 -1.15625q2.609375 0 4.546875 1.171875q1.9375 1.171875 3.0 3.234375q1.078125 2.046875 1.078125 4.71875q0 2.6875 -1.078125 4.75q-1.078125 2.046875 -3.015625 3.21875q-1.9375 1.15625 -4.53125 1.15625zm0 -3.625q2.296875 0 3.421875 -1.53125q1.125 -1.53125 1.125 -3.96875q0 -2.515625 -1.140625 -4.0q-1.140625 -1.5 -3.40625 -1.5q-1.5625 0 -2.5625 0.703125q-1.0 0.6875 -1.484375 1.9375q-0.46875 1.234375 -0.46875 2.859375q0 2.515625 1.140625 4.015625q1.140625 1.484375 3.375 1.484375zm19.776062 3.625q-2.59375 0 -4.53125 -1.171875q-1.9375 -1.171875 -3.0 -3.21875q-1.0625 -2.0625 -1.0625 -4.734375q0 -2.71875 1.078125 -4.765625q1.09375 -2.046875 3.03125 -3.203125q1.9375 -1.15625 4.484375 -1.15625q2.609375 0 4.546875 1.171875q1.9375 1.171875 3.0 3.234375q1.078125 2.046875 1.078125 4.71875q0 2.6875 -1.078125 4.75q-1.078125 2.046875 -3.015625 3.21875q-1.9375 1.15625 -4.53125 1.15625zm0 -3.625q2.296875 0 3.421875 -1.53125q1.125 -1.53125 1.125 -3.96875q0 -2.515625 -1.140625 -4.0q-1.140625 -1.5 -3.40625 -1.5q-1.5625 0 -2.5625 0.703125q-1.0 0.6875 -1.484375 1.9375q-0.46875 1.234375 -0.46875 2.859375q0 2.515625 1.140625 4.015625q1.140625 1.484375 3.375 1.484375zm12.463562 3.140625l0 -23.515625l3.859375 0l0 23.515625l-3.859375 0z" fill-rule="nonzero"/><path fill="#595959" d="m444.35846 356.8305q-0.9375 -1.09375 -1.609375 -2.46875q-0.65625 -1.359375 -1.0 -2.859375q-0.34375 -1.515625 -0.328125 -3.0q-0.015625 -1.484375 0.328125 -2.984375q0.34375 -1.515625 1.0 -2.875q0.671875 -1.375 1.609375 -2.46875l1.421875 1.0625q-0.96875 1.15625 -1.546875 2.34375q-0.5625 1.171875 -0.8125 2.40625q-0.25 1.234375 -0.25 2.515625q0 1.296875 0.25 2.53125q0.265625 1.21875 0.828125 2.40625q0.5625 1.1875 1.53125 2.328125l-1.421875 1.0625zm3.1853943 -3.046875l0.015625 -11.515625l1.953125 0l0 7.03125l3.15625 -4.15625l2.40625 0l-3.359375 4.328125l3.640625 4.3125l-2.546875 0l-3.296875 -4.15625l0 4.15625l-1.96875 0zm11.85791 0.25q-0.953125 0 -1.578125 -0.3125q-0.625 -0.328125 -1.0 -0.828125q-0.359375 -0.5 -0.546875 -1.046875q-0.171875 -0.5625 -0.234375 -1.0625q-0.046875 -0.5 -0.046875 -0.8125l0 -4.828125l1.953125 0l0 4.15625q0 0.40625 0.0625 0.90625q0.0625 0.5 0.265625 0.96875q0.203125 0.453125 0.59375 0.75q0.40625 0.296875 1.09375 0.296875q0.375 0 0.734375 -0.125q0.359375 -0.125 0.640625 -0.40625q0.296875 -0.296875 0.46875 -0.8125q0.1875 -0.515625 0.1875 -1.296875l1.140625 0.484375q0 1.109375 -0.4375 2.015625q-0.421875 0.890625 -1.25 1.421875q-0.828125 0.53125 -2.046875 0.53125zm2.828125 -0.25l0 -2.6875l-0.234375 0l0 -5.953125l1.9375 0l0 8.640625l-1.703125 0zm3.9453735 0l0 -8.640625l1.703125 0l0 2.109375l-0.21875 -0.28125q0.171875 -0.421875 0.4375 -0.78125q0.265625 -0.359375 0.640625 -0.59375q0.328125 -0.21875 0.703125 -0.328125q0.390625 -0.125 0.796875 -0.15625q0.40625 -0.03125 0.796875 0.03125l0 1.796875q-0.390625 -0.109375 -0.890625 -0.0625q-0.5 0.03125 -0.890625 0.28125q-0.40625 0.203125 -0.65625 0.546875q-0.25 0.328125 -0.375 0.765625q-0.109375 0.421875 -0.109375 0.921875l0 4.390625l-1.9375 0zm8.590149 0.234375q-0.9375 0 -1.59375 -0.34375q-0.640625 -0.359375 -0.96875 -0.953125q-0.328125 -0.59375 -0.328125 -1.3125q0 -0.609375 0.203125 -1.109375q0.21875 -0.5 0.640625 -0.859375q0.4375 -0.375 1.125 -0.609375q0.515625 -0.171875 1.21875 -0.296875q0.703125 -0.140625 1.515625 -0.25q0.828125 -0.125 1.71875 -0.265625l-0.6875 0.390625q0.015625 -0.890625 -0.40625 -1.3125q-0.40625 -0.421875 -1.375 -0.421875q-0.578125 0 -1.125 0.28125q-0.546875 0.265625 -0.75 0.921875l-1.765625 -0.546875q0.3125 -1.09375 1.21875 -1.75q0.90625 -0.671875 2.421875 -0.671875q1.15625 0 2.03125 0.375q0.875 0.375 1.296875 1.234375q0.234375 0.453125 0.28125 0.9375q0.046875 0.46875 0.046875 1.03125l0 5.296875l-1.6875 0l0 -1.875l0.28125 0.3125q-0.578125 0.9375 -1.359375 1.375q-0.78125 0.421875 -1.953125 0.421875zm0.390625 -1.53125q0.65625 0 1.109375 -0.234375q0.46875 -0.234375 0.75 -0.5625q0.28125 -0.34375 0.375 -0.640625q0.140625 -0.359375 0.15625 -0.828125q0.03125 -0.484375 0.03125 -0.78125l0.59375 0.171875q-0.875 0.140625 -1.5 0.25q-0.625 0.09375 -1.078125 0.1875q-0.4375 0.09375 -0.78125 0.203125q-0.34375 0.125 -0.578125 0.28125q-0.21875 0.15625 -0.34375 0.375q-0.125 0.203125 -0.125 0.484375q0 0.3125 0.15625 0.5625q0.15625 0.25 0.46875 0.390625q0.3125 0.140625 0.765625 0.140625zm11.481506 1.296875q-0.859375 0.15625 -1.6875 0.140625q-0.8125 -0.015625 -1.46875 -0.296875q-0.640625 -0.296875 -0.96875 -0.90625q-0.296875 -0.5625 -0.3125 -1.140625q-0.015625 -0.59375 -0.015625 -1.328125l0 -7.515625l1.90625 0l0 7.40625q0 0.515625 0.015625 0.90625q0.015625 0.390625 0.171875 0.640625q0.28125 0.484375 0.90625 0.546875q0.640625 0.046875 1.453125 -0.0625l0 1.609375zm-6.03125 -7.125l0 -1.515625l6.03125 0l0 1.515625l-6.03125 0zm8.0529175 -2.828125l0 -1.765625l1.921875 0l0 1.765625l-1.921875 0zm0 9.953125l0 -8.640625l1.921875 0l0 8.640625l-1.921875 0zm8.253571 0.234375q-1.3125 0 -2.3125 -0.5625q-0.984375 -0.5625 -1.546875 -1.5625q-0.546875 -1.015625 -0.546875 -2.328125q0 -1.421875 0.546875 -2.46875q0.546875 -1.046875 1.5 -1.609375q0.96875 -0.578125 2.25 -0.578125q1.34375 0 2.28125 0.625q0.9375 0.625 1.390625 1.78125q0.46875 1.140625 0.34375 2.6875l-1.90625 0l0 -0.703125q0 -1.40625 -0.5 -2.046875q-0.484375 -0.65625 -1.53125 -0.65625q-1.1875 0 -1.765625 0.734375q-0.5625 0.71875 -0.5625 2.140625q0 1.296875 0.5625 2.03125q0.578125 0.71875 1.6875 0.71875q0.703125 0 1.21875 -0.3125q0.53125 -0.328125 0.796875 -0.921875l1.90625 0.578125q-0.484375 1.15625 -1.53125 1.8125q-1.03125 0.640625 -2.28125 0.640625zm-2.96875 -4.015625l0 -1.453125l5.9375 0l0 1.453125l-5.9375 0zm8.678772 3.78125l0 -8.640625l1.703125 0l0 2.109375l-0.21875 -0.28125q0.171875 -0.421875 0.4375 -0.78125q0.265625 -0.359375 0.640625 -0.59375q0.328125 -0.21875 0.703125 -0.328125q0.390625 -0.125 0.796875 -0.15625q0.40625 -0.03125 0.796875 0.03125l0 1.796875q-0.390625 -0.109375 -0.890625 -0.0625q-0.5 0.03125 -0.890625 0.28125q-0.40625 0.203125 -0.65625 0.546875q-0.25 0.328125 -0.375 0.765625q-0.109375 0.421875 -0.109375 0.921875l0 4.390625l-1.9375 0zm11.446411 0q-0.859375 0.15625 -1.6875 0.140625q-0.8125 -0.015625 -1.46875 -0.296875q-0.640625 -0.296875 -0.96875 -0.90625q-0.296875 -0.5625 -0.3125 -1.140625q-0.015625 -0.59375 -0.015625 -1.328125l0 -7.515625l1.90625 0l0 7.40625q0 0.515625 0.015625 0.90625q0.015625 0.390625 0.171875 0.640625q0.28125 0.484375 0.90625 0.546875q0.640625 0.046875 1.453125 -0.0625l0 1.609375zm-6.03125 -7.125l0 -1.515625l6.03125 0l0 1.515625l-6.03125 0zm8.8497925 10.171875l-1.421875 -1.0625q0.953125 -1.140625 1.515625 -2.328125q0.578125 -1.1875 0.828125 -2.40625q0.25 -1.234375 0.265625 -2.53125q-0.015625 -1.28125 -0.265625 -2.515625q-0.234375 -1.234375 -0.8125 -2.40625q-0.578125 -1.1875 -1.53125 -2.34375l1.421875 -1.0625q0.9375 1.09375 1.59375 2.46875q0.671875 1.359375 1.015625 2.875q0.34375 1.5 0.328125 2.984375q0.015625 1.484375 -0.328125 3.0q-0.34375 1.5 -1.015625 2.859375q-0.65625 1.375 -1.59375 2.46875z" fill-rule="nonzero"/><path fill="#2cc1ff" d="m568.62616 369.36353l0 0c7.001404 0 12.677185 5.6757507 12.677185 12.677155l0 0c0 3.3621826 -1.3356323 6.58667 -3.7130737 8.964111c-2.3774414 2.3774414 -5.6019287 3.7130432 -8.964111 3.7130432l0 0c-7.001404 0 -12.677185 -5.6757507 -12.677185 -12.677155l0 0c0 -7.001404 5.6757812 -12.677155 12.677185 -12.677155z" fill-rule="evenodd"/><path stroke="#2cc1ff" stroke-width="1.0" stroke-linejoin="round" stroke-linecap="butt" d="m568.62616 369.36353l0 0c7.001404 0 12.677185 5.6757507 12.677185 12.677155l0 0c0 3.3621826 -1.3356323 6.58667 -3.7130737 8.964111c-2.3774414 2.3774414 -5.6019287 3.7130432 -8.964111 3.7130432l0 0c-7.001404 0 -12.677185 -5.6757507 -12.677185 -12.677155l0 0c0 -7.001404 5.6757812 -12.677155 12.677185 -12.677155z" fill-rule="evenodd"/><path fill="#fe6c66" d="m497.04926 369.36353l0 0c7.001404 0 12.677155 5.6757507 12.677155 12.677155l0 0c0 3.3621826 -1.3356323 6.58667 -3.7130432 8.964111c-2.3774414 2.3774414 -5.6019287 3.7130432 -8.964111 3.7130432l0 0c-7.001404 0 -12.677155 -5.6757507 -12.677155 -12.677155l0 0c0 -7.001404 5.6757507 -12.677155 12.677155 -12.677155z" fill-rule="evenodd"/><path stroke="#fe6c66" stroke-width="1.0" stroke-linejoin="round" stroke-linecap="butt" d="m497.04926 369.36353l0 0c7.001404 0 12.677155 5.6757507 12.677155 12.677155l0 0c0 3.3621826 -1.3356323 6.58667 -3.7130432 8.964111c-2.3774414 2.3774414 -5.6019287 3.7130432 -8.964111 3.7130432l0 0c-7.001404 0 -12.677155 -5.6757507 -12.677155 -12.677155l0 0c0 -7.001404 5.6757507 -12.677155 12.677155 -12.677155z" fill-rule="evenodd"/><path fill="#2cc1ff" d="m463.56 369.36353l0 0c7.0014343 0 12.677185 5.6757507 12.677185 12.677155l0 0c0 3.3621826 -1.3356323 6.58667 -3.7130737 8.964111c-2.377411 2.3774414 -5.601898 3.7130432 -8.964111 3.7130432l0 0c-7.001404 0 -12.677155 -5.6757507 -12.677155 -12.677155l0 0c0 -7.001404 5.6757507 -12.677155 12.677155 -12.677155z" fill-rule="evenodd"/><path stroke="#2cc1ff" stroke-width="1.0" stroke-linejoin="round" stroke-linecap="butt" d="m463.56 369.36353l0 0c7.0014343 0 12.677185 5.6757507 12.677185 12.677155l0 0c0 3.3621826 -1.3356323 6.58667 -3.7130737 8.964111c-2.377411 2.3774414 -5.601898 3.7130432 -8.964111 3.7130432l0 0c-7.001404 0 -12.677155 -5.6757507 -12.677155 -12.677155l0 0c0 -7.001404 5.6757507 -12.677155 12.677155 -12.677155z" fill-rule="evenodd"/><path fill="#fe6c66" d="m391.98312 369.36353l0 0c7.001404 0 12.677155 5.6757507 12.677155 12.677155l0 0c0 3.3621826 -1.3356323 6.58667 -3.7130737 8.964111c-2.377411 2.3774414 -5.601898 3.7130432 -8.964081 3.7130432l0 0c-7.0014343 0 -12.677185 -5.6757507 -12.677185 -12.677155l0 0c0 -7.001404 5.6757507 -12.677155 12.677185 -12.677155z" fill-rule="evenodd"/><path stroke="#fe6c66" stroke-width="1.0" stroke-linejoin="round" stroke-linecap="butt" d="m391.98312 369.36353l0 0c7.001404 0 12.677155 5.6757507 12.677155 12.677155l0 0c0 3.3621826 -1.3356323 6.58667 -3.7130737 8.964111c-2.377411 2.3774414 -5.601898 3.7130432 -8.964081 3.7130432l0 0c-7.0014343 0 -12.677185 -5.6757507 -12.677185 -12.677155l0 0c0 -7.001404 5.6757507 -12.677155 12.677185 -12.677155z" fill-rule="evenodd"/><path fill="#fe6c66" d="m440.19675 384.59186l0 0c-1.4089661 6.8622437 -8.114105 11.2829895 -14.976379 9.874023l0 0c-3.2953491 -0.6766052 -6.186981 -2.634613 -8.038696 -5.443207c-1.8517456 -2.8086243 -2.5119324 -6.237793 -1.8352966 -9.533173l0 0c1.4089661 -6.8622437 8.114136 -11.2829895 14.976379 -9.874023l0 0c6.8622437 1.4089966 11.2829895 8.114136 9.873993 14.976379z" fill-rule="evenodd"/><path stroke="#fe6c66" stroke-width="1.0" stroke-linejoin="round" stroke-linecap="butt" d="m440.19675 384.59186l0 0c-1.4089661 6.8622437 -8.114105 11.2829895 -14.976379 9.874023l0 0c-3.2953491 -0.6766052 -6.186981 -2.634613 -8.038696 -5.443207c-1.8517456 -2.8086243 -2.5119324 -6.237793 -1.8352966 -9.533173l0 0c1.4089661 -6.8622437 8.114136 -11.2829895 14.976379 -9.874023l0 0c6.8622437 1.4089966 11.2829895 8.114136 9.873993 14.976379z" fill-rule="evenodd"/><path fill="#2cc1ff" d="m545.2629 384.59186l0 0c-1.4089355 6.8622437 -8.114136 11.2829895 -14.976379 9.874023l0 0c-3.2953491 -0.6766052 -6.1869507 -2.634613 -8.038696 -5.443207c-1.8517456 -2.8086243 -2.5119019 -6.237793 -1.8353271 -9.533173l0 0c1.4089966 -6.8622437 8.114136 -11.2829895 14.976379 -9.874023l0 0c6.8623047 1.4089966 11.28302 8.114136 9.874023 14.976379z" fill-rule="evenodd"/><path stroke="#2cc1ff" stroke-width="1.0" stroke-linejoin="round" stroke-linecap="butt" d="m545.2629 384.59186l0 0c-1.4089355 6.8622437 -8.114136 11.2829895 -14.976379 9.874023l0 0c-3.2953491 -0.6766052 -6.1869507 -2.634613 -8.038696 -5.443207c-1.8517456 -2.8086243 -2.5119019 -6.237793 -1.8353271 -9.533173l0 0c1.4089966 -6.8622437 8.114136 -11.2829895 14.976379 -9.874023l0 0c6.8623047 1.4089966 11.28302 8.114136 9.874023 14.976379z" fill-rule="evenodd"/><path fill="#2cc1ff" d="m844.18994 309.44882l0 0c7.001404 0 12.677185 5.6757507 12.677185 12.677155l0 0c0 3.3622131 -1.3356323 6.5867004 -3.7130737 8.964111c-2.3774414 2.3774414 -5.6019287 3.7130737 -8.964111 3.7130737l0 0c-7.001404 0 -12.677185 -5.6757812 -12.677185 -12.677185l0 0c0 -7.001404 5.6757812 -12.677155 12.677185 -12.677155z" fill-rule="evenodd"/><path stroke="#2cc1ff" stroke-width="1.0" stroke-linejoin="round" stroke-linecap="butt" d="m844.18994 309.44882l0 0c7.001404 0 12.677185 5.6757507 12.677185 12.677155l0 0c0 3.3622131 -1.3356323 6.5867004 -3.7130737 8.964111c-2.3774414 2.3774414 -5.6019287 3.7130737 -8.964111 3.7130737l0 0c-7.001404 0 -12.677185 -5.6757812 -12.677185 -12.677185l0 0c0 -7.001404 5.6757812 -12.677155 12.677185 -12.677155z" fill-rule="evenodd"/><path fill="#fe6c66" d="m772.61304 309.44882l0 0c7.001404 0 12.677185 5.6757507 12.677185 12.677155l0 0c0 3.3622131 -1.3356323 6.5867004 -3.7130737 8.964111c-2.3774414 2.3774414 -5.6019287 3.7130737 -8.964111 3.7130737l0 0c-7.001404 0 -12.677185 -5.6757812 -12.677185 -12.677185l0 0c0 -7.001404 5.6757812 -12.677155 12.677185 -12.677155z" fill-rule="evenodd"/><path stroke="#fe6c66" stroke-width="1.0" stroke-linejoin="round" stroke-linecap="butt" d="m772.61304 309.44882l0 0c7.001404 0 12.677185 5.6757507 12.677185 12.677155l0 0c0 3.3622131 -1.3356323 6.5867004 -3.7130737 8.964111c-2.3774414 2.3774414 -5.6019287 3.7130737 -8.964111 3.7130737l0 0c-7.001404 0 -12.677185 -5.6757812 -12.677185 -12.677185l0 0c0 -7.001404 5.6757812 -12.677155 12.677185 -12.677155z" fill-rule="evenodd"/><path fill="#fe6c66" d="m820.82666 324.67715l0 0c-1.4089355 6.8622437 -8.114136 11.28302 -14.976379 9.874023l0 0c-3.2953491 -0.6766052 -6.1869507 -2.6345825 -8.038696 -5.443207c-1.8517456 -2.8086243 -2.5119019 -6.237793 -1.8353271 -9.533173l0 0c1.4089966 -6.8622437 8.114136 -11.2829895 14.976379 -9.874023l0 0c6.8622437 1.4089966 11.28302 8.114136 9.874023 14.976379z" fill-rule="evenodd"/><path stroke="#fe6c66" stroke-width="1.0" stroke-linejoin="round" stroke-linecap="butt" d="m820.82666 324.67715l0 0c-1.4089355 6.8622437 -8.114136 11.28302 -14.976379 9.874023l0 0c-3.2953491 -0.6766052 -6.1869507 -2.6345825 -8.038696 -5.443207c-1.8517456 -2.8086243 -2.5119019 -6.237793 -1.8353271 -9.533173l0 0c1.4089966 -6.8622437 8.114136 -11.2829895 14.976379 -9.874023l0 0c6.8622437 1.4089966 11.28302 8.114136 9.874023 14.976379z" fill-rule="evenodd"/><path fill="#2cc1ff" d="m844.18994 350.73752l0 0c7.001404 0 12.677185 5.6757812 12.677185 12.677185l0 0c0 3.3621826 -1.3356323 6.58667 -3.7130737 8.964111c-2.3774414 2.377411 -5.6019287 3.7130432 -8.964111 3.7130432l0 0c-7.001404 0 -12.677185 -5.6757507 -12.677185 -12.677155l0 0c0 -7.001404 5.6757812 -12.677185 12.677185 -12.677185z" fill-rule="evenodd"/><path stroke="#2cc1ff" stroke-width="1.0" stroke-linejoin="round" stroke-linecap="butt" d="m844.18994 350.73752l0 0c7.001404 0 12.677185 5.6757812 12.677185 12.677185l0 0c0 3.3621826 -1.3356323 6.58667 -3.7130737 8.964111c-2.3774414 2.377411 -5.6019287 3.7130432 -8.964111 3.7130432l0 0c-7.001404 0 -12.677185 -5.6757507 -12.677185 -12.677155l0 0c0 -7.001404 5.6757812 -12.677185 12.677185 -12.677185z" fill-rule="evenodd"/><path fill="#2cc1ff" d="m772.61304 350.73752l0 0c7.001404 0 12.677185 5.6757812 12.677185 12.677185l0 0c0 3.3621826 -1.3356323 6.58667 -3.7130737 8.964111c-2.3774414 2.377411 -5.6019287 3.7130432 -8.964111 3.7130432l0 0c-7.001404 0 -12.677185 -5.6757507 -12.677185 -12.677155l0 0c0 -7.001404 5.6757812 -12.677185 12.677185 -12.677185z" fill-rule="evenodd"/><path stroke="#2cc1ff" stroke-width="1.0" stroke-linejoin="round" stroke-linecap="butt" d="m772.61304 350.73752l0 0c7.001404 0 12.677185 5.6757812 12.677185 12.677185l0 0c0 3.3621826 -1.3356323 6.58667 -3.7130737 8.964111c-2.3774414 2.377411 -5.6019287 3.7130432 -8.964111 3.7130432l0 0c-7.001404 0 -12.677185 -5.6757507 -12.677185 -12.677155l0 0c0 -7.001404 5.6757812 -12.677185 12.677185 -12.677185z" fill-rule="evenodd"/><path fill="#fe6c66" d="m820.82666 365.96588l0 0c-1.4089355 6.8622437 -8.114136 11.2829895 -14.976379 9.874023l0 0c-3.2953491 -0.67663574 -6.1869507 -2.634613 -8.038696 -5.4432373c-1.8517456 -2.8085938 -2.5119019 -6.237793 -1.8353271 -9.533142l0 0c1.4089966 -6.8622437 8.114136 -11.2829895 14.976379 -9.874023l0 0c6.8622437 1.4089661 11.28302 8.114136 9.874023 14.976379z" fill-rule="evenodd"/><path stroke="#fe6c66" stroke-width="1.0" stroke-linejoin="round" stroke-linecap="butt" d="m820.82666 365.96588l0 0c-1.4089355 6.8622437 -8.114136 11.2829895 -14.976379 9.874023l0 0c-3.2953491 -0.67663574 -6.1869507 -2.634613 -8.038696 -5.4432373c-1.8517456 -2.8085938 -2.5119019 -6.237793 -1.8353271 -9.533142l0 0c1.4089966 -6.8622437 8.114136 -11.2829895 14.976379 -9.874023l0 0c6.8622437 1.4089661 11.28302 8.114136 9.874023 14.976379z" fill-rule="evenodd"/><path fill="#000000" fill-opacity="0.0" d="m757.7404 305.25986l113.82654 0c2.4414062E-4 0 5.493164E-4 9.1552734E-5 7.324219E-4 3.0517578E-4c1.8310547E-4 1.8310547E-4 3.0517578E-4 4.5776367E-4 3.0517578E-4 7.324219E-4l-0.0010375977 62.51837c0 6.905884 -5.5983276 12.504211 -12.504211 12.504211l-113.82654 0l0 0c-5.493164E-4 0 -0.0010375977 -4.8828125E-4 -0.0010375977 -0.0010681152l0.0010375977 -62.51837l0 0c0 -6.905884 5.5983276 -12.504181 12.504211 -12.504181z" fill-rule="evenodd"/><path stroke="#595959" stroke-width="3.0" stroke-linejoin="round" stroke-linecap="butt" d="m757.7404 305.25986l113.82654 0c2.4414062E-4 0 5.493164E-4 9.1552734E-5 7.324219E-4 3.0517578E-4c1.8310547E-4 1.8310547E-4 3.0517578E-4 4.5776367E-4 3.0517578E-4 7.324219E-4l-0.0010375977 62.51837c0 6.905884 -5.5983276 12.504211 -12.504211 12.504211l-113.82654 0l0 0c-5.493164E-4 0 -0.0010375977 -4.8828125E-4 -0.0010375977 -0.0010681152l0.0010375977 -62.51837l0 0c0 -6.905884 5.5983276 -12.504181 12.504211 -12.504181z" fill-rule="evenodd"/><path fill="#000000" fill-opacity="0.0" d="m618.40027 363.29135c31.70929 0 47.56427 -5.126007 63.41858 -10.251984c15.854309 -5.1259766 31.708008 -10.251953 63.416077 -10.251953" fill-rule="evenodd"/><path stroke="#595959" stroke-width="3.0" stroke-linejoin="round" stroke-linecap="butt" d="m618.40027 363.29135c31.70929 0 47.56427 -5.126007 63.41858 -10.251984c15.854309 -5.1259766 31.708008 -10.251953 63.416077 -10.251953" fill-rule="evenodd"/><path fill="#2cc1ff" d="m178.69588 470.3622l0 0c0 7.001404 -5.675766 12.677155 -12.67717 12.677155l0 0c-3.3621826 0 -6.58667 -1.3356323 -8.964111 -3.7130432c-2.3774261 -2.3774414 -3.7130432 -5.6019287 -3.7130432 -8.964111l0 0c0 -7.001404 5.6757507 -12.677185 12.677155 -12.677185l0 0c7.001404 0 12.67717 5.6757812 12.67717 12.677185z" fill-rule="evenodd"/><path stroke="#2cc1ff" stroke-width="1.0" stroke-linejoin="round" stroke-linecap="butt" d="m178.69588 470.3622l0 0c0 7.001404 -5.675766 12.677155 -12.67717 12.677155l0 0c-3.3621826 0 -6.58667 -1.3356323 -8.964111 -3.7130432c-2.3774261 -2.3774414 -3.7130432 -5.6019287 -3.7130432 -8.964111l0 0c0 -7.001404 5.6757507 -12.677185 12.677155 -12.677185l0 0c7.001404 0 12.67717 5.6757812 12.67717 12.677185z" fill-rule="evenodd"/><path fill="#fe6c66" d="m227.45572 264.63727l0 0c6.8622437 1.4089966 11.2829895 8.114136 9.874023 14.976379l0 0c-0.6766205 3.2953796 -2.6345978 6.186981 -5.443222 8.038727c-2.808609 1.8517151 -6.237793 2.5119019 -9.533157 1.8352966l0 0c-6.862259 -1.4089966 -11.283005 -8.114136 -9.874023 -14.976379l0 0c1.4089813 -6.8622437 8.114136 -11.2829895 14.976379 -9.874023z" fill-rule="evenodd"/><path stroke="#fe6c66" stroke-width="1.0" stroke-linejoin="round" stroke-linecap="butt" d="m227.45572 264.63727l0 0c6.8622437 1.4089966 11.2829895 8.114136 9.874023 14.976379l0 0c-0.6766205 3.2953796 -2.6345978 6.186981 -5.443222 8.038727c-2.808609 1.8517151 -6.237793 2.5119019 -9.533157 1.8352966l0 0c-6.862259 -1.4089966 -11.283005 -8.114136 -9.874023 -14.976379l0 0c1.4089813 -6.8622437 8.114136 -11.2829895 14.976379 -9.874023z" fill-rule="evenodd"/><path fill="#2cc1ff" d="m150.23787 346.0105l0 0c0 7.001404 -5.6757507 12.677155 -12.67717 12.677155l0 0c-3.3621826 0 -6.58667 -1.3356018 -8.964096 -3.7130432c-2.3774338 -2.3774414 -3.7130585 -5.6019287 -3.7130585 -8.964111l0 0c0 -7.001404 5.6757507 -12.677155 12.677155 -12.677155l0 0c7.001419 0 12.67717 5.6757507 12.67717 12.677155z" fill-rule="evenodd"/><path stroke="#2cc1ff" stroke-width="1.0" stroke-linejoin="round" stroke-linecap="butt" d="m150.23787 346.0105l0 0c0 7.001404 -5.6757507 12.677155 -12.67717 12.677155l0 0c-3.3621826 0 -6.58667 -1.3356018 -8.964096 -3.7130432c-2.3774338 -2.3774414 -3.7130585 -5.6019287 -3.7130585 -8.964111l0 0c0 -7.001404 5.6757507 -12.677155 12.677155 -12.677155l0 0c7.001419 0 12.67717 5.6757507 12.67717 12.677155z" fill-rule="evenodd"/><path fill="#2cc1ff" d="m88.07383 451.73227l0 0c0 7.0014343 -5.6757584 12.677185 -12.677162 12.677185l0 0c-3.3621979 0 -6.586685 -1.3356323 -8.964111 -3.7130737c-2.3774338 -2.377411 -3.7130585 -5.601898 -3.7130585 -8.964111l0 0c0 -7.001404 5.6757584 -12.677155 12.67717 -12.677155l0 0c7.001404 0 12.677162 5.6757507 12.677162 12.677155z" fill-rule="evenodd"/><path stroke="#2cc1ff" stroke-width="1.0" stroke-linejoin="round" stroke-linecap="butt" d="m88.07383 451.73227l0 0c0 7.0014343 -5.6757584 12.677185 -12.677162 12.677185l0 0c-3.3621979 0 -6.586685 -1.3356323 -8.964111 -3.7130737c-2.3774338 -2.377411 -3.7130585 -5.601898 -3.7130585 -8.964111l0 0c0 -7.001404 5.6757584 -12.677155 12.67717 -12.677155l0 0c7.001404 0 12.677162 5.6757507 12.677162 12.677155z" fill-rule="evenodd"/><path fill="#2cc1ff" d="m201.59352 170.76903l0 0c0 7.001404 -5.675766 12.67717 -12.67717 12.67717l0 0c-3.3621979 0 -6.586685 -1.3356323 -8.964111 -3.7130585c-2.3774261 -2.3774261 -3.7130585 -5.6019135 -3.7130585 -8.964111l0 0c0 -7.001404 5.675766 -12.67717 12.67717 -12.67717l0 0c7.001404 0 12.67717 5.675766 12.67717 12.67717z" fill-rule="evenodd"/><path stroke="#2cc1ff" stroke-width="1.0" stroke-linejoin="round" stroke-linecap="butt" d="m201.59352 170.76903l0 0c0 7.001404 -5.675766 12.67717 -12.67717 12.67717l0 0c-3.3621979 0 -6.586685 -1.3356323 -8.964111 -3.7130585c-2.3774261 -2.3774261 -3.7130585 -5.6019135 -3.7130585 -8.964111l0 0c0 -7.001404 5.675766 -12.67717 12.67717 -12.67717l0 0c7.001404 0 12.67717 5.675766 12.67717 12.67717z" fill-rule="evenodd"/><path fill="#2cc1ff" d="m55.586952 209.11548l0 0c0 7.001419 -5.6757584 12.67717 -12.677162 12.67717l0 0c-3.362194 0 -6.5866814 -1.3356171 -8.964111 -3.7130585c-2.37743 -2.3774261 -3.7130566 -5.6019135 -3.7130566 -8.964111l0 0c0 -7.001404 5.6757603 -12.677155 12.677168 -12.677155l0 0c7.001404 0 12.677162 5.6757507 12.677162 12.677155z" fill-rule="evenodd"/><path stroke="#2cc1ff" stroke-width="1.0" stroke-linejoin="round" stroke-linecap="butt" d="m55.586952 209.11548l0 0c0 7.001419 -5.6757584 12.67717 -12.677162 12.67717l0 0c-3.362194 0 -6.5866814 -1.3356171 -8.964111 -3.7130585c-2.37743 -2.3774261 -3.7130566 -5.6019135 -3.7130566 -8.964111l0 0c0 -7.001404 5.6757603 -12.677155 12.677168 -12.677155l0 0c7.001404 0 12.677162 5.6757507 12.677162 12.677155z" fill-rule="evenodd"/><path fill="#fe6c66" d="m22.26903 283.34122l0 0c0 -7.001404 5.6757603 -12.677185 12.677164 -12.677185l0 0c3.362194 0 6.5866814 1.3356323 8.964111 3.7130737c2.37743 2.377411 3.7130547 5.601898 3.7130547 8.964111l0 0c0 7.001404 -5.675762 12.677155 -12.677166 12.677155l0 0c-7.001404 0 -12.677164 -5.6757507 -12.677164 -12.677155z" fill-rule="evenodd"/><path stroke="#fe6c66" stroke-width="1.0" stroke-linejoin="round" stroke-linecap="butt" d="m22.26903 283.34122l0 0c0 -7.001404 5.6757603 -12.677185 12.677164 -12.677185l0 0c3.362194 0 6.5866814 1.3356323 8.964111 3.7130737c2.37743 2.377411 3.7130547 5.601898 3.7130547 8.964111l0 0c0 7.001404 -5.675762 12.677155 -12.677166 12.677155l0 0c-7.001404 0 -12.677164 -5.6757507 -12.677164 -12.677155z" fill-rule="evenodd"/><path fill="#000000" fill-opacity="0.0" d="m201.59352 170.76903c35.156067 0 52.7334 1.4881897 70.31215 2.9763794c17.578735 1.4881897 35.158875 2.9763794 70.31778 2.9763794" fill-rule="evenodd"/><path stroke="#595959" stroke-width="3.0" stroke-linejoin="round" stroke-linecap="butt" d="m201.59352 170.76903c35.156067 0 52.7334 1.4881897 70.31215 2.9763794c17.578735 1.4881897 35.158875 2.9763794 70.31778 2.9763794" fill-rule="evenodd"/><path fill="#000000" fill-opacity="0.0" d="m279.5594 298.3937c15.6623535 0 23.494019 -30.425201 31.324707 -60.850403c7.830719 -30.425201 15.660492 -60.850388 31.320984 -60.850388" fill-rule="evenodd"/><path stroke="#595959" stroke-width="3.0" stroke-linejoin="round" stroke-linecap="butt" d="m279.5594 298.3937c15.6623535 0 23.494019 -30.425201 31.324707 -60.850403c7.830719 -30.425201 15.660492 -60.850388 31.320984 -60.850388" fill-rule="evenodd"/><path fill="#000000" fill-opacity="0.0" d="m85.52231 271.37323c64.250244 0 96.413864 -23.669296 128.50047 -47.338593c32.08661 -23.669281 64.09621 -47.338577 128.19243 -47.338577" fill-rule="evenodd"/><path stroke="#595959" stroke-width="3.0" stroke-linejoin="round" stroke-linecap="butt" d="m85.52231 271.37323c64.250244 0 96.413864 -23.669296 128.50047 -47.338593c32.08661 -23.669281 64.09621 -47.338577 128.19243 -47.338577" fill-rule="evenodd"/><path fill="#000000" fill-opacity="0.0" d="m135.58827 416.7349c51.65561 0 77.484436 -60.007874 103.31122 -120.01575c25.826767 -60.00786 51.651474 -120.01573 103.30296 -120.01573" fill-rule="evenodd"/><path stroke="#595959" stroke-width="3.0" stroke-linejoin="round" stroke-linecap="butt" d="m135.58827 416.7349c51.65561 0 77.484436 -60.007874 103.31122 -120.01575c25.826767 -60.00786 51.651474 -120.01573 103.30296 -120.01573" fill-rule="evenodd"/><path fill="#000000" fill-opacity="0.0" d="m55.586952 209.11548c71.64925 0 107.47172 -8.102356 143.2985 -16.204712c35.826782 -8.102371 71.65784 -16.204727 143.3157 -16.204727" fill-rule="evenodd"/><path stroke="#595959" stroke-width="3.0" stroke-linejoin="round" stroke-linecap="butt" d="m55.586952 209.11548c71.64925 0 107.47172 -8.102356 143.2985 -16.204712c35.826782 -8.102371 71.65784 -16.204727 143.3157 -16.204727" fill-rule="evenodd"/><path fill="#000000" fill-opacity="0.0" d="m82.98905 332.5851c64.87443 0 97.3473 -38.968506 129.74887 -77.937c32.40158 -38.968506 64.73187 -77.93701 129.46375 -77.93701" fill-rule="evenodd"/><path stroke="#595959" stroke-width="3.0" stroke-linejoin="round" stroke-linecap="butt" d="m82.98905 332.5851c64.87443 0 97.3473 -38.968506 129.74887 -77.937c32.40158 -38.968506 64.73187 -77.93701 129.46375 -77.93701" fill-rule="evenodd"/><path fill="#000000" fill-opacity="0.0" d="m158.75197 282.6916c45.867065 0 68.80104 20.149628 91.734116 40.299225c22.933075 20.149597 45.865234 40.299225 91.73044 40.299225" fill-rule="evenodd"/><path stroke="#595959" stroke-width="3.0" stroke-linejoin="round" stroke-linecap="butt" d="m158.75197 282.6916c45.867065 0 68.80104 20.149628 91.734116 40.299225c22.933075 20.149597 45.865234 40.299225 91.73044 40.299225" fill-rule="evenodd"/><path fill="#000000" fill-opacity="0.0" d="m107.59843 303.41077c58.65589 0 87.98501 14.968506 117.311775 29.937012c29.326767 14.968506 58.6512 29.937012 117.30238 29.937012" fill-rule="evenodd"/><path stroke="#595959" stroke-width="3.0" stroke-linejoin="round" stroke-linecap="butt" d="m107.59843 303.41077c58.65589 0 87.98501 14.968506 117.311775 29.937012c29.326767 14.968506 58.6512 29.937012 117.30238 29.937012" fill-rule="evenodd"/><path fill="#000000" fill-opacity="0.0" d="m247.36649 359.62204c23.71054 0 35.566772 0.92126465 47.421112 1.8425293c11.85434 0.92126465 23.706757 1.8425293 47.413544 1.8425293" fill-rule="evenodd"/><path stroke="#595959" stroke-width="3.0" stroke-linejoin="round" stroke-linecap="butt" d="m247.36649 359.62204c23.71054 0 35.566772 0.92126465 47.421112 1.8425293c11.85434 0.92126465 23.706757 1.8425293 47.413544 1.8425293" fill-rule="evenodd"/><path fill="#000000" fill-opacity="0.0" d="m178.69588 470.3622c40.878616 0 61.3163 -26.771667 81.75725 -53.543304c20.440948 -26.771667 40.885162 -53.543304 81.770325 -53.543304" fill-rule="evenodd"/><path stroke="#595959" stroke-width="3.0" stroke-linejoin="round" stroke-linecap="butt" d="m178.69588 470.3622c40.878616 0 61.3163 -26.771667 81.75725 -53.543304c20.440948 -26.771667 40.885162 -53.543304 81.770325 -53.543304" fill-rule="evenodd"/><path fill="#000000" fill-opacity="0.0" d="m279.5594 298.3937c15.6623535 0 23.494019 16.228333 31.324707 32.456696c7.830719 16.228333 15.660492 32.456696 31.320984 32.456696" fill-rule="evenodd"/><path stroke="#595959" stroke-width="3.0" stroke-linejoin="round" stroke-linecap="butt" d="m279.5594 298.3937c15.6623535 0 23.494019 16.228333 31.324707 32.456696c7.830719 16.228333 15.660492 32.456696 31.320984 32.456696" fill-rule="evenodd"/><path fill="#000000" fill-opacity="0.0" d="m96.11942 404.04987c61.51722 0 92.274605 -10.188965 123.03445 -20.37796c30.759842 -10.188965 61.522156 -20.37793 123.04428 -20.37793" fill-rule="evenodd"/><path stroke="#595959" stroke-width="3.0" stroke-linejoin="round" stroke-linecap="butt" d="m96.11942 404.04987c61.51722 0 92.274605 -10.188965 123.03445 -20.37796c30.759842 -10.188965 61.522156 -20.37793 123.04428 -20.37793" fill-rule="evenodd"/></g></svg>