<svg version="1.1" viewBox="0.0 0.0 960.0 540.0" fill="none" stroke="none" stroke-linecap="square" stroke-miterlimit="10" xmlns:xlink="http://www.w3.org/1999/xlink" xmlns="http://www.w3.org/2000/svg"><clipPath id="g2b58d2ff7db_0_175.0"><path d="m0 0l960.0 0l0 540.0l-960.0 0l0 -540.0z" clip-rule="nonzero"/></clipPath><g clip-path="url(#g2b58d2ff7db_0_175.0)"><path fill="#000000" fill-opacity="0.0" d="m0 0l960.0 0l0 540.0l-960.0 0z" fill-rule="evenodd"/><path fill="#fe6c66" d="m87.221214 186.91077l191.9942 0c4.8828125E-4 0 9.460449E-4 1.8310547E-4 0.0012817383 5.340576E-4c3.3569336E-4 3.3569336E-4 5.493164E-4 8.087158E-4 5.493164E-4 0.0012969971l-0.0018310547 138.44907c0 15.293213 -12.397614 27.690826 -27.690857 27.690826l-191.99419 0l0 0c-0.0010108948 0 -0.0018310547 -8.239746E-4 -0.0018310547 -0.0018310547l0.0018310547 -138.44905l0 0c0 -15.293228 12.39761 -27.690842 27.690838 -27.690842z" fill-rule="evenodd"/><path stroke="#fe6c66" stroke-width="8.0" stroke-linejoin="round" stroke-linecap="butt" d="m87.221214 186.91077l191.9942 0c4.8828125E-4 0 9.460449E-4 1.8310547E-4 0.0012817383 5.340576E-4c3.3569336E-4 3.3569336E-4 5.493164E-4 8.087158E-4 5.493164E-4 0.0012969971l-0.0018310547 138.44907c0 15.293213 -12.397614 27.690826 -27.690857 27.690826l-191.99419 0l0 0c-0.0010108948 0 -0.0018310547 -8.239746E-4 -0.0018310547 -0.0018310547l0.0018310547 -138.44905l0 0c0 -15.293228 12.39761 -27.690842 27.690838 -27.690842z" fill-rule="evenodd"/><path fill="#ffffff" d="m130.5485 278.52164l0 -17.28125l2.890625 0l0 17.28125l-2.890625 0zm15.45079 0l0 -6.234375q0 -0.625 -0.09375 -1.359375q-0.078125 -0.75 -0.390625 -1.4375q-0.296875 -0.6875 -0.90625 -1.125q-0.59375 -0.453125 -1.625 -0.453125q-0.5625 0 -1.109375 0.1875q-0.53125 0.171875 -0.96875 0.609375q-0.4375 0.4375 -0.703125 1.203125q-0.265625 0.765625 -0.265625 1.953125l-1.703125 -0.734375q0 -1.65625 0.640625 -3.0q0.640625 -1.34375 1.875 -2.140625q1.25 -0.796875 3.078125 -0.796875q1.4375 0 2.375 0.484375q0.9375 0.46875 1.484375 1.21875q0.5625 0.734375 0.828125 1.578125q0.265625 0.84375 0.34375 1.59375q0.078125 0.75 0.078125 1.21875l0 7.234375l-2.9375 0zm-8.984375 0l0 -12.953125l2.578125 0l0 4.015625l0.34375 0l0 8.9375l-2.921875 0zm23.996475 0l0 -6.234375q0 -0.625 -0.09375 -1.359375q-0.078125 -0.75 -0.390625 -1.4375q-0.296875 -0.6875 -0.90625 -1.125q-0.59375 -0.453125 -1.625 -0.453125q-0.5625 0 -1.109375 0.1875q-0.53125 0.171875 -0.96875 0.609375q-0.4375 0.4375 -0.703125 1.203125q-0.265625 0.765625 -0.265625 1.953125l-1.703125 -0.734375q0 -1.65625 0.640625 -3.0q0.640625 -1.34375 1.875 -2.140625q1.25 -0.796875 3.078125 -0.796875q1.4375 0 2.375 0.484375q0.9375 0.46875 1.484375 1.21875q0.5625 0.734375 0.828125 1.578125q0.265625 0.84375 0.34375 1.59375q0.078125 0.75 0.078125 1.21875l0 7.234375l-2.9375 0zm-8.984375 0l0 -17.28125l2.578125 0l0 9.09375l0.34375 0l0 8.1875l-2.921875 0zm18.652725 0.359375q-1.390625 0 -2.375 -0.53125q-0.96875 -0.53125 -1.46875 -1.421875q-0.5 -0.890625 -0.5 -1.953125q0 -0.9375 0.3125 -1.6875q0.3125 -0.75 0.953125 -1.296875q0.65625 -0.546875 1.6875 -0.890625q0.78125 -0.265625 1.828125 -0.46875q1.0625 -0.203125 2.28125 -0.375q1.234375 -0.171875 2.578125 -0.375l-1.03125 0.59375q0.015625 -1.34375 -0.59375 -1.984375q-0.609375 -0.640625 -2.0625 -0.640625q-0.875 0 -1.703125 0.40625q-0.8125 0.40625 -1.140625 1.40625l-2.640625 -0.828125q0.484375 -1.640625 1.828125 -2.625q1.359375 -1.0 3.65625 -1.0q1.71875 0 3.03125 0.5625q1.3125 0.5625 1.953125 1.84375q0.34375 0.6875 0.421875 1.40625q0.078125 0.703125 0.078125 1.546875l0 7.953125l-2.53125 0l0 -2.8125l0.40625 0.453125q-0.875 1.40625 -2.046875 2.0625q-1.15625 0.65625 -2.921875 0.65625zm0.578125 -2.296875q0.984375 0 1.671875 -0.34375q0.703125 -0.359375 1.109375 -0.859375q0.421875 -0.5 0.578125 -0.953125q0.21875 -0.546875 0.25 -1.265625q0.03125 -0.71875 0.03125 -1.15625l0.890625 0.265625q-1.3125 0.203125 -2.25 0.359375q-0.9375 0.15625 -1.609375 0.296875q-0.671875 0.140625 -1.1875 0.296875q-0.5 0.1875 -0.859375 0.4375q-0.34375 0.234375 -0.53125 0.546875q-0.171875 0.296875 -0.171875 0.71875q0 0.484375 0.234375 0.859375q0.234375 0.359375 0.703125 0.578125q0.46875 0.21875 1.140625 0.21875zm9.870972 1.9375l0 -17.640625l2.890625 0l0 17.640625l-2.890625 0zm14.091415 0q-1.296875 0.234375 -2.53125 0.203125q-1.21875 -0.015625 -2.1875 -0.4375q-0.96875 -0.4375 -1.484375 -1.359375q-0.4375 -0.84375 -0.46875 -1.71875q-0.015625 -0.875 -0.015625 -1.984375l0 -11.265625l2.875 0l0 11.109375q0 0.765625 0.015625 1.359375q0.03125 0.59375 0.25 0.96875q0.4375 0.71875 1.375 0.796875q0.953125 0.078125 2.171875 -0.09375l0 2.421875zm-9.046875 -10.6875l0 -2.265625l9.046875 0l0 2.265625l-9.046875 0zm17.07582 11.046875q-1.96875 0 -3.46875 -0.84375q-1.484375 -0.859375 -2.328125 -2.375q-0.828125 -1.515625 -0.828125 -3.484375q0 -2.109375 0.8125 -3.671875q0.828125 -1.578125 2.28125 -2.4375q1.453125 -0.859375 3.359375 -0.859375q2.015625 0 3.421875 0.9375q1.40625 0.9375 2.09375 2.65625q0.6875 1.71875 0.515625 4.046875l-2.859375 0l0 -1.0625q-0.015625 -2.109375 -0.75 -3.078125q-0.734375 -0.96875 -2.296875 -0.96875q-1.78125 0 -2.65625 1.09375q-0.859375 1.09375 -0.859375 3.203125q0 1.96875 0.859375 3.046875q0.875 1.078125 2.53125 1.078125q1.0625 0 1.828125 -0.46875q0.78125 -0.46875 1.203125 -1.375l2.859375 0.859375q-0.75 1.765625 -2.3125 2.734375q-1.546875 0.96875 -3.40625 0.96875zm-4.46875 -6.03125l0 -2.1875l8.921875 0l0 2.1875l-8.921875 0z" fill-rule="nonzero"/><path fill="#fe6c66" d="m397.8489 186.94708l191.99417 0c4.8828125E-4 0 9.765625E-4 1.8310547E-4 0.0013427734 5.340576E-4c3.0517578E-4 3.3569336E-4 4.8828125E-4 8.087158E-4 4.8828125E-4 0.0012969971l-0.0018310547 138.44907c0 15.293213 -12.397583 27.690826 -27.690796 27.690826l-191.99423 0l0 0c-0.0010070801 0 -0.0018310547 -8.239746E-4 -0.0018310547 -0.0018310547l0.0018310547 -138.44905l0 0c0 -15.293228 12.397614 -27.690842 27.690857 -27.690842z" fill-rule="evenodd"/><path stroke="#fe6c66" stroke-width="8.0" stroke-linejoin="round" stroke-linecap="butt" d="m397.8489 186.94708l191.99417 0c4.8828125E-4 0 9.765625E-4 1.8310547E-4 0.0013427734 5.340576E-4c3.0517578E-4 3.3569336E-4 4.8828125E-4 8.087158E-4 4.8828125E-4 0.0012969971l-0.0018310547 138.44907c0 15.293213 -12.397583 27.690826 -27.690796 27.690826l-191.99423 0l0 0c-0.0010070801 0 -0.0018310547 -8.239746E-4 -0.0018310547 -0.0018310547l0.0018310547 -138.44905l0 0c0 -15.293228 12.397614 -27.690842 27.690857 -27.690842z" fill-rule="evenodd"/><path fill="#ffffff" d="m405.93237 278.91733q-2.59375 0 -4.4375 -1.125q-1.84375 -1.140625 -2.84375 -3.171875q-0.984375 -2.03125 -0.984375 -4.703125q0 -2.671875 0.984375 -4.703125q1.0 -2.03125 2.84375 -3.15625q1.84375 -1.140625 4.4375 -1.140625q2.984375 0 4.96875 1.5q2.0 1.484375 2.8125 4.015625l-2.921875 0.8125q-0.5 -1.703125 -1.71875 -2.65625q-1.203125 -0.953125 -3.140625 -0.953125q-1.734375 0 -2.890625 0.78125q-1.15625 0.78125 -1.75 2.203125q-0.578125 1.40625 -0.59375 3.296875q0 1.890625 0.578125 3.3125q0.59375 1.40625 1.75 2.1875q1.171875 0.78125 2.90625 0.78125q1.9375 0 3.140625 -0.953125q1.21875 -0.96875 1.71875 -2.65625l2.921875 0.8125q-0.8125 2.53125 -2.8125 4.03125q-1.984375 1.484375 -4.96875 1.484375zm16.145996 0q-1.953125 0 -3.40625 -0.875q-1.4375 -0.875 -2.25 -2.40625q-0.796875 -1.546875 -0.796875 -3.5625q0 -2.03125 0.8125 -3.5625q0.828125 -1.546875 2.28125 -2.40625q1.453125 -0.859375 3.359375 -0.859375q1.953125 0 3.40625 0.875q1.453125 0.875 2.25 2.421875q0.8125 1.53125 0.8125 3.53125q0 2.015625 -0.8125 3.5625q-0.8125 1.546875 -2.265625 2.421875q-1.453125 0.859375 -3.390625 0.859375zm0 -2.71875q1.71875 0 2.5625 -1.140625q0.84375 -1.15625 0.84375 -2.984375q0 -1.875 -0.859375 -3.0q-0.84375 -1.125 -2.546875 -1.125q-1.171875 0 -1.921875 0.53125q-0.75 0.515625 -1.109375 1.453125q-0.359375 0.921875 -0.359375 2.140625q0 1.890625 0.859375 3.015625q0.859375 1.109375 2.53125 1.109375zm18.066467 2.359375l0 -6.234375q0 -0.625 -0.09375 -1.359375q-0.078125 -0.75 -0.390625 -1.4375q-0.296875 -0.6875 -0.90625 -1.125q-0.59375 -0.453125 -1.625 -0.453125q-0.5625 0 -1.109375 0.1875q-0.53125 0.171875 -0.96875 0.609375q-0.4375 0.4375 -0.703125 1.203125q-0.265625 0.765625 -0.265625 1.953125l-1.703125 -0.734375q0 -1.65625 0.640625 -3.0q0.640625 -1.34375 1.875 -2.140625q1.25 -0.796875 3.078125 -0.796875q1.4375 0 2.375 0.484375q0.9375 0.46875 1.484375 1.21875q0.5625 0.734375 0.828125 1.578125q0.265625 0.84375 0.34375 1.59375q0.078125 0.75 0.078125 1.21875l0 7.234375l-2.9375 0zm-8.984375 0l0 -12.953125l2.578125 0l0 4.015625l0.34375 0l0 8.9375l-2.921875 0zm22.637115 0q-1.296875 0.234375 -2.53125 0.203125q-1.21875 -0.015625 -2.1875 -0.4375q-0.96875 -0.4375 -1.484375 -1.359375q-0.4375 -0.84375 -0.46875 -1.71875q-0.015625 -0.875 -0.015625 -1.984375l0 -11.265625l2.875 0l0 11.109375q0 0.765625 0.015625 1.359375q0.03125 0.59375 0.25 0.96875q0.4375 0.71875 1.375 0.796875q0.953125 0.078125 2.171875 -0.09375l0 2.421875zm-9.046875 -10.6875l0 -2.265625l9.046875 0l0 2.265625l-9.046875 0zm17.075806 11.046875q-1.96875 0 -3.46875 -0.84375q-1.484375 -0.859375 -2.328125 -2.375q-0.828125 -1.515625 -0.828125 -3.484375q0 -2.109375 0.8125 -3.671875q0.828125 -1.578125 2.28125 -2.4375q1.453125 -0.859375 3.359375 -0.859375q2.015625 0 3.421875 0.9375q1.40625 0.9375 2.09375 2.65625q0.6875 1.71875 0.515625 4.046875l-2.859375 0l0 -1.0625q-0.015625 -2.109375 -0.75 -3.078125q-0.734375 -0.96875 -2.296875 -0.96875q-1.78125 0 -2.65625 1.09375q-0.859375 1.09375 -0.859375 3.203125q0 1.96875 0.859375 3.046875q0.875 1.078125 2.53125 1.078125q1.0625 0 1.828125 -0.46875q0.78125 -0.46875 1.203125 -1.375l2.859375 0.859375q-0.75 1.765625 -2.3125 2.734375q-1.546875 0.96875 -3.40625 0.96875zm-4.46875 -6.03125l0 -2.1875l8.921875 0l0 2.1875l-8.921875 0zm21.619354 5.671875l0 -6.234375q0 -0.625 -0.09375 -1.359375q-0.078125 -0.75 -0.390625 -1.4375q-0.296875 -0.6875 -0.90625 -1.125q-0.59375 -0.453125 -1.625 -0.453125q-0.5625 0 -1.109375 0.1875q-0.53125 0.171875 -0.96875 0.609375q-0.4375 0.4375 -0.703125 1.203125q-0.265625 0.765625 -0.265625 1.953125l-1.703125 -0.734375q0 -1.65625 0.640625 -3.0q0.640625 -1.34375 1.875 -2.140625q1.25 -0.796875 3.078125 -0.796875q1.4375 0 2.375 0.484375q0.9375 0.46875 1.484375 1.21875q0.5625 0.734375 0.828125 1.578125q0.265625 0.84375 0.34375 1.59375q0.078125 0.75 0.078125 1.21875l0 7.234375l-2.9375 0zm-8.984375 0l0 -12.953125l2.578125 0l0 4.015625l0.34375 0l0 8.9375l-2.921875 0zm22.637115 0q-1.296875 0.234375 -2.53125 0.203125q-1.21875 -0.015625 -2.1875 -0.4375q-0.96875 -0.4375 -1.484375 -1.359375q-0.4375 -0.84375 -0.46875 -1.71875q-0.015625 -0.875 -0.015625 -1.984375l0 -11.265625l2.875 0l0 11.109375q0 0.765625 0.015625 1.359375q0.03125 0.59375 0.25 0.96875q0.4375 0.71875 1.375 0.796875q0.953125 0.078125 2.171875 -0.09375l0 2.421875zm-9.046875 -10.6875l0 -2.265625l9.046875 0l0 2.265625l-9.046875 0zm16.645233 10.6875l0 -17.28125l7.125 0q0.265625 0 0.65625 0.015625q0.390625 0.015625 0.734375 0.078125q1.5 0.234375 2.46875 1.0q0.984375 0.765625 1.453125 1.9375q0.484375 1.171875 0.484375 2.59375q0 1.421875 -0.484375 2.59375q-0.484375 1.171875 -1.46875 1.9375q-0.96875 0.765625 -2.453125 1.0q-0.34375 0.046875 -0.75 0.078125q-0.390625 0.015625 -0.640625 0.015625l-4.234375 0l0 6.03125l-2.890625 0zm2.890625 -8.734375l4.125 0q0.234375 0 0.53125 -0.015625q0.3125 -0.03125 0.5625 -0.109375q0.71875 -0.171875 1.125 -0.625q0.421875 -0.46875 0.59375 -1.03125q0.171875 -0.578125 0.171875 -1.140625q0 -0.546875 -0.171875 -1.125q-0.171875 -0.59375 -0.59375 -1.046875q-0.40625 -0.453125 -1.125 -0.625q-0.25 -0.078125 -0.5625 -0.09375q-0.296875 -0.015625 -0.53125 -0.015625l-4.125 0l0 5.828125zm17.948242 9.09375q-1.953125 0 -3.40625 -0.875q-1.4375 -0.875 -2.25 -2.40625q-0.796875 -1.546875 -0.796875 -3.5625q0 -2.03125 0.8125 -3.5625q0.828125 -1.546875 2.28125 -2.40625q1.453125 -0.859375 3.359375 -0.859375q1.953125 0 3.40625 0.875q1.453125 0.875 2.25 2.421875q0.8125 1.53125 0.8125 3.53125q0 2.015625 -0.8125 3.5625q-0.8125 1.546875 -2.265625 2.421875q-1.453125 0.859375 -3.390625 0.859375zm0 -2.71875q1.71875 0 2.5625 -1.140625q0.84375 -1.15625 0.84375 -2.984375q0 -1.875 -0.859375 -3.0q-0.84375 -1.125 -2.546875 -1.125q-1.171875 0 -1.921875 0.53125q-0.75 0.515625 -1.109375 1.453125q-0.359375 0.921875 -0.359375 2.140625q0 1.890625 0.859375 3.015625q0.859375 1.109375 2.53125 1.109375zm14.832092 2.71875q-1.953125 0 -3.40625 -0.875q-1.4375 -0.875 -2.25 -2.40625q-0.796875 -1.546875 -0.796875 -3.5625q0 -2.03125 0.8125 -3.5625q0.828125 -1.546875 2.28125 -2.40625q1.453125 -0.859375 3.359375 -0.859375q1.953125 0 3.40625 0.875q1.453125 0.875 2.25 2.421875q0.8125 1.53125 0.8125 3.53125q0 2.015625 -0.8125 3.5625q-0.8125 1.546875 -2.265625 2.421875q-1.453125 0.859375 -3.390625 0.859375zm0 -2.71875q1.71875 0 2.5625 -1.140625q0.84375 -1.15625 0.84375 -2.984375q0 -1.875 -0.859375 -3.0q-0.84375 -1.125 -2.546875 -1.125q-1.171875 0 -1.921875 0.53125q-0.75 0.515625 -1.109375 1.453125q-0.359375 0.921875 -0.359375 2.140625q0 1.890625 0.859375 3.015625q0.859375 1.109375 2.53125 1.109375zm9.347778 2.359375l0 -17.640625l2.890625 0l0 17.640625l-2.890625 0zm11.49762 0.359375q-2.40625 0 -3.90625 -1.078125q-1.5 -1.078125 -1.828125 -3.03125l2.953125 -0.46875q0.234375 0.96875 1.015625 1.53125q0.78125 0.546875 1.96875 0.546875q1.046875 0 1.609375 -0.40625q0.578125 -0.421875 0.578125 -1.15625q0 -0.4375 -0.21875 -0.703125q-0.203125 -0.28125 -0.921875 -0.53125q-0.703125 -0.25 -2.171875 -0.625q-1.625 -0.4375 -2.59375 -0.9375q-0.953125 -0.5 -1.375 -1.171875q-0.421875 -0.6875 -0.421875 -1.671875q0 -1.203125 0.640625 -2.09375q0.640625 -0.90625 1.78125 -1.390625q1.140625 -0.484375 2.6875 -0.484375q1.5 0 2.671875 0.46875q1.171875 0.453125 1.890625 1.328125q0.71875 0.859375 0.890625 2.03125l-2.953125 0.515625q-0.109375 -0.828125 -0.75 -1.296875q-0.640625 -0.484375 -1.703125 -0.546875q-1.015625 -0.0625 -1.640625 0.3125q-0.625 0.359375 -0.625 1.015625q0 0.375 0.25 0.640625q0.25 0.265625 1.0 0.53125q0.765625 0.265625 2.28125 0.640625q1.546875 0.40625 2.46875 0.921875q0.9375 0.5 1.34375 1.203125q0.421875 0.703125 0.421875 1.71875q0 1.953125 -1.421875 3.078125q-1.421875 1.109375 -3.921875 1.109375z" fill-rule="nonzero"/><path fill="#fe6c66" d="m708.4766 186.94708l191.99414 0c4.8828125E-4 0 9.765625E-4 1.8310547E-4 0.0013427734 5.340576E-4c3.0517578E-4 3.3569336E-4 4.8828125E-4 8.087158E-4 4.8828125E-4 0.0012969971l-0.0018310547 138.44907c0 15.293213 -12.397583 27.690826 -27.690796 27.690826l-191.9942 0l0 0c-0.0010375977 0 -0.0018310547 -8.239746E-4 -0.0018310547 -0.0018310547l0.0018310547 -138.44905l0 0c0 -15.293228 12.397583 -27.690842 27.690857 -27.690842z" fill-rule="evenodd"/><path stroke="#fe6c66" stroke-width="8.0" stroke-linejoin="round" stroke-linecap="butt" d="m708.4766 186.94708l191.99414 0c4.8828125E-4 0 9.765625E-4 1.8310547E-4 0.0013427734 5.340576E-4c3.0517578E-4 3.3569336E-4 4.8828125E-4 8.087158E-4 4.8828125E-4 0.0012969971l-0.0018310547 138.44907c0 15.293213 -12.397583 27.690826 -27.690796 27.690826l-191.9942 0l0 0c-0.0010375977 0 -0.0018310547 -8.239746E-4 -0.0018310547 -0.0018310547l0.0018310547 -138.44905l0 0c0 -15.293228 12.397583 -27.690842 27.690857 -27.690842z" fill-rule="evenodd"/><path fill="#ffffff" d="m712.71356 278.55795l0 -17.28125l2.890625 0l0 17.28125l-2.890625 0zm15.450806 0l0 -6.234375q0 -0.625 -0.09375 -1.359375q-0.078125 -0.75 -0.390625 -1.4375q-0.296875 -0.6875 -0.90625 -1.125q-0.59375 -0.453125 -1.625 -0.453125q-0.5625 0 -1.109375 0.1875q-0.53125 0.171875 -0.96875 0.609375q-0.4375 0.4375 -0.703125 1.203125q-0.265625 0.765625 -0.265625 1.953125l-1.703125 -0.734375q0 -1.65625 0.640625 -3.0q0.640625 -1.34375 1.875 -2.140625q1.25 -0.796875 3.078125 -0.796875q1.4375 0 2.375 0.484375q0.9375 0.46875 1.484375 1.21875q0.5625 0.734375 0.828125 1.578125q0.265625 0.84375 0.34375 1.59375q0.078125 0.75 0.078125 1.21875l0 7.234375l-2.9375 0zm-8.984375 0l0 -12.953125l2.578125 0l0 4.015625l0.34375 0l0 8.9375l-2.921875 0zm22.637085 0q-1.296875 0.234375 -2.53125 0.203125q-1.21875 -0.015625 -2.1875 -0.4375q-0.96875 -0.4375 -1.484375 -1.359375q-0.4375 -0.84375 -0.46875 -1.71875q-0.015625 -0.875 -0.015625 -1.984375l0 -11.265625l2.875 0l0 11.109375q0 0.765625 0.015625 1.359375q0.03125 0.59375 0.25 0.96875q0.4375 0.71875 1.375 0.796875q0.953125 0.078125 2.171875 -0.09375l0 2.421875zm-9.046875 -10.6875l0 -2.265625l9.046875 0l0 2.265625l-9.046875 0zm17.075867 11.046875q-1.96875 0 -3.46875 -0.84375q-1.484375 -0.859375 -2.328125 -2.375q-0.828125 -1.515625 -0.828125 -3.484375q0 -2.109375 0.8125 -3.671875q0.828125 -1.578125 2.28125 -2.4375q1.453125 -0.859375 3.359375 -0.859375q2.015625 0 3.421875 0.9375q1.40625 0.9375 2.09375 2.65625q0.6875 1.71875 0.515625 4.046875l-2.859375 0l0 -1.0625q-0.015625 -2.109375 -0.75 -3.078125q-0.734375 -0.96875 -2.296875 -0.96875q-1.78125 0 -2.65625 1.09375q-0.859375 1.09375 -0.859375 3.203125q0 1.96875 0.859375 3.046875q0.875 1.078125 2.53125 1.078125q1.0625 0 1.828125 -0.46875q0.78125 -0.46875 1.203125 -1.375l2.859375 0.859375q-0.75 1.765625 -2.3125 2.734375q-1.546875 0.96875 -3.40625 0.96875zm-4.46875 -6.03125l0 -2.1875l8.921875 0l0 2.1875l-8.921875 0zm18.463684 11.796875q-1.078125 0 -2.078125 -0.34375q-0.984375 -0.328125 -1.78125 -0.96875q-0.78125 -0.625 -1.28125 -1.515625l2.65625 -1.3125q0.375 0.703125 1.046875 1.046875q0.6875 0.34375 1.453125 0.34375q0.90625 0 1.609375 -0.328125q0.703125 -0.3125 1.09375 -0.9375q0.390625 -0.609375 0.375 -1.53125l0 -3.6875l0.359375 0l0 -9.84375l2.53125 0l0 13.578125q0 0.484375 -0.046875 0.9375q-0.046875 0.453125 -0.140625 0.890625q-0.28125 1.25 -1.109375 2.0625q-0.8125 0.8125 -2.015625 1.203125q-1.203125 0.40625 -2.671875 0.40625zm-0.25 -5.765625q-1.78125 0 -3.125 -0.890625q-1.328125 -0.90625 -2.0625 -2.453125q-0.734375 -1.546875 -0.734375 -3.5q0 -1.96875 0.734375 -3.5q0.75 -1.546875 2.09375 -2.4375q1.359375 -0.890625 3.203125 -0.890625q1.84375 0 3.09375 0.890625q1.265625 0.890625 1.90625 2.4375q0.65625 1.546875 0.65625 3.5q0 1.9375 -0.65625 3.5q-0.640625 1.546875 -1.9375 2.453125q-1.28125 0.890625 -3.171875 0.890625zm0.4375 -2.59375q1.171875 0 1.875 -0.53125q0.71875 -0.53125 1.046875 -1.484375q0.34375 -0.96875 0.34375 -2.234375q0 -1.265625 -0.34375 -2.21875q-0.328125 -0.953125 -1.03125 -1.484375q-0.6875 -0.546875 -1.78125 -0.546875q-1.171875 0 -1.9375 0.578125q-0.75 0.5625 -1.109375 1.53125q-0.359375 0.96875 -0.359375 2.140625q0 1.1875 0.359375 2.15625q0.359375 0.96875 1.078125 1.53125q0.734375 0.5625 1.859375 0.5625zm9.159119 2.234375l0 -12.953125l2.546875 0l0 3.15625l-0.3125 -0.421875q0.234375 -0.640625 0.640625 -1.171875q0.40625 -0.53125 0.96875 -0.890625q0.484375 -0.3125 1.0625 -0.5q0.578125 -0.1875 1.1875 -0.234375q0.625 -0.046875 1.1875 0.0625l0 2.6875q-0.5625 -0.15625 -1.3125 -0.09375q-0.75 0.046875 -1.359375 0.40625q-0.59375 0.328125 -0.984375 0.84375q-0.375 0.5 -0.5625 1.140625q-0.171875 0.640625 -0.171875 1.375l0 6.59375l-2.890625 0zm12.885437 0.359375q-1.390625 0 -2.375 -0.53125q-0.96875 -0.53125 -1.46875 -1.421875q-0.5 -0.890625 -0.5 -1.953125q0 -0.9375 0.3125 -1.6875q0.3125 -0.75 0.953125 -1.296875q0.65625 -0.546875 1.6875 -0.890625q0.78125 -0.265625 1.828125 -0.46875q1.0625 -0.203125 2.28125 -0.375q1.234375 -0.171875 2.578125 -0.375l-1.03125 0.59375q0.015625 -1.34375 -0.59375 -1.984375q-0.609375 -0.640625 -2.0625 -0.640625q-0.875 0 -1.703125 0.40625q-0.8125 0.40625 -1.140625 1.40625l-2.640625 -0.828125q0.484375 -1.640625 1.828125 -2.625q1.359375 -1.0 3.65625 -1.0q1.71875 0 3.03125 0.5625q1.3125 0.5625 1.953125 1.84375q0.34375 0.6875 0.421875 1.40625q0.078125 0.703125 0.078125 1.546875l0 7.953125l-2.53125 0l0 -2.8125l0.40625 0.453125q-0.875 1.40625 -2.046875 2.0625q-1.15625 0.65625 -2.921875 0.65625zm0.578125 -2.296875q0.984375 0 1.671875 -0.34375q0.703125 -0.359375 1.109375 -0.859375q0.421875 -0.5 0.578125 -0.953125q0.21875 -0.546875 0.25 -1.265625q0.03125 -0.71875 0.03125 -1.15625l0.890625 0.265625q-1.3125 0.203125 -2.25 0.359375q-0.9375 0.15625 -1.609375 0.296875q-0.671875 0.140625 -1.1875 0.296875q-0.5 0.1875 -0.859375 0.4375q-0.34375 0.234375 -0.53125 0.546875q-0.171875 0.296875 -0.171875 0.71875q0 0.484375 0.234375 0.859375q0.234375 0.359375 0.703125 0.578125q0.46875 0.21875 1.140625 0.21875zm17.230347 1.9375q-1.296875 0.234375 -2.53125 0.203125q-1.21875 -0.015625 -2.1875 -0.4375q-0.96875 -0.4375 -1.484375 -1.359375q-0.4375 -0.84375 -0.46875 -1.71875q-0.015625 -0.875 -0.015625 -1.984375l0 -11.265625l2.875 0l0 11.109375q0 0.765625 0.015625 1.359375q0.03125 0.59375 0.25 0.96875q0.4375 0.71875 1.375 0.796875q0.953125 0.078125 2.171875 -0.09375l0 2.421875zm-9.046875 -10.6875l0 -2.265625l9.046875 0l0 2.265625l-9.046875 0zm12.07959 -4.234375l0 -2.65625l2.890625 0l0 2.65625l-2.890625 0zm0 14.921875l0 -12.953125l2.890625 0l0 12.953125l-2.890625 0zm12.216431 0.359375q-1.953125 0 -3.40625 -0.875q-1.4375 -0.875 -2.25 -2.40625q-0.796875 -1.546875 -0.796875 -3.5625q0 -2.03125 0.8125 -3.5625q0.828125 -1.546875 2.28125 -2.40625q1.453125 -0.859375 3.359375 -0.859375q1.953125 0 3.40625 0.875q1.453125 0.875 2.25 2.421875q0.8125 1.53125 0.8125 3.53125q0 2.015625 -0.8125 3.5625q-0.8125 1.546875 -2.265625 2.421875q-1.453125 0.859375 -3.390625 0.859375zm0 -2.71875q1.71875 0 2.5625 -1.140625q0.84375 -1.15625 0.84375 -2.984375q0 -1.875 -0.859375 -3.0q-0.84375 -1.125 -2.546875 -1.125q-1.171875 0 -1.921875 0.53125q-0.75 0.515625 -1.109375 1.453125q-0.359375 0.921875 -0.359375 2.140625q0 1.890625 0.859375 3.015625q0.859375 1.109375 2.53125 1.109375zm18.066467 2.359375l0 -6.234375q0 -0.625 -0.09375 -1.359375q-0.078125 -0.75 -0.390625 -1.4375q-0.296875 -0.6875 -0.90625 -1.125q-0.59375 -0.453125 -1.625 -0.453125q-0.5625 0 -1.109375 0.1875q-0.53125 0.171875 -0.96875 0.609375q-0.4375 0.4375 -0.703125 1.203125q-0.265625 0.765625 -0.265625 1.953125l-1.703125 -0.734375q0 -1.65625 0.640625 -3.0q0.640625 -1.34375 1.875 -2.140625q1.25 -0.796875 3.078125 -0.796875q1.4375 0 2.375 0.484375q0.9375 0.46875 1.484375 1.21875q0.5625 0.734375 0.828125 1.578125q0.265625 0.84375 0.34375 1.59375q0.078125 0.75 0.078125 1.21875l0 7.234375l-2.9375 0zm-8.984375 0l0 -12.953125l2.578125 0l0 4.015625l0.34375 0l0 8.9375l-2.921875 0zm20.72998 0.359375q-1.96875 0 -3.46875 -0.84375q-1.484375 -0.859375 -2.328125 -2.375q-0.828125 -1.515625 -0.828125 -3.484375q0 -2.109375 0.8125 -3.671875q0.828125 -1.578125 2.28125 -2.4375q1.453125 -0.859375 3.359375 -0.859375q2.015625 0 3.421875 0.9375q1.40625 0.9375 2.09375 2.65625q0.6875 1.71875 0.515625 4.046875l-2.859375 0l0 -1.0625q-0.015625 -2.109375 -0.75 -3.078125q-0.734375 -0.96875 -2.296875 -0.96875q-1.78125 0 -2.65625 1.09375q-0.859375 1.09375 -0.859375 3.203125q0 1.96875 0.859375 3.046875q0.875 1.078125 2.53125 1.078125q1.0625 0 1.828125 -0.46875q0.78125 -0.46875 1.203125 -1.375l2.859375 0.859375q-0.75 1.765625 -2.3125 2.734375q-1.546875 0.96875 -3.40625 0.96875zm-4.46875 -6.03125l0 -2.1875l8.921875 0l0 2.1875l-8.921875 0zm21.619385 5.671875l0 -6.234375q0 -0.625 -0.09375 -1.359375q-0.078125 -0.75 -0.390625 -1.4375q-0.296875 -0.6875 -0.90625 -1.125q-0.59375 -0.453125 -1.625 -0.453125q-0.5625 0 -1.109375 0.1875q-0.53125 0.171875 -0.96875 0.609375q-0.4375 0.4375 -0.703125 1.203125q-0.265625 0.765625 -0.265625 1.953125l-1.703125 -0.734375q0 -1.65625 0.640625 -3.0q0.640625 -1.34375 1.875 -2.140625q1.25 -0.796875 3.078125 -0.796875q1.4375 0 2.375 0.484375q0.9375 0.46875 1.484375 1.21875q0.5625 0.734375 0.828125 1.578125q0.265625 0.84375 0.34375 1.59375q0.078125 0.75 0.078125 1.21875l0 7.234375l-2.9375 0zm-8.984375 0l0 -12.953125l2.578125 0l0 4.015625l0.34375 0l0 8.9375l-2.921875 0z" fill-rule="nonzero"/><path fill="#000000" fill-opacity="0.0" d="m292.65506 269.98163l64.06299 0" fill-rule="evenodd"/><path stroke="#595959" stroke-width="4.0" stroke-linejoin="round" stroke-linecap="butt" d="m292.65503 269.98163l50.354675 0" fill-rule="evenodd"/><path fill="#595959" stroke="#595959" stroke-width="4.0" stroke-linecap="butt" d="m343.0097 269.98163l-4.4983215 4.4983215l12.35907 -4.4983215l-12.35907 -4.4983215z" fill-rule="evenodd"/><path fill="#000000" fill-opacity="0.0" d="m603.281 270.01837l64.06299 0" fill-rule="evenodd"/><path stroke="#595959" stroke-width="4.0" stroke-linejoin="round" stroke-linecap="butt" d="m603.28107 270.01837l50.354614 0" fill-rule="evenodd"/><path fill="#595959" stroke="#595959" stroke-width="4.0" stroke-linecap="butt" d="m653.6357 270.01837l-4.498352 4.4983215l12.35907 -4.4983215l-12.35907 -4.4983215z" fill-rule="evenodd"/><path fill="#000000" fill-opacity="0.0" d="m153.74278 382.7533l341.88977 0l0 38.771637l-341.88977 0z" fill-rule="evenodd"/><path fill="#595959" d="m244.91385 407.34766q-1.59375 0 -2.59375 -0.71875q-1.0 -0.71875 -1.21875 -2.015625l1.96875 -0.3125q0.15625 0.640625 0.671875 1.015625q0.515625 0.359375 1.3125 0.359375q0.6875 0 1.0625 -0.265625q0.390625 -0.28125 0.390625 -0.765625q0 -0.296875 -0.140625 -0.46875q-0.140625 -0.1875 -0.609375 -0.34375q-0.46875 -0.171875 -1.453125 -0.4375q-1.078125 -0.28125 -1.71875 -0.609375q-0.640625 -0.328125 -0.921875 -0.78125q-0.28125 -0.46875 -0.28125 -1.109375q0 -0.8125 0.421875 -1.40625q0.421875 -0.609375 1.171875 -0.921875q0.765625 -0.328125 1.796875 -0.328125q1.015625 0 1.796875 0.3125q0.78125 0.3125 1.25 0.890625q0.484375 0.5625 0.59375 1.34375l-1.96875 0.359375q-0.0625 -0.5625 -0.5 -0.875q-0.421875 -0.328125 -1.125 -0.359375q-0.6875 -0.046875 -1.109375 0.203125q-0.40625 0.234375 -0.40625 0.6875q0 0.234375 0.15625 0.421875q0.171875 0.171875 0.671875 0.34375q0.515625 0.171875 1.53125 0.4375q1.03125 0.265625 1.640625 0.609375q0.625 0.328125 0.90625 0.8125q0.28125 0.46875 0.28125 1.140625q0 1.296875 -0.953125 2.046875q-0.953125 0.734375 -2.625 0.734375zm5.4920197 -10.1875l0 -1.765625l1.921875 0l0 1.765625l-1.921875 0zm0 9.953125l0 -8.640625l1.921875 0l0 8.640625l-1.921875 0zm10.300461 0l0 -4.15625q0 -0.40625 -0.0625 -0.90625q-0.046875 -0.5 -0.25 -0.953125q-0.203125 -0.46875 -0.609375 -0.765625q-0.40625 -0.296875 -1.09375 -0.296875q-0.359375 0 -0.734375 0.125q-0.359375 0.125 -0.65625 0.421875q-0.28125 0.28125 -0.453125 0.796875q-0.171875 0.5 -0.171875 1.296875l-1.1562653 -0.484375q0 -1.109375 0.421875 -2.0q0.43751526 -0.90625 1.2656403 -1.4375q0.84375 -0.53125 2.046875 -0.53125q0.96875 0 1.59375 0.328125q0.625 0.3125 0.984375 0.8125q0.375 0.5 0.546875 1.0625q0.171875 0.546875 0.21875 1.046875q0.0625 0.5 0.0625 0.8125l0 4.828125l-1.953125 0zm-5.9843903 0l0 -8.640625l1.7187653 0l0 2.6875l0.234375 0l0 5.953125l-1.9531403 0zm13.340622 0.234375q-1.1875 0 -2.078125 -0.59375q-0.890625 -0.59375 -1.375 -1.625q-0.484375 -1.046875 -0.484375 -2.328125q0 -1.3125 0.484375 -2.34375q0.5 -1.03125 1.40625 -1.625q0.90625 -0.59375 2.125 -0.59375q1.234375 0 2.0625 0.59375q0.84375 0.59375 1.265625 1.625q0.4375 1.03125 0.4375 2.34375q0 1.28125 -0.4375 2.328125q-0.421875 1.03125 -1.28125 1.625q-0.859375 0.59375 -2.125 0.59375zm0.296875 -1.71875q0.78125 0 1.25 -0.359375q0.484375 -0.359375 0.703125 -1.0q0.21875 -0.640625 0.21875 -1.46875q0 -0.859375 -0.21875 -1.484375q-0.21875 -0.640625 -0.6875 -1.0q-0.453125 -0.359375 -1.203125 -0.359375q-0.765625 0 -1.28125 0.390625q-0.5 0.375 -0.734375 1.015625q-0.234375 0.640625 -0.234375 1.4375q0 0.78125 0.234375 1.4375q0.234375 0.640625 0.71875 1.015625q0.484375 0.375 1.234375 0.375zm2.171875 1.484375l0 -6.0625l-0.234375 0l0 -5.453125l1.9375 0l0 11.515625l-1.703125 0zm7.1499634 0l0 -11.515625l4.5625 0q1.171875 0 1.921875 0.46875q0.75 0.46875 1.109375 1.203125q0.359375 0.71875 0.359375 1.484375q0 0.953125 -0.453125 1.625q-0.453125 0.65625 -1.21875 0.890625l0 -0.390625q1.078125 0.25 1.640625 1.03125q0.5625 0.78125 0.5625 1.78125q0 1.015625 -0.390625 1.796875q-0.390625 0.765625 -1.171875 1.203125q-0.765625 0.421875 -1.890625 0.421875l-5.03125 0zm1.953125 -1.8125l2.828125 0q0.515625 0 0.90625 -0.203125q0.40625 -0.203125 0.625 -0.578125q0.234375 -0.375 0.234375 -0.890625q0 -0.453125 -0.203125 -0.828125q-0.203125 -0.375 -0.59375 -0.59375q-0.375 -0.21875 -0.90625 -0.21875l-2.890625 0l0 3.3125zm0 -5.109375l2.578125 0q0.421875 0 0.75 -0.15625q0.328125 -0.15625 0.515625 -0.46875q0.203125 -0.3125 0.203125 -0.765625q0 -0.609375 -0.390625 -1.0q-0.375 -0.40625 -1.078125 -0.40625l-2.578125 0l0 2.796875zm12.064606 7.15625q-1.3125 0 -2.3125 -0.5625q-0.984375 -0.5625 -1.546875 -1.5625q-0.546875 -1.015625 -0.546875 -2.328125q0 -1.421875 0.546875 -2.46875q0.546875 -1.046875 1.5 -1.609375q0.96875 -0.578125 2.25 -0.578125q1.34375 0 2.28125 0.625q0.9375 0.625 1.390625 1.78125q0.46875 1.140625 0.34375 2.6875l-1.90625 0l0 -0.703125q0 -1.40625 -0.5 -2.046875q-0.484375 -0.65625 -1.53125 -0.65625q-1.1875 0 -1.765625 0.734375q-0.5625 0.71875 -0.5625 2.140625q0 1.296875 0.5625 2.03125q0.578125 0.71875 1.6875 0.71875q0.703125 0 1.21875 -0.3125q0.53125 -0.328125 0.796875 -0.921875l1.90625 0.578125q-0.484375 1.15625 -1.53125 1.8125q-1.03125 0.640625 -2.28125 0.640625zm-2.96875 -4.015625l0 -1.453125l5.9375 0l0 1.453125l-5.9375 0zm12.006897 4.015625q-1.59375 0 -2.59375 -0.71875q-1.0 -0.71875 -1.21875 -2.015625l1.96875 -0.3125q0.15625 0.640625 0.671875 1.015625q0.515625 0.359375 1.3125 0.359375q0.6875 0 1.0625 -0.265625q0.390625 -0.28125 0.390625 -0.765625q0 -0.296875 -0.140625 -0.46875q-0.140625 -0.1875 -0.609375 -0.34375q-0.46875 -0.171875 -1.453125 -0.4375q-1.078125 -0.28125 -1.71875 -0.609375q-0.640625 -0.328125 -0.921875 -0.78125q-0.28125 -0.46875 -0.28125 -1.109375q0 -0.8125 0.421875 -1.40625q0.421875 -0.609375 1.171875 -0.921875q0.765625 -0.328125 1.796875 -0.328125q1.015625 0 1.796875 0.3125q0.78125 0.3125 1.25 0.890625q0.484375 0.5625 0.59375 1.34375l-1.96875 0.359375q-0.0625 -0.5625 -0.5 -0.875q-0.421875 -0.328125 -1.125 -0.359375q-0.6875 -0.046875 -1.109375 0.203125q-0.40625 0.234375 -0.40625 0.6875q0 0.234375 0.15625 0.421875q0.171875 0.171875 0.671875 0.34375q0.515625 0.171875 1.53125 0.4375q1.03125 0.265625 1.640625 0.609375q0.625 0.328125 0.90625 0.8125q0.28125 0.46875 0.28125 1.140625q0 1.296875 -0.953125 2.046875q-0.953125 0.734375 -2.625 0.734375zm10.398254 -0.234375q-0.859375 0.15625 -1.6875 0.140625q-0.8125 -0.015625 -1.46875 -0.296875q-0.640625 -0.296875 -0.96875 -0.90625q-0.296875 -0.5625 -0.3125 -1.140625q-0.015625 -0.59375 -0.015625 -1.328125l0 -7.515625l1.90625 0l0 7.40625q0 0.515625 0.015625 0.90625q0.015625 0.390625 0.171875 0.640625q0.28125 0.484375 0.90625 0.546875q0.640625 0.046875 1.453125 -0.0625l0 1.609375zm-6.03125 -7.125l0 -1.515625l6.03125 0l0 1.515625l-6.03125 0zm10.3029175 7.359375q-0.9375 0 -1.59375 -0.34375q-0.640625 -0.359375 -0.96875 -0.953125q-0.328125 -0.59375 -0.328125 -1.3125q0 -0.609375 0.203125 -1.109375q0.21875 -0.5 0.640625 -0.859375q0.4375 -0.375 1.125 -0.609375q0.515625 -0.171875 1.21875 -0.296875q0.703125 -0.140625 1.515625 -0.25q0.828125 -0.125 1.71875 -0.265625l-0.6875 0.390625q0.015625 -0.890625 -0.40625 -1.3125q-0.40625 -0.421875 -1.375 -0.421875q-0.578125 0 -1.125 0.28125q-0.546875 0.265625 -0.75 0.921875l-1.765625 -0.546875q0.3125 -1.09375 1.21875 -1.75q0.90625 -0.671875 2.421875 -0.671875q1.15625 0 2.03125 0.375q0.875 0.375 1.296875 1.234375q0.234375 0.453125 0.28125 0.9375q0.046875 0.46875 0.046875 1.03125l0 5.296875l-1.6875 0l0 -1.875l0.28125 0.3125q-0.578125 0.9375 -1.359375 1.375q-0.78125 0.421875 -1.953125 0.421875zm0.390625 -1.53125q0.65625 0 1.109375 -0.234375q0.46875 -0.234375 0.75 -0.5625q0.28125 -0.34375 0.375 -0.640625q0.140625 -0.359375 0.15625 -0.828125q0.03125 -0.484375 0.03125 -0.78125l0.59375 0.171875q-0.875 0.140625 -1.5 0.25q-0.625 0.09375 -1.078125 0.1875q-0.4375 0.09375 -0.78125 0.203125q-0.34375 0.125 -0.578125 0.28125q-0.21875 0.15625 -0.34375 0.375q-0.125 0.203125 -0.125 0.484375q0 0.3125 0.15625 0.5625q0.15625 0.25 0.46875 0.390625q0.3125 0.140625 0.765625 0.140625zm12.387756 1.296875l0 -4.15625q0 -0.40625 -0.0625 -0.90625q-0.046875 -0.5 -0.25 -0.953125q-0.203125 -0.46875 -0.609375 -0.765625q-0.40625 -0.296875 -1.09375 -0.296875q-0.359375 0 -0.734375 0.125q-0.359375 0.125 -0.65625 0.421875q-0.28125 0.28125 -0.453125 0.796875q-0.171875 0.5 -0.171875 1.296875l-1.15625 -0.484375q0 -1.109375 0.421875 -2.0q0.4375 -0.90625 1.265625 -1.4375q0.84375 -0.53125 2.046875 -0.53125q0.96875 0 1.59375 0.328125q0.625 0.3125 0.984375 0.8125q0.375 0.5 0.546875 1.0625q0.171875 0.546875 0.21875 1.046875q0.0625 0.5 0.0625 0.8125l0 4.828125l-1.953125 0zm-5.984375 0l0 -8.640625l1.71875 0l0 2.6875l0.234375 0l0 5.953125l-1.953125 0zm13.340637 0.234375q-1.1875 0 -2.078125 -0.59375q-0.890625 -0.59375 -1.375 -1.625q-0.484375 -1.046875 -0.484375 -2.328125q0 -1.3125 0.484375 -2.34375q0.5 -1.03125 1.40625 -1.625q0.90625 -0.59375 2.125 -0.59375q1.234375 0 2.0625 0.59375q0.84375 0.59375 1.265625 1.625q0.4375 1.03125 0.4375 2.34375q0 1.28125 -0.4375 2.328125q-0.421875 1.03125 -1.28125 1.625q-0.859375 0.59375 -2.125 0.59375zm0.296875 -1.71875q0.78125 0 1.25 -0.359375q0.484375 -0.359375 0.703125 -1.0q0.21875 -0.640625 0.21875 -1.46875q0 -0.859375 -0.21875 -1.484375q-0.21875 -0.640625 -0.6875 -1.0q-0.453125 -0.359375 -1.203125 -0.359375q-0.765625 0 -1.28125 0.390625q-0.5 0.375 -0.734375 1.015625q-0.234375 0.640625 -0.234375 1.4375q0 0.78125 0.234375 1.4375q0.234375 0.640625 0.71875 1.015625q0.484375 0.375 1.234375 0.375zm2.171875 1.484375l0 -6.0625l-0.234375 0l0 -5.453125l1.9375 0l0 11.515625l-1.703125 0zm9.012482 0q-0.859375 0.15625 -1.6875 0.140625q-0.8125 -0.015625 -1.46875 -0.296875q-0.640625 -0.296875 -0.96875 -0.90625q-0.296875 -0.5625 -0.3125 -1.140625q-0.015625 -0.59375 -0.015625 -1.328125l0 -7.515625l1.90625 0l0 7.40625q0 0.515625 0.015625 0.90625q0.015625 0.390625 0.171875 0.640625q0.28125 0.484375 0.90625 0.546875q0.640625 0.046875 1.453125 -0.0625l0 1.609375zm-6.03125 -7.125l0 -1.515625l6.03125 0l0 1.515625l-6.03125 0zm11.37854 7.359375q-1.3125 0 -2.3125 -0.5625q-0.984375 -0.5625 -1.546875 -1.5625q-0.546875 -1.015625 -0.546875 -2.328125q0 -1.421875 0.546875 -2.46875q0.546875 -1.046875 1.5 -1.609375q0.96875 -0.578125 2.25 -0.578125q1.34375 0 2.28125 0.625q0.9375 0.625 1.390625 1.78125q0.46875 1.140625 0.34375 2.6875l-1.90625 0l0 -0.703125q0 -1.40625 -0.5 -2.046875q-0.484375 -0.65625 -1.53125 -0.65625q-1.1875 0 -1.765625 0.734375q-0.5625 0.71875 -0.5625 2.140625q0 1.296875 0.5625 2.03125q0.578125 0.71875 1.6875 0.71875q0.703125 0 1.21875 -0.3125q0.53125 -0.328125 0.796875 -0.921875l1.90625 0.578125q-0.484375 1.15625 -1.53125 1.8125q-1.03125 0.640625 -2.28125 0.640625zm-2.96875 -4.015625l0 -1.453125l5.9375 0l0 1.453125l-5.9375 0zm8.835022 -6.171875l0 -1.765625l1.921875 0l0 1.765625l-1.921875 0zm0 9.953125l0 -8.640625l1.921875 0l0 8.640625l-1.921875 0zm4.4879456 0l0 -11.765625l1.921875 0l0 11.765625l-1.921875 0zm9.859772 0l-3.140625 -8.640625l1.9375 0l2.171875 6.265625l2.171875 -6.265625l1.9375 0l-3.140625 8.640625l-1.9375 0zm10.012268 0.234375q-1.296875 0 -2.265625 -0.578125q-0.96875 -0.578125 -1.5 -1.609375q-0.53125 -1.03125 -0.53125 -2.359375q0 -1.375 0.546875 -2.390625q0.546875 -1.03125 1.5 -1.59375q0.96875 -0.578125 2.25 -0.578125q1.296875 0 2.265625 0.578125q0.96875 0.578125 1.5 1.609375q0.546875 1.03125 0.546875 2.375q0 1.34375 -0.546875 2.375q-0.53125 1.015625 -1.5 1.59375q-0.96875 0.578125 -2.265625 0.578125zm0 -1.796875q1.15625 0 1.703125 -0.765625q0.5625 -0.78125 0.5625 -1.984375q0 -1.265625 -0.5625 -2.015625q-0.5625 -0.75 -1.703125 -0.75q-0.78125 0 -1.28125 0.359375q-0.5 0.34375 -0.734375 0.96875q-0.234375 0.609375 -0.234375 1.4375q0 1.25 0.5625 2.0q0.578125 0.75 1.6875 0.75zm12.044128 1.5625l0 -4.15625q0 -0.40625 -0.0625 -0.90625q-0.046875 -0.5 -0.25 -0.953125q-0.203125 -0.46875 -0.609375 -0.765625q-0.40625 -0.296875 -1.09375 -0.296875q-0.359375 0 -0.734375 0.125q-0.359375 0.125 -0.65625 0.421875q-0.28125 0.28125 -0.453125 0.796875q-0.171875 0.5 -0.171875 1.296875l-1.15625 -0.484375q0 -1.109375 0.421875 -2.0q0.4375 -0.90625 1.265625 -1.4375q0.84375 -0.53125 2.046875 -0.53125q0.96875 0 1.59375 0.328125q0.625 0.3125 0.984375 0.8125q0.375 0.5 0.546875 1.0625q0.171875 0.546875 0.21875 1.046875q0.0625 0.5 0.0625 0.8125l0 4.828125l-1.953125 0zm-5.984375 0l0 -8.640625l1.71875 0l0 2.6875l0.234375 0l0 5.953125l-1.953125 0zm10.179749 0l0 -1.96875l1.984375 0l0 1.96875l-1.984375 0zm3.40625 0l0 -1.96875l1.984375 0l0 1.96875l-1.984375 0zm3.40625 0l0 -1.96875l1.984375 0l0 1.96875l-1.984375 0z" fill-rule="nonzero"/><path fill="#000000" fill-opacity="0.0" d="m464.36746 382.7533l341.88974 0l0 38.771637l-341.88974 0z" fill-rule="evenodd"/><path fill="#595959" d="m555.5385 407.34766q-1.59375 0 -2.59375 -0.71875q-1.0 -0.71875 -1.21875 -2.015625l1.96875 -0.3125q0.15625 0.640625 0.671875 1.015625q0.515625 0.359375 1.3125 0.359375q0.6875 0 1.0625 -0.265625q0.390625 -0.28125 0.390625 -0.765625q0 -0.296875 -0.140625 -0.46875q-0.140625 -0.1875 -0.609375 -0.34375q-0.46875 -0.171875 -1.453125 -0.4375q-1.078125 -0.28125 -1.71875 -0.609375q-0.640625 -0.328125 -0.921875 -0.78125q-0.28125 -0.46875 -0.28125 -1.109375q0 -0.8125 0.421875 -1.40625q0.421875 -0.609375 1.171875 -0.921875q0.765625 -0.328125 1.796875 -0.328125q1.015625 0 1.796875 0.3125q0.78125 0.3125 1.25 0.890625q0.484375 0.5625 0.59375 1.34375l-1.96875 0.359375q-0.0625 -0.5625 -0.5 -0.875q-0.421875 -0.328125 -1.125 -0.359375q-0.6875 -0.046875 -1.109375 0.203125q-0.40625 0.234375 -0.40625 0.6875q0 0.234375 0.15625 0.421875q0.171875 0.171875 0.671875 0.34375q0.515625 0.171875 1.53125 0.4375q1.03125 0.265625 1.640625 0.609375q0.625 0.328125 0.90625 0.8125q0.28125 0.46875 0.28125 1.140625q0 1.296875 -0.953125 2.046875q-0.953125 0.734375 -2.625 0.734375zm5.4920044 -10.1875l0 -1.765625l1.921875 0l0 1.765625l-1.921875 0zm0 9.953125l0 -8.640625l1.921875 0l0 8.640625l-1.921875 0zm10.300476 0l0 -4.15625q0 -0.40625 -0.0625 -0.90625q-0.046875 -0.5 -0.25 -0.953125q-0.203125 -0.46875 -0.609375 -0.765625q-0.40625 -0.296875 -1.09375 -0.296875q-0.359375 0 -0.734375 0.125q-0.359375 0.125 -0.65625 0.421875q-0.28125 0.28125 -0.453125 0.796875q-0.171875 0.5 -0.171875 1.296875l-1.15625 -0.484375q0 -1.109375 0.421875 -2.0q0.4375 -0.90625 1.265625 -1.4375q0.84375 -0.53125 2.046875 -0.53125q0.96875 0 1.59375 0.328125q0.625 0.3125 0.984375 0.8125q0.375 0.5 0.546875 1.0625q0.171875 0.546875 0.21875 1.046875q0.0625 0.5 0.0625 0.8125l0 4.828125l-1.953125 0zm-5.984375 0l0 -8.640625l1.71875 0l0 2.6875l0.234375 0l0 5.953125l-1.953125 0zm13.340637 0.234375q-1.1875 0 -2.078125 -0.59375q-0.890625 -0.59375 -1.375 -1.625q-0.484375 -1.046875 -0.484375 -2.328125q0 -1.3125 0.484375 -2.34375q0.5 -1.03125 1.40625 -1.625q0.90625 -0.59375 2.125 -0.59375q1.234375 0 2.0625 0.59375q0.84375 0.59375 1.265625 1.625q0.4375 1.03125 0.4375 2.34375q0 1.28125 -0.4375 2.328125q-0.421875 1.03125 -1.28125 1.625q-0.859375 0.59375 -2.125 0.59375zm0.296875 -1.71875q0.78125 0 1.25 -0.359375q0.484375 -0.359375 0.703125 -1.0q0.21875 -0.640625 0.21875 -1.46875q0 -0.859375 -0.21875 -1.484375q-0.21875 -0.640625 -0.6875 -1.0q-0.453125 -0.359375 -1.203125 -0.359375q-0.765625 0 -1.28125 0.390625q-0.5 0.375 -0.734375 1.015625q-0.234375 0.640625 -0.234375 1.4375q0 0.78125 0.234375 1.4375q0.234375 0.640625 0.71875 1.015625q0.484375 0.375 1.234375 0.375zm2.171875 1.484375l0 -6.0625l-0.234375 0l0 -5.453125l1.9375 0l0 11.515625l-1.703125 0zm7.1499634 0l0 -11.515625l4.5625 0q1.171875 0 1.921875 0.46875q0.75 0.46875 1.109375 1.203125q0.359375 0.71875 0.359375 1.484375q0 0.953125 -0.453125 1.625q-0.453125 0.65625 -1.21875 0.890625l0 -0.390625q1.078125 0.25 1.640625 1.03125q0.5625 0.78125 0.5625 1.78125q0 1.015625 -0.390625 1.796875q-0.390625 0.765625 -1.171875 1.203125q-0.765625 0.421875 -1.890625 0.421875l-5.03125 0zm1.953125 -1.8125l2.828125 0q0.515625 0 0.90625 -0.203125q0.40625 -0.203125 0.625 -0.578125q0.234375 -0.375 0.234375 -0.890625q0 -0.453125 -0.203125 -0.828125q-0.203125 -0.375 -0.59375 -0.59375q-0.375 -0.21875 -0.90625 -0.21875l-2.890625 0l0 3.3125zm0 -5.109375l2.578125 0q0.421875 0 0.75 -0.15625q0.328125 -0.15625 0.515625 -0.46875q0.203125 -0.3125 0.203125 -0.765625q0 -0.609375 -0.390625 -1.0q-0.375 -0.40625 -1.078125 -0.40625l-2.578125 0l0 2.796875zm12.064575 7.15625q-1.3125 0 -2.3125 -0.5625q-0.984375 -0.5625 -1.546875 -1.5625q-0.546875 -1.015625 -0.546875 -2.328125q0 -1.421875 0.546875 -2.46875q0.546875 -1.046875 1.5 -1.609375q0.96875 -0.578125 2.25 -0.578125q1.34375 0 2.28125 0.625q0.9375 0.625 1.390625 1.78125q0.46875 1.140625 0.34375 2.6875l-1.90625 0l0 -0.703125q0 -1.40625 -0.5 -2.046875q-0.484375 -0.65625 -1.53125 -0.65625q-1.1875 0 -1.765625 0.734375q-0.5625 0.71875 -0.5625 2.140625q0 1.296875 0.5625 2.03125q0.578125 0.71875 1.6875 0.71875q0.703125 0 1.21875 -0.3125q0.53125 -0.328125 0.796875 -0.921875l1.90625 0.578125q-0.484375 1.15625 -1.53125 1.8125q-1.03125 0.640625 -2.28125 0.640625zm-2.96875 -4.015625l0 -1.453125l5.9375 0l0 1.453125l-5.9375 0zm12.006897 4.015625q-1.59375 0 -2.59375 -0.71875q-1.0 -0.71875 -1.21875 -2.015625l1.96875 -0.3125q0.15625 0.640625 0.671875 1.015625q0.515625 0.359375 1.3125 0.359375q0.6875 0 1.0625 -0.265625q0.390625 -0.28125 0.390625 -0.765625q0 -0.296875 -0.140625 -0.46875q-0.140625 -0.1875 -0.609375 -0.34375q-0.46875 -0.171875 -1.453125 -0.4375q-1.078125 -0.28125 -1.71875 -0.609375q-0.640625 -0.328125 -0.921875 -0.78125q-0.28125 -0.46875 -0.28125 -1.109375q0 -0.8125 0.421875 -1.40625q0.421875 -0.609375 1.171875 -0.921875q0.765625 -0.328125 1.796875 -0.328125q1.015625 0 1.796875 0.3125q0.78125 0.3125 1.25 0.890625q0.484375 0.5625 0.59375 1.34375l-1.96875 0.359375q-0.0625 -0.5625 -0.5 -0.875q-0.421875 -0.328125 -1.125 -0.359375q-0.6875 -0.046875 -1.109375 0.203125q-0.40625 0.234375 -0.40625 0.6875q0 0.234375 0.15625 0.421875q0.171875 0.171875 0.671875 0.34375q0.515625 0.171875 1.53125 0.4375q1.03125 0.265625 1.640625 0.609375q0.625 0.328125 0.90625 0.8125q0.28125 0.46875 0.28125 1.140625q0 1.296875 -0.953125 2.046875q-0.953125 0.734375 -2.625 0.734375zm10.398254 -0.234375q-0.859375 0.15625 -1.6875 0.140625q-0.8125 -0.015625 -1.46875 -0.296875q-0.640625 -0.296875 -0.96875 -0.90625q-0.296875 -0.5625 -0.3125 -1.140625q-0.015625 -0.59375 -0.015625 -1.328125l0 -7.515625l1.90625 0l0 7.40625q0 0.515625 0.015625 0.90625q0.015625 0.390625 0.171875 0.640625q0.28125 0.484375 0.90625 0.546875q0.640625 0.046875 1.453125 -0.0625l0 1.609375zm-6.03125 -7.125l0 -1.515625l6.03125 0l0 1.515625l-6.03125 0zm10.3029175 7.359375q-0.9375 0 -1.59375 -0.34375q-0.640625 -0.359375 -0.96875 -0.953125q-0.328125 -0.59375 -0.328125 -1.3125q0 -0.609375 0.203125 -1.109375q0.21875 -0.5 0.640625 -0.859375q0.4375 -0.375 1.125 -0.609375q0.515625 -0.171875 1.21875 -0.296875q0.703125 -0.140625 1.515625 -0.25q0.828125 -0.125 1.71875 -0.265625l-0.6875 0.390625q0.015625 -0.890625 -0.40625 -1.3125q-0.40625 -0.421875 -1.375 -0.421875q-0.578125 0 -1.125 0.28125q-0.546875 0.265625 -0.75 0.921875l-1.765625 -0.546875q0.3125 -1.09375 1.21875 -1.75q0.90625 -0.671875 2.421875 -0.671875q1.15625 0 2.03125 0.375q0.875 0.375 1.296875 1.234375q0.234375 0.453125 0.28125 0.9375q0.046875 0.46875 0.046875 1.03125l0 5.296875l-1.6875 0l0 -1.875l0.28125 0.3125q-0.578125 0.9375 -1.359375 1.375q-0.78125 0.421875 -1.953125 0.421875zm0.390625 -1.53125q0.65625 0 1.109375 -0.234375q0.46875 -0.234375 0.75 -0.5625q0.28125 -0.34375 0.375 -0.640625q0.140625 -0.359375 0.15625 -0.828125q0.03125 -0.484375 0.03125 -0.78125l0.59375 0.171875q-0.875 0.140625 -1.5 0.25q-0.625 0.09375 -1.078125 0.1875q-0.4375 0.09375 -0.78125 0.203125q-0.34375 0.125 -0.578125 0.28125q-0.21875 0.15625 -0.34375 0.375q-0.125 0.203125 -0.125 0.484375q0 0.3125 0.15625 0.5625q0.15625 0.25 0.46875 0.390625q0.3125 0.140625 0.765625 0.140625zm12.387756 1.296875l0 -4.15625q0 -0.40625 -0.0625 -0.90625q-0.046875 -0.5 -0.25 -0.953125q-0.203125 -0.46875 -0.609375 -0.765625q-0.40625 -0.296875 -1.09375 -0.296875q-0.359375 0 -0.734375 0.125q-0.359375 0.125 -0.65625 0.421875q-0.28125 0.28125 -0.453125 0.796875q-0.171875 0.5 -0.171875 1.296875l-1.15625 -0.484375q0 -1.109375 0.421875 -2.0q0.4375 -0.90625 1.265625 -1.4375q0.84375 -0.53125 2.046875 -0.53125q0.96875 0 1.59375 0.328125q0.625 0.3125 0.984375 0.8125q0.375 0.5 0.546875 1.0625q0.171875 0.546875 0.21875 1.046875q0.0625 0.5 0.0625 0.8125l0 4.828125l-1.953125 0zm-5.984375 0l0 -8.640625l1.71875 0l0 2.6875l0.234375 0l0 5.953125l-1.953125 0zm13.340637 0.234375q-1.1875 0 -2.078125 -0.59375q-0.890625 -0.59375 -1.375 -1.625q-0.484375 -1.046875 -0.484375 -2.328125q0 -1.3125 0.484375 -2.34375q0.5 -1.03125 1.40625 -1.625q0.90625 -0.59375 2.125 -0.59375q1.234375 0 2.0625 0.59375q0.84375 0.59375 1.265625 1.625q0.4375 1.03125 0.4375 2.34375q0 1.28125 -0.4375 2.328125q-0.421875 1.03125 -1.28125 1.625q-0.859375 0.59375 -2.125 0.59375zm0.296875 -1.71875q0.78125 0 1.25 -0.359375q0.484375 -0.359375 0.703125 -1.0q0.21875 -0.640625 0.21875 -1.46875q0 -0.859375 -0.21875 -1.484375q-0.21875 -0.640625 -0.6875 -1.0q-0.453125 -0.359375 -1.203125 -0.359375q-0.765625 0 -1.28125 0.390625q-0.5 0.375 -0.734375 1.015625q-0.234375 0.640625 -0.234375 1.4375q0 0.78125 0.234375 1.4375q0.234375 0.640625 0.71875 1.015625q0.484375 0.375 1.234375 0.375zm2.171875 1.484375l0 -6.0625l-0.234375 0l0 -5.453125l1.9375 0l0 11.515625l-1.703125 0zm9.012512 0q-0.859375 0.15625 -1.6875 0.140625q-0.8125 -0.015625 -1.46875 -0.296875q-0.640625 -0.296875 -0.96875 -0.90625q-0.296875 -0.5625 -0.3125 -1.140625q-0.015625 -0.59375 -0.015625 -1.328125l0 -7.515625l1.90625 0l0 7.40625q0 0.515625 0.015625 0.90625q0.015625 0.390625 0.171875 0.640625q0.28125 0.484375 0.90625 0.546875q0.640625 0.046875 1.453125 -0.0625l0 1.609375zm-6.03125 -7.125l0 -1.515625l6.03125 0l0 1.515625l-6.03125 0zm11.37854 7.359375q-1.3125 0 -2.3125 -0.5625q-0.984375 -0.5625 -1.546875 -1.5625q-0.546875 -1.015625 -0.546875 -2.328125q0 -1.421875 0.546875 -2.46875q0.546875 -1.046875 1.5 -1.609375q0.96875 -0.578125 2.25 -0.578125q1.34375 0 2.28125 0.625q0.9375 0.625 1.390625 1.78125q0.46875 1.140625 0.34375 2.6875l-1.90625 0l0 -0.703125q0 -1.40625 -0.5 -2.046875q-0.484375 -0.65625 -1.53125 -0.65625q-1.1875 0 -1.765625 0.734375q-0.5625 0.71875 -0.5625 2.140625q0 1.296875 0.5625 2.03125q0.578125 0.71875 1.6875 0.71875q0.703125 0 1.21875 -0.3125q0.53125 -0.328125 0.796875 -0.921875l1.90625 0.578125q-0.484375 1.15625 -1.53125 1.8125q-1.03125 0.640625 -2.28125 0.640625zm-2.96875 -4.015625l0 -1.453125l5.9375 0l0 1.453125l-5.9375 0zm8.835022 -6.171875l0 -1.765625l1.921875 0l0 1.765625l-1.921875 0zm0 9.953125l0 -8.640625l1.921875 0l0 8.640625l-1.921875 0zm4.487915 0l0 -11.765625l1.921875 0l0 11.765625l-1.921875 0zm9.859802 0l-3.140625 -8.640625l1.9375 0l2.171875 6.265625l2.171875 -6.265625l1.9375 0l-3.140625 8.640625l-1.9375 0zm10.012268 0.234375q-1.296875 0 -2.265625 -0.578125q-0.96875 -0.578125 -1.5 -1.609375q-0.53125 -1.03125 -0.53125 -2.359375q0 -1.375 0.546875 -2.390625q0.546875 -1.03125 1.5 -1.59375q0.96875 -0.578125 2.25 -0.578125q1.296875 0 2.265625 0.578125q0.96875 0.578125 1.5 1.609375q0.546875 1.03125 0.546875 2.375q0 1.34375 -0.546875 2.375q-0.53125 1.015625 -1.5 1.59375q-0.96875 0.578125 -2.265625 0.578125zm0 -1.796875q1.15625 0 1.703125 -0.765625q0.5625 -0.78125 0.5625 -1.984375q0 -1.265625 -0.5625 -2.015625q-0.5625 -0.75 -1.703125 -0.75q-0.78125 0 -1.28125 0.359375q-0.5 0.34375 -0.734375 0.96875q-0.234375 0.609375 -0.234375 1.4375q0 1.25 0.5625 2.0q0.578125 0.75 1.6875 0.75zm12.044128 1.5625l0 -4.15625q0 -0.40625 -0.0625 -0.90625q-0.046875 -0.5 -0.25 -0.953125q-0.203125 -0.46875 -0.609375 -0.765625q-0.40625 -0.296875 -1.09375 -0.296875q-0.359375 0 -0.734375 0.125q-0.359375 0.125 -0.65625 0.421875q-0.28125 0.28125 -0.453125 0.796875q-0.171875 0.5 -0.171875 1.296875l-1.15625 -0.484375q0 -1.109375 0.421875 -2.0q0.4375 -0.90625 1.265625 -1.4375q0.84375 -0.53125 2.046875 -0.53125q0.96875 0 1.59375 0.328125q0.625 0.3125 0.984375 0.8125q0.375 0.5 0.546875 1.0625q0.171875 0.546875 0.21875 1.046875q0.0625 0.5 0.0625 0.8125l0 4.828125l-1.953125 0zm-5.984375 0l0 -8.640625l1.71875 0l0 2.6875l0.234375 0l0 5.953125l-1.953125 0zm10.179749 0l0 -1.96875l1.984375 0l0 1.96875l-1.984375 0zm3.40625 0l0 -1.96875l1.984375 0l0 1.96875l-1.984375 0zm3.40625 0l0 -1.96875l1.984375 0l0 1.96875l-1.984375 0z" fill-rule="nonzero"/></g></svg>